<?xml version="1.0" encoding="UTF-8" standalone="no"?>
<!-- Created with Inkscape (http://www.inkscape.org/) -->

<svg
   xmlns:dc="http://purl.org/dc/elements/1.1/"
   xmlns:cc="http://creativecommons.org/ns#"
   xmlns:rdf="http://www.w3.org/1999/02/22-rdf-syntax-ns#"
   xmlns:svg="http://www.w3.org/2000/svg"
   xmlns="http://www.w3.org/2000/svg"
   xmlns:sodipodi="http://sodipodi.sourceforge.net/DTD/sodipodi-0.dtd"
   xmlns:inkscape="http://www.inkscape.org/namespaces/inkscape"
   width="512"
   height="512"
   viewBox="0 0 135.46666 135.46667"
   version="1.1"
   id="svg8"
   inkscape:version="0.92.4 (5da689c313, 2019-01-14)"
   sodipodi:docname="身份牌.svg"
   inkscape:export-filename="D:\PG\git-tempworkspace\素材\准备.png"
   inkscape:export-xdpi="96"
   inkscape:export-ydpi="96">
  <defs
     id="defs2" />
  <sodipodi:namedview
     id="base"
     pagecolor="#000000"
     bordercolor="#666666"
     borderopacity="1.0"
     inkscape:pageopacity="0"
     inkscape:pageshadow="2"
     inkscape:zoom="2.8284271"
     inkscape:cx="165.49715"
     inkscape:cy="327.90583"
     inkscape:document-units="px"
     inkscape:current-layer="layer1"
     showgrid="false"
     units="px"
     inkscape:window-width="1920"
     inkscape:window-height="1001"
     inkscape:window-x="-9"
     inkscape:window-y="-9"
     inkscape:window-maximized="1"
     showguides="false" />
  <metadata
     id="metadata5">
    <rdf:RDF>
      <cc:Work
         rdf:about="">
        <dc:format>image/svg+xml</dc:format>
        <dc:type
           rdf:resource="http://purl.org/dc/dcmitype/StillImage" />
        <dc:title />
      </cc:Work>
    </rdf:RDF>
  </metadata>
  <g
     inkscape:label="Layer 1"
     inkscape:groupmode="layer"
     id="layer1"
     transform="translate(0,-161.53332)">
    <g
       id="g983"
       inkscape:export-filename="D:\PG\git-tempworkspace\Game Platform\Assets\Resources\Wolfman\Witch.png"
       inkscape:export-xdpi="96"
       inkscape:export-ydpi="96">
      <circle
         r="10.583333"
         cy="198.52647"
         cx="57.688263"
         id="path2512"
         style="fill:#c8c8c8;fill-opacity:0;stroke:none;stroke-width:0.55433679;stroke-linecap:round;stroke-linejoin:round;stroke-miterlimit:4;stroke-dasharray:none;stroke-dashoffset:0;stroke-opacity:1;paint-order:stroke fill markers" />
      <path
         sodipodi:nodetypes="cccsccccccscssssscsccccscccccc"
         inkscape:connector-curvature="0"
         id="path815"
         d="m 50.314094,202.42263 c 0.854418,0.36486 1.448723,0.54302 2.383049,0.48315 3.379042,0.24708 2.795065,0.31237 4.606522,0.0753 2.325352,-0.0331 2.988067,-0.27412 3.788254,-0.3956 1.8108,-0.2749 1.77685,0.001 2.958665,-0.44594 0.381633,-0.0958 0.158079,-0.0834 1.353895,-0.46387 0.727077,-0.34839 1.144311,-0.4219 1.272217,-0.79176 -0.444676,-0.15911 -1.189913,0.24053 -1.797704,-0.0217 -0.445057,-0.10537 -0.58476,-0.21509 -1.408797,-0.17867 -0.395651,0.20972 -1.69895,0.28472 -2.080324,0.0811 -0.208807,-0.35984 -0.616438,-0.90045 -0.422013,-1.44385 0.137357,-0.3839 -0.467482,-0.96735 -0.467482,-0.96735 -0.774072,-0.45494 -0.09916,-0.91107 -0.892304,-1.41989 -0.14138,-0.0907 -1.042675,-0.93988 -0.806192,-2.25889 0.0587,-0.32739 0.293404,-0.58227 0.569785,-0.82541 0.197664,-0.17389 0.377363,-0.65755 0.607798,-0.52589 0.298646,0.17064 0.374718,0.36358 0.722877,0.41421 0.130964,0.019 0.04986,-0.7359 -0.26104,-1.10144 -0.387707,-0.21544 -0.74594,-0.22546 -1.439366,0.008 -0.260409,0.0877 -0.512571,0.35927 -0.902754,0.58827 -0.75098,0.42175 -0.86506,0.89179 -1.02447,1.38504 -0.340329,0.59165 -1.030526,1.06317 -0.835905,1.94431 -0.233418,0.73909 -0.245159,1.34175 -1.134827,1.7991 -0.51453,0.54063 -0.52555,0.52429 -0.522482,1.2242 0.0029,0.65457 -0.915543,1.1501 -1.137213,1.34298 -0.332532,0.12627 -1.273323,0.15878 -1.730533,0.16037 -0.668996,0.0416 -1.018896,0.14021 -1.340233,0.23972 -0.710408,0.37712 -1.447062,-0.42876 -1.766607,-0.0516 0.509062,0.43004 0.884632,0.81953 1.707184,1.1461 z"
         style="fill:#ffffff;fill-opacity:1;stroke:none;stroke-width:0.16322088;stroke-linecap:butt;stroke-linejoin:miter;stroke-miterlimit:4;stroke-dasharray:none;stroke-opacity:1" />
    </g>
    <g
       id="g960"
       inkscape:export-filename="D:\PG\git-tempworkspace\Game Platform\Assets\Resources\Wolfman\Defender.png"
       inkscape:export-xdpi="96"
       inkscape:export-ydpi="96">
      <circle
         r="10.583333"
         cy="225.43021"
         cx="98.160416"
         id="path2512-9"
         style="fill:#c8c8c8;fill-opacity:0;stroke:none;stroke-width:0.55433679;stroke-linecap:round;stroke-linejoin:round;stroke-miterlimit:4;stroke-dasharray:none;stroke-dashoffset:0;stroke-opacity:1;paint-order:stroke fill markers" />
      <path
         inkscape:connector-curvature="0"
         id="path1761"
         d="m 98.053433,218.25802 c -0.150922,0 -7.138099,2.08367 -7.214154,2.21403 -0.07549,0.12942 1.58561,7.17481 1.660518,7.30454 0.07546,0.13072 5.373617,5.13999 5.524536,5.14068 0.149818,6.6e-4 5.421147,-4.96078 5.496047,-5.09053 0.0755,-0.1307 1.76386,-7.22365 1.68901,-7.35469 -0.0744,-0.13013 -7.006138,-2.21403 -7.155957,-2.21403 z m -0.02106,1.34538 c 0.121408,0 5.739207,1.6562 5.799427,1.75959 0.0606,0.10412 -1.30774,5.74074 -1.36889,5.84463 -0.0607,0.10309 -4.332652,4.04595 -4.454066,4.04542 -0.12231,-5.4e-4 -4.415804,-3.98119 -4.476958,-4.08505 -0.06072,-0.1031 -1.407181,-5.70217 -1.345997,-5.805 0.06164,-0.10362 5.724177,-1.75959 5.846484,-1.75959 z m 0.06562,1.13735 c -0.09268,0 -4.383819,1.27958 -4.430522,1.35962 -0.04637,0.0794 0.97433,4.40595 1.020333,4.48564 0.04632,0.0802 3.299554,3.15592 3.392234,3.15634 0.09201,4.1e-4 3.328902,-3.04633 3.374892,-3.12601 0.0464,-0.0803 1.08365,-4.43549 1.03767,-4.51597 -0.0456,-0.0799 -4.302602,-1.35962 -4.394607,-1.35962 z"
         style="fill:#ffffff;fill-opacity:1;stroke:none;stroke-width:0.19829285;stroke-linecap:round;stroke-linejoin:round;stroke-miterlimit:4;stroke-dasharray:none;stroke-dashoffset:0;stroke-opacity:1;paint-order:stroke fill markers" />
    </g>
    <g
       id="g952"
       inkscape:export-filename="D:\PG\git-tempworkspace\Game Platform\Assets\Resources\Wolfman\Wolfman.png"
       inkscape:export-xdpi="96"
       inkscape:export-ydpi="96">
      <circle
         r="10.583333"
         cy="239.1497"
         cx="22.085196"
         id="path2512-4-6-5"
         style="fill:#c8c8c8;fill-opacity:0;stroke:none;stroke-width:0.55433679;stroke-linecap:round;stroke-linejoin:round;stroke-miterlimit:4;stroke-dasharray:none;stroke-dashoffset:0;stroke-opacity:1;paint-order:stroke fill markers" />
      <g
         transform="matrix(1.1204603,0,0,1.1204603,-18.680111,-32.995268)"
         id="g2631">
        <path
           style="fill:#ffffff;fill-opacity:1;stroke:none;stroke-width:0.49890003px;stroke-linecap:butt;stroke-linejoin:miter;stroke-opacity:1"
           d="m 36.558112,237.08068 c -0.01811,-7.6e-4 -0.04096,7.6e-4 -0.06918,0.007 l -0.273811,0.0439 c -1.463548,-0.0232 -1.876194,1.67317 -2.648132,2.26021 -2.473546,3.34305 -3.098247,2.47199 -4.065141,3.46616 1.788072,3.92032 0.753069,2.23754 2.19759,5.09435 1.650161,-0.86875 0.09922,-0.0331 1.98922,-0.93225 l 8.530805,0.45884 c 0.267582,-0.29628 0.582536,-0.54519 0.597313,-1.09427 l -0.74153,-0.15882 -0.251396,-0.41121 -0.388793,0.34689 -0.337147,-0.4492 -0.407306,0.36735 -0.321557,-0.48136 -0.349813,0.42387 -0.370279,-0.49013 -0.422892,0.43361 -0.245554,-0.48038 -0.40146,0.38294 -0.255297,-0.50377 -0.442385,0.49013 -0.833123,0.0117 -0.581722,-0.60901 1.420692,-0.50377 0.448232,-0.20852 0.391716,0.35078 0.342016,-0.30888 0.247505,0.41315 0.370274,-0.30986 0.352737,0.32058 0.352742,-0.2972 0.393662,0.31961 0.356634,-0.31571 0.349813,0.31766 0.349819,-0.29233 0.287451,0.29428 0.265041,-0.38782 0.431862,0.0137 c 0.458493,-0.51553 0.24046,-1.48209 0.343773,-2.23441 -0.01152,-0.10955 0.05043,-0.2122 -0.09452,-0.3352 -0.06271,-0.11502 -0.350448,-0.23242 -0.551519,-0.26796 -1.691387,-0.29898 -3.519402,-0.98232 -4.312757,-2.53055 -0.252728,-0.033 -0.527003,-0.16776 -0.741575,-0.18324 -0.583464,-0.0421 -1.007414,0.0926 -1.499574,0.192 0.01412,-0.1631 0.05044,-0.32817 -0.03996,-0.51741 l -0.04485,-0.27186 c -0.0504,-0.40373 0.223323,-0.62435 0.513518,-1.0017 0.07003,-0.0911 0.08394,-0.13524 0.159802,-0.27673 0.05976,-0.11144 0.05333,-0.15128 -9.87e-4,-0.15494 z m 0.667473,3.82945 c 0.447743,0 0.810713,0.36297 0.810713,0.81071 0,0.44774 -0.36297,0.81072 -0.810713,0.81072 -0.447742,0 -0.810712,-0.36298 -0.810712,-0.81072 0,-0.44774 0.36297,-0.81071 0.810712,-0.81071 z"
           id="path1765"
           inkscape:connector-curvature="0"
           sodipodi:nodetypes="sccccccccccccccccccccccccccccccccccccccccccsccccccssssss" />
        <circle
           style="fill:#909090;fill-opacity:1;stroke:none;stroke-width:0.36680868;stroke-linecap:round;stroke-linejoin:round;stroke-miterlimit:4;stroke-dasharray:none;stroke-dashoffset:0;stroke-opacity:1;paint-order:stroke fill markers"
           id="path1770"
           cx="42.816628"
           cy="242.17896"
           r="0.50436199" />
      </g>
    </g>
    <g
       id="g979"
       inkscape:export-filename="D:\PG\git-tempworkspace\Game Platform\Assets\Resources\Wolfman\Prophet.png"
       inkscape:export-xdpi="96"
       inkscape:export-ydpi="96">
      <circle
         r="10.583333"
         cy="183.62602"
         cx="83.60833"
         id="path2512-4"
         style="fill:#c8c8c8;fill-opacity:0;stroke:none;stroke-width:0.55433679;stroke-linecap:round;stroke-linejoin:round;stroke-miterlimit:4;stroke-dasharray:none;stroke-dashoffset:0;stroke-opacity:1;paint-order:stroke fill markers" />
      <g
         transform="matrix(1.3537415,0,0,1.3537415,-7.8633446,-87.072691)"
         id="g2574">
        <path
           inkscape:connector-curvature="0"
           style="fill:#ffffff;fill-opacity:1;stroke:none;stroke-width:0.24368353px;stroke-linecap:butt;stroke-linejoin:miter;stroke-opacity:1"
           d="m 67.840156,197.07878 c -3.560294,0.6121 -5.02915,2.14224 -6.503557,3.66995 1.741247,1.72472 3.884933,2.96629 6.384226,3.17233 2.452871,-0.49372 4.657609,-0.85007 6.026232,-3.23453 -1.349411,-1.50854 -2.493077,-3.11867 -5.906901,-3.60775 z m 0,0.43979 c 2.931036,0.41991 3.913006,1.80229 5.071582,3.09749 -1.17507,2.04726 -3.068151,2.35335 -5.174132,2.77725 -2.14584,-0.1769 -3.986319,-1.24299 -5.481317,-2.72379 1.265894,-1.31167 2.527075,-2.62541 5.583867,-3.15095 z"
           id="path1917" />
        <ellipse
           style="fill:#ffffff;fill-opacity:1;stroke:none;stroke-width:0.29205132;stroke-linecap:round;stroke-linejoin:round;stroke-miterlimit:4;stroke-dasharray:none;stroke-dashoffset:0;stroke-opacity:1;paint-order:stroke fill markers"
           id="path1911"
           cx="67.693993"
           cy="200.39908"
           rx="2.0379913"
           ry="2.1246424" />
        <path
           style="fill:none;stroke:#ffffff;stroke-width:0.48736706;stroke-linecap:round;stroke-linejoin:miter;stroke-miterlimit:4;stroke-dasharray:none;stroke-opacity:1"
           d="m 62.173285,198.48256 0.611755,0.92366"
           id="path1949"
           inkscape:connector-curvature="0" />
        <path
           style="fill:none;stroke:#ffffff;stroke-width:0.48736706;stroke-linecap:round;stroke-linejoin:miter;stroke-miterlimit:4;stroke-dasharray:none;stroke-opacity:1"
           d="m 63.20694,197.91077 0.442994,0.90167"
           id="path1977"
           inkscape:connector-curvature="0" />
        <path
           style="fill:none;stroke:#ffffff;stroke-width:0.48736706;stroke-linecap:round;stroke-linejoin:miter;stroke-miterlimit:4;stroke-dasharray:none;stroke-opacity:1"
           d="m 64.071834,197.49293 0.358616,0.79171"
           id="path1979"
           inkscape:connector-curvature="0" />
        <path
           style="fill:none;stroke:#ffffff;stroke-width:0.48736706;stroke-linecap:round;stroke-linejoin:miter;stroke-miterlimit:4;stroke-dasharray:none;stroke-opacity:1"
           d="m 65.000014,197.11906 0.29533,0.74773"
           id="path1985"
           inkscape:connector-curvature="0" />
        <path
           style="fill:none;stroke:#ffffff;stroke-width:0.48736706;stroke-linecap:round;stroke-linejoin:miter;stroke-miterlimit:4;stroke-dasharray:none;stroke-opacity:1"
           d="m 65.928195,196.81118 0.25314,0.72573"
           id="path1987"
           inkscape:connector-curvature="0" />
        <path
           style="fill:none;stroke:#ffffff;stroke-width:0.48736706;stroke-linecap:round;stroke-linejoin:miter;stroke-miterlimit:4;stroke-dasharray:none;stroke-opacity:1"
           d="m 66.835279,196.52528 0.08438,0.85769"
           id="path1993"
           inkscape:connector-curvature="0" />
        <path
           style="fill:none;stroke:#ffffff;stroke-width:0.48736706;stroke-linecap:round;stroke-linejoin:miter;stroke-miterlimit:4;stroke-dasharray:none;stroke-opacity:1"
           d="m 67.679079,196.41532 -0.03164,0.79171"
           id="path1997"
           inkscape:connector-curvature="0" />
        <path
           style="fill:none;stroke:#ffffff;stroke-width:0.48736706;stroke-linecap:round;stroke-linejoin:miter;stroke-miterlimit:4;stroke-dasharray:none;stroke-opacity:1"
           d="m 68.765472,196.51429 -0.221498,0.84668"
           id="path2003"
           inkscape:connector-curvature="0" />
        <path
           style="fill:none;stroke:#ffffff;stroke-width:0.48736706;stroke-linecap:round;stroke-linejoin:miter;stroke-miterlimit:4;stroke-dasharray:none;stroke-opacity:1"
           d="m 69.778032,196.67922 -0.305879,0.89068"
           id="path2025"
           inkscape:connector-curvature="0" />
        <path
           style="fill:none;stroke:#ffffff;stroke-width:0.48736706;stroke-linecap:round;stroke-linejoin:miter;stroke-miterlimit:4;stroke-dasharray:none;stroke-opacity:1"
           d="m 70.737854,197.08608 -0.453543,0.89067"
           id="path2027"
           inkscape:connector-curvature="0" />
        <path
           style="fill:none;stroke:#ffffff;stroke-width:0.48736706;stroke-linecap:round;stroke-linejoin:miter;stroke-miterlimit:4;stroke-dasharray:none;stroke-opacity:1"
           d="m 71.634391,197.62487 -0.569566,0.74773"
           id="path2029"
           inkscape:connector-curvature="0" />
        <path
           style="fill:none;stroke:#ffffff;stroke-width:0.48736706;stroke-linecap:round;stroke-linejoin:miter;stroke-miterlimit:4;stroke-dasharray:none;stroke-opacity:1"
           d="m 72.35162,198.14169 -0.569564,0.67075"
           id="path2031"
           inkscape:connector-curvature="0" />
        <path
           style="fill:none;stroke:#ffffff;stroke-width:0.48736706;stroke-linecap:round;stroke-linejoin:miter;stroke-miterlimit:4;stroke-dasharray:none;stroke-opacity:1"
           d="m 73.047756,198.63651 -0.696136,0.78071"
           id="path2033"
           inkscape:connector-curvature="0" />
      </g>
    </g>
    <g
       id="g946"
       inkscape:export-filename="D:\PG\git-tempworkspace\Game Platform\Assets\Resources\Wolfman\Villager.png"
       inkscape:export-xdpi="96"
       inkscape:export-ydpi="96">
      <circle
         r="10.583333"
         cy="197.51665"
         cx="29.897915"
         id="path2512-4-6-5-4"
         style="fill:#c8c8c8;fill-opacity:0;stroke:none;stroke-width:0.55433679;stroke-linecap:round;stroke-linejoin:round;stroke-miterlimit:4;stroke-dasharray:none;stroke-dashoffset:0;stroke-opacity:1;paint-order:stroke fill markers" />
      <g
         transform="matrix(1.0991639,0,0,1.2252942,-7.9017004,-63.676397)"
         id="g2668">
        <path
           style="fill:#ffffff;fill-opacity:1;stroke:none;stroke-width:0.26458332px;stroke-linecap:butt;stroke-linejoin:miter;stroke-opacity:1"
           d="m 26.987451,211.01031 c 0.611201,1.24562 1.375823,2.63895 2.546614,3.80338 0.869388,0.82093 1.268494,1.04965 2.416958,1.63359 1.627819,0.47532 4.013227,0.38943 5.123667,-0.0461 1.059631,-0.4935 2.043747,-0.97432 3.058758,-2.04817 0.987622,-0.94809 1.430254,-2.18392 2.195824,-3.35406 z"
           id="path2057-1"
           inkscape:connector-curvature="0"
           sodipodi:nodetypes="ccccccc" />
        <path
           style="fill:#e9e9e9;fill-opacity:1;stroke:none;stroke-width:0.26458332px;stroke-linecap:butt;stroke-linejoin:miter;stroke-opacity:1"
           d="m 42.329201,210.99903 -1.386996,0.001 c -0.630899,0.9677 -0.99845,1.98868 -1.814878,2.77244 -0.842187,0.891 -1.65862,1.28964 -2.537827,1.69912 -0.921369,0.36132 -2.900768,0.43263 -4.251421,0.0382 -0.952918,-0.48452 -1.284205,-0.67432 -2.005562,-1.35548 -0.968296,-0.96304 -1.601568,-2.11405 -2.107883,-3.14502 l -1.237133,0.001 c 0.6112,1.24562 1.375822,2.63896 2.546614,3.80339 0.869389,0.82093 1.268442,1.04955 2.416908,1.63349 1.627817,0.47532 4.013277,0.38954 5.123717,-0.046 1.05963,-0.4935 2.043716,-0.97409 3.058729,-2.04794 0.987621,-0.94809 1.43016,-2.18418 2.195732,-3.35432 z"
           id="path2057"
           inkscape:connector-curvature="0" />
        <ellipse
           style="fill:#2d2d2d;fill-opacity:1;stroke:none;stroke-width:0.27703443;stroke-linecap:round;stroke-linejoin:round;stroke-miterlimit:4;stroke-dasharray:none;stroke-dashoffset:0;stroke-opacity:1;paint-order:stroke fill markers"
           id="path2059-7"
           ry="0.25081575"
           rx="0.13446997"
           cy="212.30913"
           cx="29.779591" />
        <ellipse
           style="fill:#2d2d2d;fill-opacity:1;stroke:none;stroke-width:0.27703443;stroke-linecap:round;stroke-linejoin:round;stroke-miterlimit:4;stroke-dasharray:none;stroke-dashoffset:0;stroke-opacity:1;paint-order:stroke fill markers"
           id="path2059-5"
           ry="0.25081575"
           rx="0.13446997"
           cy="212.30913"
           cx="30.972279" />
        <ellipse
           style="fill:#2d2d2d;fill-opacity:1;stroke:none;stroke-width:0.27703443;stroke-linecap:round;stroke-linejoin:round;stroke-miterlimit:4;stroke-dasharray:none;stroke-dashoffset:0;stroke-opacity:1;paint-order:stroke fill markers"
           id="path2059-58"
           ry="0.25081575"
           rx="0.13446997"
           cy="212.42606"
           cx="32.141582" />
        <ellipse
           style="fill:#2d2d2d;fill-opacity:1;stroke:none;stroke-width:0.27703443;stroke-linecap:round;stroke-linejoin:round;stroke-miterlimit:4;stroke-dasharray:none;stroke-dashoffset:0;stroke-opacity:1;paint-order:stroke fill markers"
           id="path2059-56"
           ry="0.25081575"
           rx="0.13446997"
           cy="212.40266"
           cx="33.591518" />
        <ellipse
           style="fill:#2d2d2d;fill-opacity:1;stroke:none;stroke-width:0.27703443;stroke-linecap:round;stroke-linejoin:round;stroke-miterlimit:4;stroke-dasharray:none;stroke-dashoffset:0;stroke-opacity:1;paint-order:stroke fill markers"
           id="path2059-55"
           ry="0.25081575"
           rx="0.13446997"
           cy="212.40266"
           cx="35.08823" />
        <ellipse
           style="fill:#2d2d2d;fill-opacity:1;stroke:none;stroke-width:0.27703443;stroke-linecap:round;stroke-linejoin:round;stroke-miterlimit:4;stroke-dasharray:none;stroke-dashoffset:0;stroke-opacity:1;paint-order:stroke fill markers"
           id="path2059-2"
           ry="0.25081575"
           rx="0.13446997"
           cy="212.42606"
           cx="36.725254" />
        <ellipse
           style="fill:#2d2d2d;fill-opacity:1;stroke:none;stroke-width:0.27703443;stroke-linecap:round;stroke-linejoin:round;stroke-miterlimit:4;stroke-dasharray:none;stroke-dashoffset:0;stroke-opacity:1;paint-order:stroke fill markers"
           id="path2059-564"
           ry="0.25081575"
           rx="0.13446997"
           cy="212.49622"
           cx="38.45583" />
        <ellipse
           style="fill:#2d2d2d;fill-opacity:1;stroke:none;stroke-width:0.27703443;stroke-linecap:round;stroke-linejoin:round;stroke-miterlimit:4;stroke-dasharray:none;stroke-dashoffset:0;stroke-opacity:1;paint-order:stroke fill markers"
           id="path2059-9"
           ry="0.25081575"
           rx="0.13446997"
           cy="212.32115"
           cx="39.528263" />
        <ellipse
           style="fill:#2d2d2d;fill-opacity:1;stroke:none;stroke-width:0.27703443;stroke-linecap:round;stroke-linejoin:round;stroke-miterlimit:4;stroke-dasharray:none;stroke-dashoffset:0;stroke-opacity:1;paint-order:stroke fill markers"
           id="path2059-0"
           ry="0.25081575"
           rx="0.13446997"
           cy="213.54858"
           cx="37.824406" />
        <ellipse
           style="fill:#2d2d2d;fill-opacity:1;stroke:none;stroke-width:0.27703443;stroke-linecap:round;stroke-linejoin:round;stroke-miterlimit:4;stroke-dasharray:none;stroke-dashoffset:0;stroke-opacity:1;paint-order:stroke fill markers"
           id="path2059-25"
           ry="0.25081575"
           rx="0.13446997"
           cy="213.43166"
           cx="36.30431" />
        <ellipse
           style="fill:#2d2d2d;fill-opacity:1;stroke:none;stroke-width:0.27703443;stroke-linecap:round;stroke-linejoin:round;stroke-miterlimit:4;stroke-dasharray:none;stroke-dashoffset:0;stroke-opacity:1;paint-order:stroke fill markers"
           id="path2059-4"
           ry="0.25081575"
           rx="0.13446997"
           cy="214.15662"
           cx="35.649494" />
        <ellipse
           style="fill:#2d2d2d;fill-opacity:1;stroke:none;stroke-width:0.27703443;stroke-linecap:round;stroke-linejoin:round;stroke-miterlimit:4;stroke-dasharray:none;stroke-dashoffset:0;stroke-opacity:1;paint-order:stroke fill markers"
           id="path2059-75"
           ry="0.25081575"
           rx="0.13446997"
           cy="213.45503"
           cx="34.760822" />
        <ellipse
           style="fill:#2d2d2d;fill-opacity:1;stroke:none;stroke-width:0.27703443;stroke-linecap:round;stroke-linejoin:round;stroke-miterlimit:4;stroke-dasharray:none;stroke-dashoffset:0;stroke-opacity:1;paint-order:stroke fill markers"
           id="path2059-53"
           ry="0.25081575"
           rx="0.13446997"
           cy="213.54858"
           cx="33.568134" />
        <ellipse
           style="fill:#2d2d2d;fill-opacity:1;stroke:none;stroke-width:0.27703443;stroke-linecap:round;stroke-linejoin:round;stroke-miterlimit:4;stroke-dasharray:none;stroke-dashoffset:0;stroke-opacity:1;paint-order:stroke fill markers"
           id="path2059-8"
           ry="0.25081575"
           rx="0.13446997"
           cy="213.47842"
           cx="32.118198" />
        <ellipse
           style="fill:#2d2d2d;fill-opacity:1;stroke:none;stroke-width:0.27703443;stroke-linecap:round;stroke-linejoin:round;stroke-miterlimit:4;stroke-dasharray:none;stroke-dashoffset:0;stroke-opacity:1;paint-order:stroke fill markers"
           id="path2059-3"
           ry="0.25081575"
           rx="0.13446997"
           cy="213.80583"
           cx="30.99567" />
        <ellipse
           style="fill:#2d2d2d;fill-opacity:1;stroke:none;stroke-width:0.27703443;stroke-linecap:round;stroke-linejoin:round;stroke-miterlimit:4;stroke-dasharray:none;stroke-dashoffset:0;stroke-opacity:1;paint-order:stroke fill markers"
           id="path2059-02"
           ry="0.25081575"
           rx="0.13446997"
           cy="214.50742"
           cx="32.258518" />
        <ellipse
           style="fill:#2d2d2d;fill-opacity:1;stroke:none;stroke-width:0.27703443;stroke-linecap:round;stroke-linejoin:round;stroke-miterlimit:4;stroke-dasharray:none;stroke-dashoffset:0;stroke-opacity:1;paint-order:stroke fill markers"
           id="path2059-6"
           ry="0.25081575"
           rx="0.13446997"
           cy="214.64774"
           cx="33.895542" />
        <ellipse
           style="fill:#2d2d2d;fill-opacity:1;stroke:none;stroke-width:0.27703443;stroke-linecap:round;stroke-linejoin:round;stroke-miterlimit:4;stroke-dasharray:none;stroke-dashoffset:0;stroke-opacity:1;paint-order:stroke fill markers"
           id="path2059-29"
           ry="0.25081575"
           rx="0.13446997"
           cy="214.64774"
           cx="36.584942" />
      </g>
    </g>
    <g
       id="g1358"
       inkscape:export-filename="D:\PG\git-tempworkspace\Game Platform\Assets\Resources\Images\Wolfman\Hunter.png"
       inkscape:export-xdpi="96"
       inkscape:export-ydpi="96">
      <path
         sodipodi:nodetypes="cssssc"
         inkscape:connector-curvature="0"
         id="path867"
         d="m 54.643911,222.18045 c 0.614019,-0.13156 2.012542,-0.2163 2.57611,-0.65315 2.174398,-1.68548 5.136685,-1.6273 6.859638,0.36597 0.646872,0.74836 1.383882,1.31524 2.387195,1.90011 2.160122,1.2592 1.964964,5.00689 0.2055,7.3488 -0.316796,0.42167 -0.160061,1.2639 -0.254487,1.82004"
         style="fill:none;fill-opacity:1;stroke:#ffffff;stroke-width:1.19062495;stroke-linecap:round;stroke-linejoin:round;stroke-miterlimit:4;stroke-dasharray:none;stroke-opacity:1" />
      <path
         sodipodi:nodetypes="cc"
         inkscape:connector-curvature="0"
         id="path869"
         d="m 55.173078,221.84972 11.320669,10.55725"
         style="fill:none;stroke:#ffffff;stroke-width:0.52916664;stroke-linecap:butt;stroke-linejoin:miter;stroke-miterlimit:4;stroke-dasharray:none;stroke-opacity:1" />
      <g
         transform="translate(18.428234,4.3965837)"
         id="g1343">
        <path
           style="fill:#fbffff;fill-opacity:0.97596154;stroke:none;stroke-width:0.26458332;stroke-linecap:butt;stroke-linejoin:miter;stroke-miterlimit:4;stroke-dasharray:none;stroke-opacity:1"
           d="m 47.712348,216.21094 -1.392104,0.57467 0.790672,0.13684 0.234588,0.73132 z"
           id="path885"
           inkscape:connector-curvature="0"
           sodipodi:nodetypes="ccccc" />
        <path
           style="fill:none;stroke:#fffffe;stroke-width:0.52916664;stroke-linecap:round;stroke-linejoin:miter;stroke-miterlimit:4;stroke-dasharray:none;stroke-opacity:1"
           d="m 47.110916,216.92245 -7.19855,8.09832"
           id="path887"
           inkscape:connector-curvature="0"
           sodipodi:nodetypes="cc" />
        <path
           style="fill:none;stroke:#ffffff;stroke-width:0.26458332;stroke-linecap:round;stroke-linejoin:miter;stroke-miterlimit:4;stroke-dasharray:none;stroke-dashoffset:0;stroke-opacity:1"
           d="m 40.196394,223.21196 1.526368,-0.20487"
           id="path889"
           inkscape:connector-curvature="0"
           sodipodi:nodetypes="cc" />
        <path
           style="fill:none;stroke:#ffffff;stroke-width:0.26458332;stroke-linecap:round;stroke-linejoin:miter;stroke-miterlimit:4;stroke-dasharray:none;stroke-dashoffset:0;stroke-opacity:1"
           d="m 41.722762,223.00709 0.0686,1.53197"
           id="path889-9-4-1-1-9"
           inkscape:connector-curvature="0"
           sodipodi:nodetypes="cc" />
        <path
           style="fill:none;stroke:#ffffff;stroke-width:0.26458332;stroke-linecap:round;stroke-linejoin:miter;stroke-miterlimit:4;stroke-dasharray:none;stroke-dashoffset:0;stroke-opacity:1"
           d="m 41.276278,223.42877 0.0686,1.53197"
           id="path889-9-4-1-1-9-0"
           inkscape:connector-curvature="0"
           sodipodi:nodetypes="cc" />
        <path
           style="fill:none;stroke:#ffffff;stroke-width:0.26458332;stroke-linecap:round;stroke-linejoin:miter;stroke-miterlimit:4;stroke-dasharray:none;stroke-dashoffset:0;stroke-opacity:1"
           d="m 40.876898,223.82085 0.0686,1.53197"
           id="path889-9-4-1-1-9-0-7"
           inkscape:connector-curvature="0"
           sodipodi:nodetypes="cc" />
        <path
           style="fill:none;stroke:#ffffff;stroke-width:0.26458332;stroke-linecap:round;stroke-linejoin:miter;stroke-miterlimit:4;stroke-dasharray:none;stroke-dashoffset:0;stroke-opacity:1"
           d="m 40.438681,224.2508 0.0686,1.53197"
           id="path889-9-4-1-1-9-0-7-0"
           inkscape:connector-curvature="0"
           sodipodi:nodetypes="cc" />
        <path
           style="fill:none;stroke:#ffffff;stroke-width:0.26458332;stroke-linecap:round;stroke-linejoin:miter;stroke-miterlimit:4;stroke-dasharray:none;stroke-dashoffset:0;stroke-opacity:1"
           d="m 39.708569,223.70805 1.526368,-0.20487"
           id="path889-7"
           inkscape:connector-curvature="0"
           sodipodi:nodetypes="cc" />
        <path
           style="fill:none;stroke:#ffffff;stroke-width:0.26458332;stroke-linecap:round;stroke-linejoin:miter;stroke-miterlimit:4;stroke-dasharray:none;stroke-dashoffset:0;stroke-opacity:1"
           d="m 39.312922,224.22626 1.526368,-0.20487"
           id="path889-7-3"
           inkscape:connector-curvature="0"
           sodipodi:nodetypes="cc" />
        <path
           style="fill:none;stroke:#ffffff;stroke-width:0.26458332;stroke-linecap:round;stroke-linejoin:miter;stroke-miterlimit:4;stroke-dasharray:none;stroke-dashoffset:0;stroke-opacity:1"
           d="m 38.907779,224.7058 1.526368,-0.20487"
           id="path889-7-3-5"
           inkscape:connector-curvature="0"
           sodipodi:nodetypes="cc" />
      </g>
    </g>
  </g>
</svg>
