<?xml version="1.0" encoding="UTF-8" standalone="no"?>
<!-- Created with Inkscape (http://www.inkscape.org/) -->

<svg
   xmlns:dc="http://purl.org/dc/elements/1.1/"
   xmlns:cc="http://creativecommons.org/ns#"
   xmlns:rdf="http://www.w3.org/1999/02/22-rdf-syntax-ns#"
   xmlns:svg="http://www.w3.org/2000/svg"
   xmlns="http://www.w3.org/2000/svg"
   xmlns:sodipodi="http://sodipodi.sourceforge.net/DTD/sodipodi-0.dtd"
   xmlns:inkscape="http://www.inkscape.org/namespaces/inkscape"
   width="128"
   height="128"
   viewBox="0 0 33.866666 33.866668"
   version="1.1"
   id="svg8"
   inkscape:version="0.92.4 (5da689c313, 2019-01-14)"
   sodipodi:docname="check.svg"
   inkscape:export-filename="D:\PG\git-tempworkspace\素材\check.png"
   inkscape:export-xdpi="96"
   inkscape:export-ydpi="96">
  <defs
     id="defs2" />
  <sodipodi:namedview
     id="base"
     pagecolor="#ffffff"
     bordercolor="#666666"
     borderopacity="1.0"
     inkscape:pageopacity="0.0"
     inkscape:pageshadow="2"
     inkscape:zoom="2"
     inkscape:cx="-201.59144"
     inkscape:cy="62.361279"
     inkscape:document-units="px"
     inkscape:current-layer="layer1"
     showgrid="false"
     units="px"
     inkscape:window-width="1920"
     inkscape:window-height="1001"
     inkscape:window-x="-9"
     inkscape:window-y="-9"
     inkscape:window-maximized="1" />
  <metadata
     id="metadata5">
    <rdf:RDF>
      <cc:Work
         rdf:about="">
        <dc:format>image/svg+xml</dc:format>
        <dc:type
           rdf:resource="http://purl.org/dc/dcmitype/StillImage" />
        <dc:title />
      </cc:Work>
    </rdf:RDF>
  </metadata>
  <g
     inkscape:label="Layer 1"
     inkscape:groupmode="layer"
     id="layer1"
     transform="translate(0,-263.13332)">
    <path
       style="fill:none;stroke:#ffffff;stroke-width:2.64583325;stroke-linecap:round;stroke-linejoin:round;stroke-miterlimit:4;stroke-dasharray:none;stroke-opacity:1"
       d="m 5.1593751,283.24165 c 0.1322917,0.26459 0.2645834,0.52917 0.396875,0.79375 0.044097,0 0.1011103,-0.0312 0.1322917,0 0.031181,0.0312 -0.031181,0.10111 0,0.1323 0.031181,0.0312 0.1011103,-0.0312 0.1322917,0 0.069724,0.0697 0.062568,0.19486 0.1322916,0.26458 0.031181,0.0312 0.1011103,-0.0312 0.1322917,0 0.031181,0.0312 -0.031181,0.10111 0,0.13229 0.031181,0.0312 0.1011103,-0.0312 0.1322917,0 0.031181,0.0312 -0.019722,0.0928 0,0.13229 0.01266,0.0253 0.5038434,0.51651 0.5291667,0.52917 0.039442,0.0197 0.1011102,-0.0312 0.1322916,0 0.031181,0.0312 -0.031181,0.10111 0,0.13229 0.069724,0.0697 0.1825395,0.0776 0.2645834,0.13229 0.051889,0.0346 0.076513,0.1044 0.1322916,0.13229 0.039442,0.0197 0.1011103,-0.0312 0.1322917,0 0.031181,0.0312 -0.031181,0.10111 0,0.1323 0.031181,0.0312 0.09285,-0.0197 0.1322917,0 0.055779,0.0279 0.088194,0.0882 0.1322917,0.13229 0.044097,0.0441 0.1044022,0.0765 0.1322916,0.13229 0.019722,0.0394 -0.031181,0.10111 0,0.13229 0.031181,0.0312 0.09285,-0.0197 0.1322917,0 0.055779,0.0279 0.076513,0.1044 0.1322917,0.13229 0.039442,0.0197 0.1011102,-0.0312 0.1322916,0 0.031181,0.0312 -0.031181,0.10111 0,0.13229 0.031181,0.0312 0.1011103,-0.0312 0.1322917,0 0.031181,0.0312 0,0.0882 0,0.1323 0.044097,0 0.094479,-0.0227 0.1322917,0 0.176389,0.13229 0.3527777,0.26458 0.5291666,0.39687 0,0.0441 -0.031181,0.10111 0,0.13229 0.031181,0.0312 0.09285,-0.0197 0.1322918,0 0.111558,0.0558 0.153025,0.20881 0.264583,0.26459 0.03944,0.0197 0.09285,-0.0197 0.132292,0 0.111558,0.0558 0.153025,0.2088 0.264583,0.26458 0.03944,0.0197 0.101111,-0.0312 0.132292,0 0.03118,0.0312 -0.03118,0.10111 0,0.13229 0.03118,0.0312 0.09285,-0.0197 0.1322917,0 0.05578,0.0279 0.0804,0.0977 0.132291,0.13229 0.08204,0.0547 0.18254,0.0776 0.264584,0.13229 0.05189,0.0346 0.0804,0.0977 0.132291,0.1323 0.08204,0.0547 0.1857,0.0731 0.264584,0.13229 0.09978,0.0748 0.176389,0.17639 0.264583,0.26458 0.0441,0.0441 0.07651,0.1044 0.132292,0.13229 0.03944,0.0197 0.10111,-0.0312 0.132291,0 0.03118,0.0312 -0.03118,0.10111 0,0.13229 0.03118,0.0312 0.0882,0 0.132292,0 0,0.0441 -0.03118,0.10111 0,0.1323 0.03118,0.0312 0.0956,-0.0245 0.132292,0 0.08819,0.0882 0.176389,0.17638 0.264583,0.26458 0.0441,0 0.09285,-0.0197 0.132292,0 0.15875,0.0794 0.238125,0.3175 0.396875,0.39687 0.03944,0.0197 0.09285,-0.0197 0.132291,0 0.05578,0.0279 0.07651,0.10441 0.132292,0.1323 0.03944,0.0197 0.10111,-0.0312 0.132292,0 0.03118,0.0312 -0.03118,0.10111 0,0.13229 0.03118,0.0312 0.09285,-0.0197 0.132291,0 0.111558,0.0558 0.153026,0.2088 0.264584,0.26458 0.03944,0.0197 0.10111,-0.0312 0.132291,0 0.03118,0.0312 -0.03118,0.10111 0,0.13229 0.06236,0.0624 0.202221,-0.0624 0.264584,0 0,0.35278 -0.0441,-0.0441 0.132291,0.13229 0.03118,0.0312 -0.03118,0.10111 0,0.1323 0.0882,0.0882 0.176389,-0.0882 0.264584,0 0.03118,0.0312 -0.03118,0.10111 0,0.13229 0.03118,0.0312 0.10111,-0.0312 0.132291,0 0.03118,0.0312 -0.03118,0.10111 0,0.13229 0.06236,0.0624 0.202221,-0.0624 0.264584,0 0.03118,0.0312 -0.03118,0.10111 0,0.13229 0.03118,0.0312 0.10111,-0.0312 0.132291,0 0.03118,0.0312 -0.03118,0.10111 0,0.13229 0.06236,0.0624 0.1857,-0.0394 0.264584,0 0.05578,0.0279 0.07651,0.1044 0.132291,0.13229 0.03944,0.0197 0.101111,-0.0312 0.132292,0 0.03118,0.0312 -0.03118,0.10111 0,0.1323 0.03183,0.0318 0.497333,-0.0318 0.529167,0 0.176389,0.17639 -0.220486,0.13229 0.132291,0.13229 0.0441,0 0.0882,0 0.132292,0 0.0441,0 0.10111,0.0312 0.132292,0 0.03118,-0.0312 -0.03118,-0.10111 0,-0.13229 0.03118,-0.0312 0.09285,0.0197 0.132291,0 0.292505,-0.14626 0.04105,-0.0821 0.132292,-0.26459 0.02789,-0.0558 0.104402,-0.0765 0.132292,-0.13229 0.03944,-0.0789 -0.06236,-0.20222 0,-0.26458 0.03118,-0.0312 0.10111,0.0312 0.132291,0 0.03118,-0.0312 -0.01395,-0.0905 0,-0.13229 0.03118,-0.0935 0.0776,-0.18254 0.132292,-0.26459 0.03459,-0.0519 0.0977,-0.0804 0.132292,-0.13229 0.0547,-0.082 0.07759,-0.18254 0.132291,-0.26458 0.03459,-0.0519 0.104403,-0.0765 0.132292,-0.13229 0.01972,-0.0394 -0.01972,-0.0928 0,-0.1323 0.0711,-0.14221 0.193479,-0.25466 0.264583,-0.39687 0.01972,-0.0394 -0.01972,-0.0928 0,-0.13229 0.02789,-0.0558 0.08819,-0.0882 0.132292,-0.13229 0.08819,-0.1323 0.193479,-0.25467 0.264583,-0.39688 0.01972,-0.0394 -0.01972,-0.0928 0,-0.13229 0.05578,-0.11156 0.208805,-0.15303 0.264584,-0.26458 0.03944,-0.0789 -0.03944,-0.1857 0,-0.26459 0.05578,-0.11156 0.208804,-0.15302 0.264583,-0.26458 0.01972,-0.0394 -0.01972,-0.0928 0,-0.13229 0.02789,-0.0558 0.104402,-0.0765 0.132292,-0.13229 0.01972,-0.0394 -0.01972,-0.0928 0,-0.1323 0.02789,-0.0558 0.104402,-0.0765 0.132291,-0.13229 0.01972,-0.0394 -0.01972,-0.0928 0,-0.13229 0.275284,-0.55057 -0.0091,0.14143 0.264584,-0.13229 0.03118,-0.0312 -0.01395,-0.0905 0,-0.13229 0.03118,-0.0935 0.08819,-0.17639 0.132291,-0.26459 0.0441,-0.0882 0.0776,-0.18254 0.132292,-0.26458 -0.0132,-0.26208 0.19486,-0.0626 0.264584,-0.13229 0.03118,-0.0312 -0.01972,-0.0928 0,-0.13229 0.438756,-0.43876 -0.06236,0.12472 0.132291,-0.26459 0.02789,-0.0558 0.104402,-0.0765 0.132292,-0.13229 0.01972,-0.0394 -0.01972,-0.0928 0,-0.13229 0.05578,-0.11156 0.208804,-0.15302 0.264583,-0.26458 0.01972,-0.0394 -0.01972,-0.0928 0,-0.13229 0.141111,-0.28223 0.123473,0.0176 0.264584,-0.26459 0.01972,-0.0394 -0.01972,-0.0928 0,-0.13229 0.05578,-0.11156 0.189747,-0.1648 0.264583,-0.26458 0.08819,-0.13229 0.176389,-0.26459 0.264583,-0.39688 0,-0.0441 -0.01972,-0.0928 0,-0.13229 0.05578,-0.11156 0.208805,-0.15302 0.264584,-0.26458 0.06236,-0.12473 0.06993,-0.27215 0.132291,-0.39688 0.02789,-0.0558 0.104402,-0.0765 0.132292,-0.13229 0.01972,-0.0394 -0.03118,-0.10111 0,-0.13229 0.03118,-0.0312 0.10111,0.0312 0.132292,0 0.03118,-0.0312 -0.01972,-0.0928 0,-0.13229 0.438756,-0.43876 -0.06236,0.12472 0.132291,-0.26459 0.02789,-0.0558 0.0977,-0.0804 0.132292,-0.13229 0.0547,-0.082 0.0776,-0.18254 0.132292,-0.26458 0.03459,-0.0519 0.0977,-0.0804 0.132291,-0.13229 0.109392,-0.16409 0.155192,-0.36508 0.264584,-0.52917 0.03459,-0.0519 0.104402,-0.0765 0.132291,-0.13229 0.01972,-0.0394 -0.01972,-0.0928 0,-0.13229 0.02789,-0.0558 0.104402,-0.0765 0.132292,-0.13229 0.01972,-0.0394 -0.01972,-0.0928 0,-0.1323 0.05578,-0.11155 0.208804,-0.15302 0.264583,-0.26458 0.01972,-0.0394 -0.01972,-0.0928 0,-0.13229 0.02789,-0.0558 0.104402,-0.0765 0.132292,-0.13229 0.01972,-0.0394 -0.01972,-0.0928 0,-0.13229 0.02789,-0.0558 0.104402,-0.0765 0.132292,-0.1323 0.01972,-0.0394 -0.01972,-0.0928 0,-0.13229 0.02789,-0.0558 0.104402,-0.0765 0.132291,-0.13229 0.01972,-0.0394 -0.01972,-0.0928 0,-0.13229 0.02789,-0.0558 0.104402,-0.0765 0.132292,-0.13229 0.01972,-0.0394 -0.01972,-0.0928 0,-0.13229 0.02789,-0.0558 0.104402,-0.0765 0.132292,-0.1323 0.01972,-0.0394 -0.01972,-0.0928 0,-0.13229 0.02789,-0.0558 0.0977,-0.0804 0.132291,-0.13229 0.231186,-0.34678 0.04945,-0.23119 0.264584,-0.66146 0.02789,-0.0558 0.11257,-0.0731 0.132291,-0.13229 0.02789,-0.0837 -0.02789,-0.18091 0,-0.26458 0.03944,-0.11833 0.208805,-0.15303 0.264584,-0.26459 0.01972,-0.0394 -0.01972,-0.0928 0,-0.13229 0.02789,-0.0558 0.104402,-0.0765 0.132291,-0.13229 0.07056,-0.14111 -0.07055,-0.12347 0,-0.26458 0.302724,-0.60545 -0.05483,0.56137 0.264584,-0.39688 0.01395,-0.0418 -0.01972,-0.0928 0,-0.13229 0.05578,-0.11156 0.208804,-0.15302 0.264583,-0.26458 0.01972,-0.0394 -0.01638,-0.0913 0,-0.13229 0.08819,-0.17639 0.176389,-0.35278 0.264583,-0.52917 0.0441,-0.0441 0.100206,-0.0788 0.132292,-0.13229 0.08819,-0.17639 0.176389,-0.35278 0.264583,-0.52917 0,-0.0441 -0.01972,-0.0928 0,-0.13229 0.02789,-0.0558 0.104403,-0.0765 0.132292,-0.13229 0.01971,-0.0394 -0.01972,-0.0928 0,-0.13229 0.05578,-0.11156 0.208804,-0.15303 0.264583,-0.26459 0.01971,-0.0394 -0.01971,-0.0928 0,-0.13229 0.05578,-0.11156 0.208804,-0.15302 0.264584,-0.26458 0.03944,-0.0789 -0.06236,-0.20222 0,-0.26459 0.03118,-0.0312 0.10111,0.0312 0.132291,0 0.03118,-0.0312 -0.01971,-0.0928 0,-0.13229 0.02789,-0.0558 0.104402,-0.0765 0.132292,-0.13229 0.01971,-0.0394 -0.01971,-0.0928 0,-0.13229 0.07937,-0.15875 0.3175,-0.23813 0.396875,-0.39688 0.01971,-0.0394 -0.01971,-0.0928 0,-0.13229 0.02789,-0.0558 0.0977,-0.0804 0.132292,-0.13229 0.05469,-0.082 0.0776,-0.18254 0.132291,-0.26458 0.03459,-0.0519 0.0977,-0.0804 0.132292,-0.13229 0.0547,-0.0821 0.0776,-0.18254 0.132292,-0.26459 0.03459,-0.0519 0.0977,-0.0804 0.132291,-0.13229 0.05469,-0.082 0.0776,-0.18254 0.132292,-0.26458 0.03459,-0.0519 0.104402,-0.0765 0.132292,-0.13229 0.01971,-0.0394 -0.03118,-0.10112 0,-0.1323 0.273716,-0.27371 -0.01069,0.41828 0.264583,-0.13229 0.03944,-0.0789 -0.06236,-0.20222 0,-0.26458 0.03118,-0.0312 0.101111,0.0312 0.132292,0 0.03118,-0.0312 -0.03118,-0.10111 0,-0.13229 0.03118,-0.0312 0.10111,0.0312 0.132291,0 0.03118,-0.0312 -0.03118,-0.10111 0,-0.13229 0.03118,-0.0312 0.101111,0.0312 0.132292,0 0.03118,-0.0312 -0.01971,-0.0928 0,-0.1323 0.02789,-0.0558 0.104402,-0.0765 0.132292,-0.13229 0.01971,-0.0394 -0.03118,-0.10111 0,-0.13229 0.03118,-0.0312 0.10111,0.0312 0.132291,0 0.03118,-0.0312 -0.03118,-0.10111 0,-0.13229 0.03118,-0.0312 0.101111,0.0312 0.132292,0 0.08819,-0.0882 -0.08819,-0.17639 0,-0.26458 0.03118,-0.0312 0.09285,0.0197 0.132292,0 0.550566,-0.27529 -0.141425,0.009 0.132291,-0.26459 0.03118,-0.0312 0.101111,0.0312 0.132292,0 0.273717,-0.27371 -0.418274,0.0107 0.132292,-0.26458 0.03944,-0.0197 0.10111,0.0312 0.132291,0 0.06236,-0.0624 -0.06236,-0.20222 0,-0.26458 0.03118,-0.0312 0.101111,0.0312 0.132292,0 0.03118,-0.0312 -0.01971,-0.0928 0,-0.1323 0.02789,-0.0558 0.104402,-0.0765 0.132292,-0.13229 0.01971,-0.0394 -0.03118,-0.10111 0,-0.13229 0.03118,-0.0312 0.10111,0.0312 0.132291,0 0.03118,-0.0312 -0.03118,-0.10111 0,-0.13229 0.03118,-0.0312 0.101111,0.0312 0.132292,0 0.130503,-0.1305 -0.271076,-0.26458 0.132292,-0.26458"
       id="path850"
       inkscape:connector-curvature="0" />
  </g>
</svg>
