<?xml version="1.0" encoding="UTF-8" standalone="no"?>
<!-- Created with Inkscape (http://www.inkscape.org/) -->

<svg
   xmlns:dc="http://purl.org/dc/elements/1.1/"
   xmlns:cc="http://creativecommons.org/ns#"
   xmlns:rdf="http://www.w3.org/1999/02/22-rdf-syntax-ns#"
   xmlns:svg="http://www.w3.org/2000/svg"
   xmlns="http://www.w3.org/2000/svg"
   xmlns:sodipodi="http://sodipodi.sourceforge.net/DTD/sodipodi-0.dtd"
   xmlns:inkscape="http://www.inkscape.org/namespaces/inkscape"
   width="128"
   height="128"
   viewBox="0 0 33.866666 33.866668"
   version="1.1"
   id="svg8"
   inkscape:version="0.92.4 (5da689c313, 2019-01-14)"
   sodipodi:docname="close.svg"
   inkscape:export-filename="D:\PG\git-tempworkspace\素材\close.png"
   inkscape:export-xdpi="96"
   inkscape:export-ydpi="96">
  <defs
     id="defs2" />
  <sodipodi:namedview
     id="base"
     pagecolor="#ffffff"
     bordercolor="#666666"
     borderopacity="1.0"
     inkscape:pageopacity="0.0"
     inkscape:pageshadow="2"
     inkscape:zoom="2.8284271"
     inkscape:cx="53.167073"
     inkscape:cy="52.215821"
     inkscape:document-units="px"
     inkscape:current-layer="layer1"
     showgrid="false"
     units="px"
     inkscape:window-width="1920"
     inkscape:window-height="1001"
     inkscape:window-x="-9"
     inkscape:window-y="-9"
     inkscape:window-maximized="1" />
  <metadata
     id="metadata5">
    <rdf:RDF>
      <cc:Work
         rdf:about="">
        <dc:format>image/svg+xml</dc:format>
        <dc:type
           rdf:resource="http://purl.org/dc/dcmitype/StillImage" />
        <dc:title />
      </cc:Work>
    </rdf:RDF>
  </metadata>
  <g
     inkscape:label="Layer 1"
     inkscape:groupmode="layer"
     id="layer1"
     transform="translate(0,-263.13332)">
    <path
       style="fill:none;stroke:#fffff9;stroke-width:3.17500003;stroke-linecap:round;stroke-linejoin:round;stroke-opacity:1;stroke-miterlimit:4;stroke-dasharray:0.79375001, 0.79375001000000001;stroke-dashoffset:0;paint-order:stroke fill markers"
       d="m 28.811657,268.56251 c -0.932309,0 -0.104246,-0.0882 -0.467722,0.0935 -0.03709,0.0186 -0.261509,-0.0191 -0.280633,0 -0.02204,0.022 0.02204,0.0715 0,0.0935 -0.0441,0.0441 -0.13131,-0.0279 -0.18709,0 -0.03944,0.0197 -0.0541,0.0738 -0.09354,0.0935 -0.02789,0.014 -0.06566,-0.0139 -0.09355,0 -0.03944,0.0197 -0.0541,0.0738 -0.09354,0.0935 -0.05075,0.0254 -0.34858,-0.0256 -0.374176,0 -0.02204,0.022 0.02204,0.0715 0,0.0935 -0.0441,0.0441 -0.13131,-0.0279 -0.18709,0 -0.03944,0.0197 -0.0541,0.0738 -0.09354,0.0935 -0.297368,0.14869 0.110276,-0.14868 -0.18709,0 -0.03944,0.0197 -0.05171,0.0796 -0.09354,0.0935 -0.05916,0.0197 -0.13131,-0.0279 -0.18709,0 -0.02789,0.0139 0.02204,0.0715 0,0.0935 -0.02868,0.0287 -0.438812,-0.0289 -0.467721,0 -0.02205,0.0221 0.02205,0.0715 0,0.0935 -0.01912,0.0191 -0.243544,-0.0186 -0.280633,0 -0.03944,0.0197 -0.0541,0.0738 -0.09354,0.0935 -0.05075,0.0254 -0.348582,-0.0256 -0.374178,0 -0.02205,0.022 0.02205,0.0715 0,0.0935 -0.04677,0.0468 -0.233861,-0.0468 -0.280633,0 -0.02205,0.022 0.02205,0.0715 0,0.0935 -0.01912,0.0191 -0.243543,-0.0185 -0.280633,0 -0.03944,0.0197 -0.0541,0.0738 -0.09354,0.0935 -0.03709,0.0185 -0.261509,-0.0191 -0.280633,0 -0.02205,0.022 0.02205,0.0715 0,0.0935 -0.04677,0.0468 -0.233861,-0.0468 -0.280633,0 -0.02205,0.022 0.02205,0.0715 0,0.0935 -0.0441,0.0441 -0.142992,-0.0441 -0.187089,0 -0.02205,0.0221 0.02205,0.0715 0,0.0935 -0.01912,0.0191 -0.243543,-0.0186 -0.280633,0 -0.03944,0.0197 -0.06236,0.0624 -0.09354,0.0935 -0.155907,0.0624 -0.308422,0.13399 -0.467722,0.18709 -0.0364,0.0121 -0.266116,-0.0145 -0.280633,0 -0.02205,0.022 0.02205,0.0715 0,0.0935 -0.02205,0.022 -0.0715,-0.022 -0.09354,0 -0.02205,0.022 0.02205,0.0715 0,0.0935 -0.01912,0.0191 -0.243544,-0.0185 -0.280633,0 -0.03944,0.0197 -0.0541,0.0738 -0.09354,0.0935 -0.02789,0.014 -0.06565,-0.0139 -0.09354,0 -0.03944,0.0197 -0.0541,0.0738 -0.09354,0.0935 -0.05578,0.0279 -0.142992,-0.0441 -0.187089,0 -0.02205,0.0221 0.02205,0.0715 0,0.0935 -0.247805,0.24781 0.06072,-0.2478 -0.187089,0 -0.02205,0.022 0.02205,0.0715 0,0.0935 -0.0441,0.0441 -0.131309,-0.0279 -0.187088,0 -0.03944,0.0197 -0.0541,0.0738 -0.09355,0.0935 -0.02789,0.0139 -0.07149,-0.0221 -0.09354,0 -0.02205,0.022 0.02205,0.0715 0,0.0935 -0.0441,0.0441 -0.142991,-0.0441 -0.187089,0 -0.02205,0.022 0.02205,0.0715 0,0.0935 -0.02205,0.022 -0.06565,-0.0139 -0.09354,0 -0.03944,0.0197 -0.0541,0.0738 -0.09354,0.0935 -0.05578,0.0279 -0.142992,-0.0441 -0.187089,0 -0.02205,0.0221 0.02205,0.0715 0,0.0935 -0.02205,0.0221 -0.0715,-0.022 -0.09354,0 -0.02205,0.0221 0.02205,0.0715 0,0.0935 -0.0441,0.0441 -0.142992,-0.0441 -0.187089,0 -0.02205,0.022 0.02205,0.0715 0,0.0935 -0.0441,0.0441 -0.142992,-0.0441 -0.187089,0 -0.02205,0.0221 0.02205,0.0715 0,0.0935 -0.0441,0.0441 -0.142991,-0.0441 -0.187088,0 -0.02205,0.022 0.02205,0.0715 0,0.0935 -0.02205,0.022 -0.06565,-0.014 -0.09354,0 -0.03944,0.0197 -0.0541,0.0738 -0.09354,0.0935 -0.02789,0.0139 -0.0715,-0.0221 -0.09354,0 -0.02205,0.022 0.02205,0.0715 0,0.0935 -0.02205,0.0221 -0.06565,-0.0139 -0.09354,0 -0.03944,0.0197 -0.0541,0.0738 -0.09354,0.0935 -0.02789,0.0139 -0.0715,-0.022 -0.09354,0 -0.02205,0.0221 0.02205,0.0715 0,0.0935 -0.02205,0.022 -0.0715,-0.022 -0.09354,0 -0.02205,0.022 0.02205,0.0715 0,0.0935 -0.02205,0.0221 -0.0715,-0.022 -0.09354,0 -0.02205,0.0221 0.02205,0.0715 0,0.0935 -0.0441,0.0441 -0.142992,-0.0441 -0.187089,0 -0.02205,0.022 0.02205,0.0715 0,0.0935 -0.02205,0.022 -0.07149,-0.022 -0.09354,0 -0.02205,0.022 0.02205,0.0715 0,0.0935 -0.02205,0.022 -0.0715,-0.0221 -0.09354,0 -0.02205,0.022 0.02205,0.0715 0,0.0935 -0.0441,0.0441 -0.142992,-0.0441 -0.187089,0 -0.02205,0.022 0.01394,0.0657 0,0.0935 -0.194655,0.38931 0.0065,-0.1 -0.187089,0.0935 -0.02205,0.0221 0.02205,0.0715 0,0.0935 -0.02205,0.0221 -0.0715,-0.022 -0.09354,0 -0.02205,0.0221 0.02205,0.0715 0,0.0935 -0.02205,0.022 -0.0715,-0.022 -0.09354,0 -0.02205,0.022 0.02205,0.0715 0,0.0935 -0.02205,0.022 -0.0715,-0.022 -0.09355,0 -0.02205,0.022 0.02205,0.0715 0,0.0935 -0.02205,0.022 -0.0715,-0.0221 -0.09354,0 -0.02205,0.022 0.02205,0.0715 0,0.0935 -0.02205,0.022 -0.0715,-0.0221 -0.09354,0 -0.02205,0.022 0.02205,0.0715 0,0.0935 -0.02205,0.022 -0.06565,-0.0139 -0.09354,0 -0.03944,0.0197 -0.0541,0.0738 -0.09354,0.0935 -0.02789,0.014 -0.0715,-0.022 -0.09354,0 -0.02205,0.0221 0.02205,0.0715 0,0.0935 -0.249451,0 0.03118,-0.0312 -0.09354,0.0935 -0.02205,0.022 -0.06565,-0.0139 -0.09354,0 -0.03944,0.0197 -0.0541,0.0738 -0.09355,0.0935 -0.02789,0.0139 -0.07149,-0.022 -0.09354,0 -0.02205,0.022 0.02205,0.0715 0,0.0935 -0.02205,0.022 -0.0676,-0.0173 -0.09354,0 -0.07338,0.0489 -0.124726,0.12473 -0.187089,0.18709 -0.03118,0.0312 -0.0541,0.0738 -0.09354,0.0935 -0.02789,0.014 -0.0715,-0.022 -0.09354,0 -0.02205,0.0221 0.01394,0.0657 0,0.0935 -0.01972,0.0394 -0.06236,0.0624 -0.09354,0.0935 -0.03118,0.0312 -0.0541,0.0738 -0.09354,0.0935 -0.02789,0.0139 -0.0715,-0.022 -0.09354,0 -0.02205,0.0221 0.02205,0.0715 0,0.0935 -0.02205,0.022 -0.07149,-0.0221 -0.09354,0 -0.02205,0.022 0,0.0624 0,0.0935 -0.03118,0 -0.06565,-0.014 -0.09354,0 -0.389309,0.19465 0.100002,-0.006 -0.09355,0.18709 -0.0441,0.0441 -0.142991,-0.0441 -0.187088,0 -0.02205,0.022 0.01394,0.0657 0,0.0935 -0.194655,0.38931 0.0065,-0.1 -0.187089,0.0935 -0.02205,0.022 0.02205,0.0715 0,0.0935 -0.02205,0.0221 -0.0715,-0.022 -0.09354,0 -0.02205,0.0221 0.02205,0.0715 0,0.0935 -0.02205,0.022 -0.0715,-0.0221 -0.09354,0 -0.02205,0.022 0.02205,0.0715 0,0.0935 -0.02205,0.022 -0.0715,-0.022 -0.09354,0 -0.02205,0.022 0.02205,0.0715 0,0.0935 -0.02205,0.022 -0.0715,-0.0221 -0.09354,0 -0.187685,0.18769 0.187685,-6.1e-4 0,0.18709 -0.02205,0.0221 -0.0715,-0.022 -0.09354,0 -0.02205,0.0221 0.02205,0.0715 0,0.0935 -0.02205,0.022 -0.0715,-0.022 -0.09354,0 -0.02205,0.022 0.02205,0.0715 0,0.0935 -0.02205,0.0221 -0.0715,-0.022 -0.09354,0 -0.02205,0.0221 0.01395,0.0657 0,0.0935 -0.01972,0.0394 -0.07382,0.0541 -0.09354,0.0935 -0.01394,0.0279 0.02205,0.0715 0,0.0935 -0.02205,0.022 -0.0715,-0.0221 -0.09355,0 -0.02205,0.022 0.02205,0.0715 0,0.0935 -0.02205,0.022 -0.0715,-0.0221 -0.09354,0 -0.02205,0.022 0.02205,0.0715 0,0.0935 -0.02205,0.0221 -0.0715,-0.022 -0.09354,0 -0.02205,0.0221 0.02205,0.0715 0,0.0935 -0.02205,0.0221 -0.0715,-0.022 -0.09354,0 -0.193547,0.19355 0.295765,-0.008 -0.09354,0.18709 -0.02789,0.014 -0.0715,-0.022 -0.09355,0 -0.193546,0.19355 0.295765,-0.008 -0.09354,0.18709 -0.02789,0.0139 -0.0715,-0.0221 -0.09354,0 -0.0441,0.0441 0.0441,0.14299 0,0.18709 -0.02205,0.022 -0.0715,-0.0221 -0.09355,0 -0.02205,0.022 0.02205,0.0715 0,0.0935 -0.02205,0.0221 -0.0796,-0.0279 -0.09354,0 -0.02789,0.0558 0.02789,0.13131 0,0.18709 -0.01395,0.0279 -0.0715,-0.022 -0.09354,0 0,0.24946 0.03118,-0.0312 -0.09355,0.0935 -0.124509,0.12451 0.12451,0.0626 0,0.18709 -0.02205,0.022 -0.07149,-0.022 -0.09354,0 -0.02205,0.022 0,0.0624 0,0.0935 -0.03118,0 -0.0715,-0.0221 -0.09354,0 -0.02205,0.022 0.02205,0.0715 0,0.0935 -0.02205,0.022 -0.0715,-0.0221 -0.09355,0 -0.02205,0.022 0.01394,0.0657 0,0.0935 -0.01972,0.0394 -0.07382,0.0541 -0.09354,0.0935 -0.01394,0.0279 0.01395,0.0657 0,0.0935 -0.03944,0.0789 -0.147647,0.1082 -0.187089,0.18709 -0.02789,0.0558 0.0441,0.14299 0,0.18709 -0.193546,0.19354 0.0076,-0.29577 -0.187088,0.0935 -0.02789,0.0558 0.0441,0.14299 0,0.18709 -0.02205,0.0221 -0.0715,-0.022 -0.09355,0 -0.02205,0.0221 0.01395,0.0657 0,0.0935 -0.01972,0.0394 -0.07382,0.0541 -0.09354,0.0935 -0.01395,0.0279 0.01394,0.0657 0,0.0935 -0.01972,0.0394 -0.07086,0.0557 -0.09354,0.0935 -0.07175,0.11957 -0.115344,0.2546 -0.187089,0.37417 -0.02269,0.0378 -0.07382,0.0541 -0.09354,0.0935 -0.01394,0.0279 0.02205,0.0715 0,0.0935 -0.02205,0.022 -0.0715,-0.0221 -0.09355,0 -0.02205,0.022 0.01394,0.0657 0,0.0935 -0.01972,0.0394 -0.07382,0.0541 -0.09354,0.0935 -0.01394,0.0279 0.01394,0.0657 0,0.0935 -0.01972,0.0394 -0.07382,0.0541 -0.09354,0.0935 -0.01394,0.0279 0,0.0624 0,0.0935 -0.03118,0.0312 -0.06908,0.0569 -0.09355,0.0935 -0.01161,0.0174 -0.181094,0.36818 -0.187088,0.37418 -0.02205,0.022 -0.0715,-0.0221 -0.09355,0 -0.02205,0.022 0.01394,0.0657 0,0.0935 -0.01972,0.0394 -0.07382,0.0541 -0.09354,0.0935 -0.01394,0.0279 0.02205,0.0715 0,0.0935 -0.02205,0.022 -0.0715,-0.022 -0.09354,0 -0.02205,0.022 0.01394,0.0657 0,0.0935 -0.03944,0.0789 -0.138168,0.11371 -0.187089,0.18709 -0.03868,0.058 -0.05487,0.12908 -0.09354,0.18709 -0.119624,0.17943 -0.06747,0.008 -0.187089,0.18709 -0.03868,0.058 -0.0715,0.12094 -0.09355,0.18709 -0.01972,0.0592 0.0441,0.14299 0,0.18709 -0.02205,0.022 -0.06565,-0.014 -0.09354,0 -0.206831,0.10341 -0.02903,0.058 -0.09354,0.18708 -0.01972,0.0394 -0.06908,0.0569 -0.09355,0.0935 -0.03867,0.058 -0.05487,0.12907 -0.09354,0.18709 -0.04892,0.0734 -0.147647,0.1082 -0.187088,0.18709 -0.01394,0.0279 0.01395,0.0657 0,0.0935 -0.01972,0.0394 -0.07382,0.0541 -0.09354,0.0936 -0.01395,0.0279 0.02205,0.0715 0,0.0935 -0.02205,0.0221 -0.0715,-0.022 -0.09354,0 -0.02205,0.0221 0.01395,0.0657 0,0.0935 -0.03944,0.0789 -0.147647,0.10821 -0.187089,0.18709 -0.01394,0.0279 0.01395,0.0657 0,0.0935 -0.01972,0.0394 -0.07382,0.0541 -0.09354,0.0935 -0.01395,0.0279 0.01395,0.0657 0,0.0936 -0.01972,0.0394 -0.07382,0.0541 -0.09354,0.0935 -0.01395,0.0279 0.02205,0.0715 0,0.0935 -0.02205,0.022 -0.0715,-0.022 -0.09354,0 -0.0441,0.0441 0.0441,0.143 0,0.18709 -0.02205,0.022 -0.0715,-0.022 -0.09354,0 -0.02205,0.022 0.0099,0.064 0,0.0935 -0.03118,0.0624 -0.06236,0.12472 -0.09354,0.18709 -0.03118,0 -0.0715,-0.0221 -0.09354,0 -0.022048,0.022 0.02205,0.0715 0,0.0935 -0.022048,0.0221 -0.071496,-0.022 -0.093544,0 -0.044097,0.0441 0.027889,0.13131 0,0.18709 -0.019722,0.0394 -0.073823,0.0541 -0.093545,0.0935 -0.013944,0.0279 0.022048,0.0715 0,0.0935 -0.022048,0.022 -0.071496,-0.0221 -0.093544,0 -0.022048,0.022 0.013944,0.0657 0,0.0935 -0.019722,0.0394 -0.069083,0.0569 -0.093544,0.0935 -0.038676,0.058 -0.054869,0.12907 -0.093545,0.18708 -0.048921,0.0734 -0.1476468,0.10821 -0.1870887,0.18709 -0.1151975,0.2304 0.2715345,-0.0844 -0.093544,0.28064 -0.022048,0.022 -0.071496,-0.0221 -0.093544,0 -0.022048,0.022 0.013944,0.0657 0,0.0935 -0.0508,0.1016 -0.1362887,0.0855 -0.1870887,0.18709 -0.013944,0.0279 0.013943,0.0657 0,0.0935 -0.019722,0.0394 -0.073823,0.0541 -0.093545,0.0935 -0.013944,0.0279 0,0.0624 0,0.0935 -0.031181,0.0312 -0.073823,0.0541 -0.093544,0.0935 -0.013946,0.0279 0.013944,0.0657 0,0.0935 -0.039442,0.0789 -0.1591992,0.10342 -0.1870887,0.18709 -0.019722,0.0592 0.02789,0.13131 0,0.18709 -0.013943,0.0279 -0.071496,-0.022 -0.093544,0 -0.044097,0.0441 0.027889,0.13131 0,0.18709 -0.019722,0.0394 -0.073823,0.0541 -0.093544,0.0935 -0.013944,0.0279 0.013943,0.0657 0,0.0936 -0.019719,0.0394 -0.079599,0.0517 -0.093544,0.0935 -0.019722,0.0592 0.019722,0.12793 0,0.18709 -0.013944,0.0418 -0.073824,0.0541 -0.093544,0.0935 -0.013943,0.0279 0.013944,0.0657 0,0.0935 -0.2032,0.4064 0.01611,-0.21931 -0.1870887,0.18709 -0.013944,0.0279 0.00986,0.064 0,0.0935 -0.022048,0.0661 -0.071496,0.12094 -0.093545,0.18709 -0.00986,0.0296 0.00986,0.064 0,0.0935 -0.022048,0.0661 -0.071496,0.12095 -0.093544,0.18709 -0.00986,0.0296 0.013943,0.0657 0,0.0935 -0.019722,0.0394 -0.073824,0.0541 -0.093544,0.0935 -0.02789,0.0558 0.044097,0.14299 0,0.18709 -0.022048,0.022 -0.071496,-0.022 -0.093545,0 -0.044097,0.0441 0.02789,0.13131 0,0.18709 -0.2140577,0.42811 0.038772,-0.39695 -0.1870887,0.28063 -0.019722,0.0592 0.02789,0.13131 0,0.18709 -0.019722,0.0394 -0.073823,0.0541 -0.093544,0.0935 -0.02789,0.0558 0.027889,0.13131 0,0.18709 -0.019719,0.0394 -0.073824,0.0541 -0.093544,0.0935 -0.02789,0.0558 0.044097,0.14299 0,0.18709 -0.022048,0.022 -0.071496,-0.0221 -0.093544,0 -0.044097,0.0441 0.044097,0.14299 0,0.18708 -0.022048,0.022 -0.071496,-0.022 -0.093544,0 -0.046772,0.0468 0.046772,0.23387 0,0.28064 -0.022048,0.022 -0.071496,-0.022 -0.093544,0 -0.044097,0.0441 0.044097,0.14299 0,0.18709 -0.022048,0.022 -0.071496,-0.022 -0.093545,0 -0.022048,0.022 0,0.0624 0,0.0935 0,0.0312 0,0.0624 0,0.0935 0,0.24945 0.031181,-0.0312 -0.093544,0.0935 -0.1867649,0.18676 0.1867646,2.6e-4 0,0.18709 -0.022048,0.022 -0.071496,-0.022 -0.093545,0 -0.022511,0.0225 0.022511,0.35166 0,0.37418 -0.022048,0.022 -0.071496,-0.022 -0.093544,0 -0.022048,0.022 0,0.0624 0,0.0935 0,0.0227 0.00301,0.27762 0,0.28063 -0.022048,0.022 -0.062363,0 -0.093544,0"
       id="path873"
       inkscape:connector-curvature="0"
       inkscape:export-xdpi="96"
       inkscape:export-ydpi="96"
       inkscape:export-filename="D:\PG\git-tempworkspace\素材\close.png" />
    <path
       style="fill:none;stroke:#fffff9;stroke-width:3.17500003;stroke-linecap:round;stroke-linejoin:round;stroke-opacity:1;stroke-miterlimit:4;stroke-dasharray:0.79375001, 0.79375001000000001;stroke-dashoffset:0;paint-order:stroke fill markers"
       d="m 6.361015,267.43998 c 0.093544,0.12472 0.1870888,0.24945 0.280633,0.37417 0.031181,0 0.071496,-0.022 0.093544,0 0.022048,0.0221 -0.022048,0.0715 0,0.0935 0.022048,0.0221 0.071496,-0.022 0.093545,0 0.044097,0.0441 -0.044097,0.14299 0,0.18709 0.022048,0.022 0.071496,-0.022 0.093544,0 0.044097,0.0441 -0.044097,0.14299 0,0.18709 0.022048,0.022 0.071496,-0.022 0.093545,0 0.044097,0.0441 -0.044097,0.14299 0,0.18708 0.022048,0.0221 0.071496,-0.022 0.093544,0 0.044097,0.0441 -0.044097,0.143 0,0.18709 0.022048,0.022 0.071496,-0.022 0.093544,0 0.044097,0.0441 -0.027889,0.13131 0,0.18709 0.019722,0.0394 0.073823,0.0541 0.093544,0.0935 0.013944,0.0279 -0.022048,0.0715 0,0.0935 0.022048,0.022 0.071496,-0.0221 0.093544,0 0.044097,0.0441 -0.044097,0.14299 0,0.18709 0.022048,0.0221 0.071496,-0.022 0.093544,0 0.046772,0.0468 -0.046772,0.23386 0,0.28063 0.022048,0.022 0.071496,-0.022 0.093544,0 0.044097,0.0441 -0.044097,0.14299 0,0.18709 0.022048,0.022 0.071496,-0.0221 0.093544,0 0.044097,0.0441 -0.027889,0.13131 0,0.18709 0.019722,0.0394 0.073824,0.0541 0.093545,0.0935 0.013944,0.0279 -0.013943,0.0657 0,0.0935 0.019722,0.0394 0.073823,0.0541 0.093544,0.0935 0.018545,0.0371 -0.019124,0.26151 0,0.28064 0.022048,0.022 0.071496,-0.022 0.093544,0 0.044097,0.0441 -0.044097,0.14299 0,0.18708 0.022048,0.0221 0.071496,-0.022 0.093545,0 0.044097,0.0441 -0.044097,0.143 0,0.18709 0.022048,0.022 0.071496,-0.022 0.093544,0 0.044097,0.0441 -0.044097,0.14299 0,0.18709 0.022048,0.022 0.071496,-0.0221 0.093545,0 0.019124,0.0191 -0.018545,0.24355 0,0.28063 0.019722,0.0394 0.073823,0.0541 0.093544,0.0935 0.027889,0.0558 -0.044097,0.14299 0,0.18709 0.022048,0.0221 0.071496,-0.022 0.093544,0 0.044097,0.0441 -0.02789,0.13131 0,0.18709 0.019722,0.0394 0.073823,0.0541 0.093544,0.0935 0.013944,0.0279 -0.013944,0.0657 0,0.0935 0.019722,0.0395 0.073824,0.0541 0.093544,0.0935 0.02789,0.0558 -0.027889,0.13131 0,0.18709 0.019722,0.0394 0.073824,0.0541 0.093545,0.0935 0.02789,0.0558 -0.044097,0.14299 0,0.18709 0.022048,0.022 0.071496,-0.0221 0.093544,0 0.046772,0.0468 -0.046772,0.23386 0,0.28063 0.022048,0.0221 0.071496,-0.022 0.093544,0 0.019124,0.0191 -0.018545,0.24355 0,0.28064 0.019722,0.0394 0.073824,0.0541 0.093545,0.0935 0.018545,0.0371 -0.019124,0.26151 0,0.28063 0.022048,0.0221 0.071496,-0.022 0.093544,0 0.046772,0.0468 -0.046772,0.23387 0,0.28064 0.022048,0.022 0.071496,-0.022 0.093545,0 0.022511,0.0225 -0.022511,0.35167 0,0.37417 0.022048,0.0221 0.071496,-0.022 0.093544,0 0.044097,0.0441 -0.044097,0.143 0,0.18709 0.022048,0.022 0.071496,-0.022 0.093544,0 0.046772,0.0468 -0.046772,0.23386 0,0.28064 0.022048,0.022 0.071496,-0.022 0.093545,0 0.022048,0.022 -0.013946,0.0657 0,0.0935 0.019719,0.0394 0.073823,0.0541 0.093544,0.0935 0.013944,0.0279 -0.00986,0.064 0,0.0935 0.022048,0.0662 0.071496,0.12094 0.093545,0.18709 0.00986,0.0296 -0.022048,0.0715 0,0.0935 0.022048,0.022 0.071496,-0.0221 0.093544,0 0.022048,0.022 -0.013946,0.0657 0,0.0935 0.019722,0.0394 0.073824,0.0541 0.093544,0.0935 0.02789,0.0558 -0.044097,0.14299 0,0.18709 0.022048,0.0221 0.071496,-0.022 0.093545,0 0.044097,0.0441 -0.044097,0.14299 0,0.18709 0.022048,0.0221 0.071496,-0.022 0.093544,0 0.0441,0.0441 -0.027889,0.13131 0,0.18709 0.310248,0.31024 -0.044097,-0.0882 0.09354,0.18709 0.01972,0.0394 0.07382,0.0541 0.09354,0.0935 0.01394,0.0279 0,0.0624 0,0.0935 0.03118,0.0312 0.07382,0.0541 0.09354,0.0935 0.02789,0.0558 -0.0441,0.14299 0,0.18709 0.02205,0.022 0.0715,-0.022 0.09354,0 0.02205,0.022 -0.01395,0.0657 0,0.0935 0.01972,0.0394 0.07382,0.0541 0.09354,0.0935 0.02789,0.0558 -0.0441,0.14299 0,0.18708 0.02205,0.0221 0.0715,-0.022 0.09354,0 0.0441,0.0441 -0.0441,0.143 0,0.18709 0.02205,0.022 0.0715,-0.022 0.09354,0 0.0441,0.0441 -0.0441,0.14299 0,0.18709 0.02205,0.022 0.0715,-0.0221 0.09354,0 0.02205,0.022 -0.01394,0.0657 0,0.0935 0.01972,0.0394 0.07382,0.0541 0.09354,0.0935 0.01394,0.0279 -0.01395,0.0657 0,0.0935 0.03944,0.0789 0.147647,0.1082 0.187089,0.18708 0.01395,0.0279 -0.01394,0.0657 0,0.0935 0.05613,0.11225 0.224506,0.16838 0.280633,0.28063 0.01394,0.0279 -0.02205,0.0715 0,0.0935 0.02205,0.022 0.0715,-0.0221 0.09354,0 0.0441,0.0441 -0.0441,0.14299 0,0.18708 0.02205,0.022 0.0715,-0.022 0.09354,0 0.02205,0.022 -0.02205,0.0715 0,0.0935 0.02205,0.0221 0.0715,-0.022 0.09355,0 0.0441,0.0441 -0.0441,0.14299 0,0.18709 0.02205,0.022 0.0715,-0.022 0.09354,0 0.02205,0.022 0,0.0624 0,0.0935 0.03118,0 0.0715,-0.0221 0.09355,0 0.06225,0.0623 -0.06226,0.12484 0,0.18709 0.02205,0.0221 0.07149,-0.022 0.09354,0 0.02205,0.0221 -0.01394,0.0657 0,0.0935 0.01972,0.0394 0.07382,0.0541 0.09354,0.0935 0.01394,0.0279 -0.02205,0.0715 0,0.0935 0.02205,0.022 0.0715,-0.022 0.09355,0 0.02205,0.022 -0.01394,0.0657 0,0.0935 0.0332,0.0664 0.153886,0.12068 0.187088,0.18709 0.01394,0.0279 -0.02205,0.0715 0,0.0935 0.02205,0.0221 0.0715,-0.022 0.09355,0 0.02205,0.0221 -0.02205,0.0715 0,0.0935 0.02205,0.0221 0.06236,0 0.09354,0 0,0.0312 -0.02205,0.0715 0,0.0935 0.02205,0.0221 0.0715,-0.022 0.09354,0 0.02205,0.0221 -0.02205,0.0715 0,0.0935 0.02205,0.022 0.0715,-0.022 0.09355,0 0.0441,0.0441 -0.0441,0.143 0,0.18709 0.02205,0.022 0.06236,0 0.09354,0 0,0.0312 -0.02205,0.0715 0,0.0935 0.02205,0.022 0.0715,-0.0221 0.09354,0 0.193547,0.19354 -0.295764,-0.008 0.09355,0.18709 0.02789,0.0139 0.07149,-0.0221 0.09354,0 0.0441,0.0441 -0.0441,0.14299 0,0.18708 0.02205,0.022 0.0715,-0.022 0.09354,0 0.02205,0.022 -0.02205,0.0715 0,0.0935 0.02205,0.022 0.0715,-0.022 0.09355,0 0.02205,0.022 -0.02205,0.0715 0,0.0935 0.02205,0.022 0.07149,-0.0221 0.09354,0 0.02205,0.022 -0.02205,0.0715 0,0.0935 0.02205,0.022 0.0715,-0.022 0.09354,0 0.02205,0.022 -0.01394,0.0657 0,0.0935 0.01972,0.0394 0.07382,0.0541 0.09355,0.0935 0.01394,0.0279 -0.02205,0.0715 0,0.0935 0.02205,0.0221 0.0715,-0.022 0.09354,0 0.02205,0.0221 -0.02205,0.0715 0,0.0935 0.02205,0.022 0.0715,-0.022 0.09354,0 0.02205,0.022 -0.02205,0.0715 0,0.0935 0.02205,0.0221 0.0715,-0.022 0.09355,0 0.02205,0.0221 -0.01395,0.0657 0,0.0935 0.01972,0.0394 0.07382,0.0541 0.09354,0.0935 0.01395,0.0279 -0.02205,0.0715 0,0.0935 0.02205,0.022 0.0715,-0.0221 0.09354,0 0.02205,0.022 -0.02205,0.0715 0,0.0935 0.02205,0.022 0.0715,-0.0221 0.09355,0 0.02205,0.022 -0.02205,0.0715 0,0.0935 0.02205,0.0221 0.0715,-0.022 0.09354,0 0.02205,0.0221 -0.02205,0.0715 0,0.0935 0.02205,0.022 0.0715,-0.022 0.09354,0 0.193547,0.19355 -0.295764,-0.008 0.09355,0.18709 0.02789,0.0139 0.0715,-0.022 0.09354,0 0.193547,0.19355 -0.295765,-0.008 0.09354,0.18709 0.02789,0.0139 0.0715,-0.0221 0.09355,0 0.02205,0.022 0,0.0624 0,0.0935 0.03118,0 0.0715,-0.0221 0.09354,0 0.02205,0.022 -0.02205,0.0715 0,0.0935 0.02205,0.0221 0.0715,-0.022 0.09354,0 0.02205,0.0221 -0.02205,0.0715 0,0.0936 0.02205,0.022 0.0715,-0.0221 0.09355,0 0.193546,0.19354 -0.295765,-0.008 0.09354,0.18708 0.249452,0 -0.03118,-0.0312 0.09354,0.0935 0.193547,0.19354 -0.0076,-0.29577 0.187089,0.0935 0.01395,0.0279 -0.02205,0.0715 0,0.0935 0.02205,0.022 0.06566,-0.014 0.09355,0 0.112253,0.0561 0.168379,0.2245 0.280632,0.28063 0.02789,0.0139 0.0715,-0.022 0.09354,0 0.02205,0.0221 -0.01394,0.0657 0,0.0935 0.01972,0.0394 0.06236,0.0624 0.09354,0.0935 0.03118,0.0312 0.0541,0.0738 0.09354,0.0935 0.02789,0.0139 0.0715,-0.022 0.09354,0 0.02205,0.022 -0.02205,0.0715 0,0.0935 0.02205,0.022 0.0715,-0.0221 0.09354,0 0.02205,0.022 -0.02205,0.0715 0,0.0935 0.02205,0.022 0.0715,-0.0221 0.09354,0 0.02205,0.022 -0.02205,0.0715 0,0.0935 0.02205,0.022 0.0715,-0.0221 0.09354,0 0.02205,0.022 -0.02205,0.0715 0,0.0935 0.02205,0.0221 0.0715,-0.022 0.09354,0 0.193547,0.19355 -0.295765,-0.008 0.09354,0.18709 0.02789,0.0139 0.06566,-0.014 0.09355,0 0.09961,0.0498 0.08748,0.13728 0.187088,0.18709 0.02789,0.0139 0.0715,-0.0221 0.09354,0 0.193546,0.19354 -0.295765,-0.008 0.09354,0.18709 0.02789,0.0139 0.0715,-0.0221 0.09354,0 0.193546,0.19354 -0.295765,-0.008 0.09354,0.18708 0.02789,0.014 0.0715,-0.022 0.09354,0 0.02205,0.022 -0.02205,0.0715 0,0.0935 0.02205,0.022 0.0715,-0.022 0.09355,0 0.02205,0.022 -0.02205,0.0715 0,0.0935 0.02205,0.022 0.06565,-0.0139 0.09354,0 0.07888,0.0394 0.108205,0.14765 0.187088,0.18709 0.02789,0.0139 0.0715,-0.0221 0.09355,0 0.02205,0.022 -0.02205,0.0715 0,0.0935 0.02205,0.022 0.07149,-0.0221 0.09354,0 0.02205,0.022 -0.02205,0.0715 0,0.0935 0.02205,0.0221 0.0715,-0.022 0.09354,0 0.02205,0.0221 -0.02205,0.0715 0,0.0935 0.02205,0.022 0.06565,-0.0139 0.09354,0 0.112253,0.0561 0.16838,0.2245 0.280633,0.28063 0.02789,0.0139 0.0715,-0.022 0.09354,0 0.02205,0.022 -0.02205,0.0715 0,0.0935 0.02205,0.022 0.0715,-0.0221 0.09355,0 0.02205,0.022 -0.02205,0.0715 0,0.0935 0.06226,0.0623 0.124833,-0.0623 0.187088,0 0,0.24945 -0.03118,-0.0312 0.09354,0.0935 0.02205,0.0221 -0.02205,0.0715 0,0.0936 0.02205,0.022 0.0715,-0.0221 0.09354,0 0.02205,0.022 -0.02205,0.0715 0,0.0935 0.02205,0.0221 0.06565,-0.0139 0.09354,0 0.03944,0.0197 0.0541,0.0738 0.09354,0.0935 0.02789,0.0139 0.07149,-0.022 0.09354,0 0.02205,0.022 -0.02205,0.0715 0,0.0935 0.02205,0.022 0.06566,-0.0139 0.09354,0 0.03944,0.0197 0.0541,0.0738 0.09354,0.0935 0.02789,0.0139 0.06565,-0.0139 0.09354,0 0.09864,0.0493 0.08845,0.13777 0.187089,0.18709 0.02789,0.014 0.07149,-0.022 0.09354,0 0.02205,0.0221 -0.02205,0.0715 0,0.0936 0.02205,0.022 0.06566,-0.014 0.09354,0 0.03944,0.0197 0.0541,0.0738 0.09354,0.0935 0.02789,0.0139 0.06566,-0.0139 0.09354,0 0.03944,0.0197 0.0541,0.0738 0.09354,0.0935 0.02789,0.014 0.0715,-0.022 0.09354,0 0.02205,0.022 -0.02205,0.0715 0,0.0935 0.0441,0.0441 0.142991,-0.0441 0.187088,0 0.02205,0.022 -0.02205,0.0715 0,0.0935 0.0441,0.0441 0.142992,-0.0441 0.187089,0 0.02205,0.022 -0.02205,0.0715 0,0.0935 0.0441,0.0441 0.142991,-0.0441 0.187089,0 0.02205,0.022 -0.02205,0.0715 0,0.0935 0.02205,0.0221 0.06565,-0.0139 0.09354,0 0.03944,0.0197 0.0541,0.0738 0.09354,0.0936 0.02789,0.0139 0.0715,-0.0221 0.09354,0 0.02205,0.022 -0.02205,0.0715 0,0.0935 0.04677,0.0468 0.233861,-0.0468 0.280633,0 0.02205,0.0221 -0.02205,0.0715 0,0.0935 0.02205,0.022 0.06565,-0.0139 0.09354,0 0.03944,0.0197 0.0541,0.0738 0.09354,0.0935 0.05578,0.0279 0.142992,-0.0441 0.187089,0 0.02205,0.022 -0.02205,0.0715 0,0.0935 0.02205,0.022 0.06565,-0.0139 0.09354,0 0.03944,0.0197 0.0541,0.0738 0.09354,0.0935 0.05578,0.0279 0.142991,-0.0441 0.187089,0 0.02205,0.022 -0.02205,0.0715 0,0.0935 0.0441,0.0441 0.142991,-0.0441 0.187088,0 0.02205,0.022 -0.02205,0.0715 0,0.0935 0.0441,0.0441 0.142991,-0.0441 0.187089,0 0.02205,0.022 -0.02205,0.0715 0,0.0935 0.0441,0.0441 0.142991,-0.0441 0.187088,0 0.02205,0.0221 -0.02205,0.0715 0,0.0935 0.0441,0.0441 0.142992,-0.0441 0.187089,0 0.02205,0.022 -0.02205,0.0715 0,0.0935 0.04677,0.0468 0.233861,-0.0468 0.280633,0 0.02205,0.022 -0.02205,0.0715 0,0.0935 0.0441,0.0441 0.13131,-0.0279 0.187089,0 0.03944,0.0197 0.0541,0.0738 0.09354,0.0935 0.05578,0.0279 0.142992,-0.0441 0.187089,0 0.02205,0.022 -0.02205,0.0715 0,0.0935 0.0441,0.0441 0.142991,-0.0441 0.187089,0 0.02205,0.022 -0.02205,0.0715 0,0.0935 0.04677,0.0468 0.23386,-0.0468 0.280633,0 0.02205,0.022 -0.02205,0.0715 0,0.0935 0.0441,0.0441 0.142991,-0.0441 0.187088,0 0.02205,0.0221 -0.02205,0.0715 0,0.0935 0.0441,0.0441 0.142992,-0.0441 0.187089,0 0.02205,0.022 -0.02205,0.0715 0,0.0935 0.04677,0.0468 0.233861,-0.0468 0.280633,0 0.02205,0.0221 -0.02205,0.0715 0,0.0935 0.04677,0.0468 0.233861,-0.0468 0.280633,0 0.02205,0.022 -0.02205,0.0715 0,0.0935 0.0441,0.0441 0.142991,-0.0441 0.187089,0 0.02205,0.022 -0.02205,0.0715 0,0.0935 0.02251,0.0225 0.351667,-0.0225 0.374177,0 0.02205,0.022 -0.02205,0.0715 0,0.0935 0.0441,0.0441 0.142991,-0.0441 0.187089,0 0.02205,0.022 -0.02205,0.0715 0,0.0935 0.01912,0.0191 0.243543,-0.0185 0.280633,0 0.03944,0.0197 0.0541,0.0738 0.09354,0.0936 0.03709,0.0185 0.261509,-0.0191 0.280633,0 0.02205,0.022 -0.02205,0.0715 0,0.0935 0.01912,0.0191 0.243543,-0.0185 0.280632,0 0.03944,0.0197 0.0541,0.0738 0.09355,0.0935 0.07484,0.0374 0.205796,-0.0374 0.280633,0 0.03944,0.0197 0.05171,0.0796 0.09354,0.0935 0.05321,0.0177 0.379619,0 0.467723,0 0.03118,0 0.0715,-0.022 0.09354,0 0.02204,0.022 -0.02204,0.0715 0,0.0935 0.02204,0.022 0.06236,0 0.09354,0 0.155908,0 0.311817,0 0.467722,0 0.03118,0 0.0715,-0.022 0.09354,0 0.02204,0.022 -0.02204,0.0715 0,0.0935 0.02252,0.0225 0.351668,-0.0225 0.374179,0 0.02204,0.022 -0.02204,0.0715 0,0.0935 0.0042,0.004 0.423616,0 0.467722,0"
       id="path875"
       inkscape:connector-curvature="0"
       inkscape:export-xdpi="96"
       inkscape:export-ydpi="96"
       inkscape:export-filename="D:\PG\git-tempworkspace\素材\close.png" />
  </g>
</svg>
