<?xml version="1.0" encoding="UTF-8" standalone="no"?>
<!-- Created with Inkscape (http://www.inkscape.org/) -->

<svg
   xmlns:dc="http://purl.org/dc/elements/1.1/"
   xmlns:cc="http://creativecommons.org/ns#"
   xmlns:rdf="http://www.w3.org/1999/02/22-rdf-syntax-ns#"
   xmlns:svg="http://www.w3.org/2000/svg"
   xmlns="http://www.w3.org/2000/svg"
   xmlns:sodipodi="http://sodipodi.sourceforge.net/DTD/sodipodi-0.dtd"
   xmlns:inkscape="http://www.inkscape.org/namespaces/inkscape"
   width="512"
   height="512"
   viewBox="0 0 135.46666 135.46667"
   version="1.1"
   id="svg8"
   inkscape:version="0.92.4 (5da689c313, 2019-01-14)"
   sodipodi:docname="Icons.svg"
   inkscape:export-filename="D:\PG\git-tempworkspace\素材\shutdown.png"
   inkscape:export-xdpi="96"
   inkscape:export-ydpi="96">
  <defs
     id="defs2" />
  <sodipodi:namedview
     id="base"
     pagecolor="#ffa7a7"
     bordercolor="#666666"
     borderopacity="1.0"
     inkscape:pageopacity="0"
     inkscape:pageshadow="2"
     inkscape:zoom="0.5"
     inkscape:cx="256.45115"
     inkscape:cy="573.81503"
     inkscape:document-units="px"
     inkscape:current-layer="layer1"
     showgrid="false"
     units="px"
     inkscape:window-width="1920"
     inkscape:window-height="1001"
     inkscape:window-x="-9"
     inkscape:window-y="-9"
     inkscape:window-maximized="1" />
  <metadata
     id="metadata5">
    <rdf:RDF>
      <cc:Work
         rdf:about="">
        <dc:format>image/svg+xml</dc:format>
        <dc:type
           rdf:resource="http://purl.org/dc/dcmitype/StillImage" />
        <dc:title />
      </cc:Work>
    </rdf:RDF>
  </metadata>
  <g
     inkscape:label="Layer 1"
     inkscape:groupmode="layer"
     id="layer1"
     transform="translate(0,-161.53332)">
    <g
       id="g834"
       transform="matrix(0.88679712,0,0,0.88679712,-24.541694,25.734475)">
      <path
         sodipodi:open="true"
         d="m 63.345147,252.78673 a 12.7,12.7 0 0 1 8.163403,14.13943 12.7,12.7 0 0 1 -12.507058,10.49467 12.7,12.7 0 0 1 -12.507059,-10.49467 12.7,12.7 0 0 1 8.163402,-14.13943"
         sodipodi:end="4.3633231"
         sodipodi:start="5.0614548"
         sodipodi:ry="12.7"
         sodipodi:rx="12.7"
         sodipodi:cy="264.72083"
         sodipodi:cx="59.001492"
         sodipodi:type="arc"
         id="path816"
         style="fill:none;fill-opacity:1;stroke:#ffffff;stroke-width:2.64583325;stroke-miterlimit:4;stroke-dasharray:none;stroke-opacity:1;paint-order:fill markers stroke" />
      <path
         inkscape:connector-curvature="0"
         id="path826"
         d="m 58.906729,249.70757 v 10.10915"
         style="fill:none;stroke:#ffffff;stroke-width:2.64583325;stroke-linecap:round;stroke-linejoin:miter;stroke-miterlimit:4;stroke-dasharray:none;stroke-opacity:1" />
    </g>
    <path
       style="fill:none;stroke:#ffffff;stroke-width:2.64583325;stroke-linecap:round;stroke-linejoin:round;stroke-miterlimit:4;stroke-dasharray:none;stroke-opacity:1"
       d="m 16.134412,221.80639 c 0.132292,0.26459 0.264584,0.52917 0.396875,0.79375 0.0441,0 0.10111,-0.0312 0.132292,0 0.03118,0.0312 -0.03118,0.10111 0,0.1323 0.03118,0.0312 0.10111,-0.0312 0.132292,0 0.06972,0.0697 0.06257,0.19486 0.132291,0.26458 0.03118,0.0312 0.10111,-0.0312 0.132292,0 0.03118,0.0312 -0.03118,0.10111 0,0.13229 0.03118,0.0312 0.10111,-0.0312 0.132292,0 0.03118,0.0312 -0.01972,0.0928 0,0.13229 0.01266,0.0253 0.503843,0.51651 0.529166,0.52917 0.03944,0.0197 0.10111,-0.0312 0.132292,0 0.03118,0.0312 -0.03118,0.10111 0,0.13229 0.06972,0.0697 0.182539,0.0776 0.264583,0.13229 0.05189,0.0346 0.07651,0.1044 0.132292,0.13229 0.03944,0.0197 0.10111,-0.0312 0.132292,0 0.03118,0.0312 -0.03118,0.10111 0,0.1323 0.03118,0.0312 0.09285,-0.0197 0.132291,0 0.05578,0.0279 0.08819,0.0882 0.132292,0.13229 0.0441,0.0441 0.104402,0.0765 0.132292,0.13229 0.01972,0.0394 -0.03118,0.10111 0,0.13229 0.03118,0.0312 0.09285,-0.0197 0.132291,0 0.05578,0.0279 0.07651,0.1044 0.132292,0.13229 0.03944,0.0197 0.10111,-0.0312 0.132292,0 0.03118,0.0312 -0.03118,0.10111 0,0.13229 0.03118,0.0312 0.10111,-0.0312 0.132291,0 0.03118,0.0312 0,0.0882 0,0.1323 0.0441,0 0.09448,-0.0227 0.132292,0 0.176389,0.13229 0.352778,0.26458 0.529166,0.39687 0,0.0441 -0.03118,0.10111 0,0.13229 0.03118,0.0312 0.09285,-0.0197 0.132292,0 0.111558,0.0558 0.153025,0.20881 0.264583,0.26459 0.03944,0.0197 0.09285,-0.0197 0.132292,0 0.111558,0.0558 0.153025,0.2088 0.264583,0.26458 0.03944,0.0197 0.101111,-0.0312 0.132292,0 0.03118,0.0312 -0.03118,0.10111 0,0.13229 0.03118,0.0312 0.09285,-0.0197 0.132292,0 0.05578,0.0279 0.0804,0.0977 0.132291,0.13229 0.08204,0.0547 0.18254,0.0776 0.264584,0.13229 0.05189,0.0346 0.0804,0.0977 0.132291,0.1323 0.08204,0.0547 0.1857,0.0731 0.264584,0.13229 0.09978,0.0748 0.176389,0.17639 0.264583,0.26458 0.0441,0.0441 0.07651,0.1044 0.132292,0.13229 0.03944,0.0197 0.10111,-0.0312 0.132291,0 0.03118,0.0312 -0.03118,0.10111 0,0.13229 0.03118,0.0312 0.0882,0 0.132292,0 0,0.0441 -0.03118,0.10111 0,0.1323 0.03118,0.0312 0.0956,-0.0245 0.132292,0 0.08819,0.0882 0.176389,0.17638 0.264583,0.26458 0.0441,0 0.09285,-0.0197 0.132292,0 0.15875,0.0794 0.238125,0.3175 0.396875,0.39687 0.03944,0.0197 0.09285,-0.0197 0.132291,0 0.05578,0.0279 0.07651,0.10441 0.132292,0.1323 0.03944,0.0197 0.10111,-0.0312 0.132292,0 0.03118,0.0312 -0.03118,0.10111 0,0.13229 0.03118,0.0312 0.09285,-0.0197 0.132291,0 0.111558,0.0558 0.153026,0.2088 0.264584,0.26458 0.03944,0.0197 0.10111,-0.0312 0.132291,0 0.03118,0.0312 -0.03118,0.10111 0,0.13229 0.06236,0.0624 0.202221,-0.0624 0.264584,0 0,0.35278 -0.0441,-0.0441 0.132291,0.13229 0.03118,0.0312 -0.03118,0.10111 0,0.1323 0.0882,0.0882 0.176389,-0.0882 0.264583,0 0.03118,0.0312 -0.03118,0.10111 0,0.13229 0.03118,0.0312 0.10111,-0.0312 0.132292,0 0.03118,0.0312 -0.03118,0.10111 0,0.13229 0.06236,0.0624 0.20222,-0.0624 0.264583,0 0.03118,0.0312 -0.03118,0.10111 0,0.13229 0.03118,0.0312 0.10111,-0.0312 0.132292,0 0.03118,0.0312 -0.03118,0.10111 0,0.13229 0.06236,0.0624 0.185699,-0.0394 0.264583,0 0.05578,0.0279 0.07651,0.1044 0.132291,0.13229 0.03944,0.0197 0.101111,-0.0312 0.132292,0 0.03118,0.0312 -0.03118,0.10111 0,0.1323 0.03183,0.0318 0.497333,-0.0318 0.529167,0 0.176389,0.17639 -0.220486,0.13229 0.132291,0.13229 0.0441,0 0.0882,0 0.132292,0 0.0441,0 0.10111,0.0312 0.132292,0 0.03118,-0.0312 -0.03118,-0.10111 0,-0.13229 0.03118,-0.0312 0.09285,0.0197 0.132291,0 0.292505,-0.14626 0.04105,-0.0821 0.132292,-0.26459 0.02789,-0.0558 0.104402,-0.0765 0.132292,-0.13229 0.03944,-0.0789 -0.06236,-0.20222 0,-0.26458 0.03118,-0.0312 0.10111,0.0312 0.132291,0 0.03118,-0.0312 -0.01395,-0.0905 0,-0.13229 0.03118,-0.0935 0.0776,-0.18254 0.132292,-0.26459 0.03459,-0.0519 0.0977,-0.0804 0.132292,-0.13229 0.0547,-0.082 0.07759,-0.18254 0.132291,-0.26458 0.03459,-0.0519 0.104403,-0.0765 0.132292,-0.13229 0.01972,-0.0394 -0.01972,-0.0928 0,-0.1323 0.0711,-0.14221 0.193479,-0.25466 0.264583,-0.39687 0.01972,-0.0394 -0.01972,-0.0928 0,-0.13229 0.02789,-0.0558 0.08819,-0.0882 0.132292,-0.13229 0.08819,-0.1323 0.193479,-0.25467 0.264583,-0.39688 0.01972,-0.0394 -0.01972,-0.0928 0,-0.13229 0.05578,-0.11156 0.208805,-0.15303 0.264584,-0.26458 0.03944,-0.0789 -0.03944,-0.1857 0,-0.26459 0.05578,-0.11156 0.208804,-0.15302 0.264583,-0.26458 0.01972,-0.0394 -0.01972,-0.0928 0,-0.13229 0.02789,-0.0558 0.104402,-0.0765 0.132292,-0.13229 0.01972,-0.0394 -0.01972,-0.0928 0,-0.1323 0.02789,-0.0558 0.104402,-0.0765 0.132291,-0.13229 0.01972,-0.0394 -0.01972,-0.0928 0,-0.13229 0.275284,-0.55057 -0.0091,0.14143 0.264584,-0.13229 0.03118,-0.0312 -0.01395,-0.0905 0,-0.13229 0.03118,-0.0935 0.08819,-0.17639 0.132291,-0.26459 0.0441,-0.0882 0.0776,-0.18254 0.132292,-0.26458 -0.0132,-0.26208 0.19486,-0.0626 0.264584,-0.13229 0.03118,-0.0312 -0.01972,-0.0928 0,-0.13229 0.438756,-0.43876 -0.06236,0.12472 0.132291,-0.26459 0.02789,-0.0558 0.104402,-0.0765 0.132292,-0.13229 0.01972,-0.0394 -0.01972,-0.0928 0,-0.13229 0.05578,-0.11156 0.208804,-0.15302 0.264583,-0.26458 0.01972,-0.0394 -0.01972,-0.0928 0,-0.13229 0.141111,-0.28223 0.123473,0.0176 0.264584,-0.26459 0.01972,-0.0394 -0.01972,-0.0928 0,-0.13229 0.05578,-0.11156 0.189747,-0.1648 0.264583,-0.26458 0.08819,-0.13229 0.176389,-0.26459 0.264583,-0.39688 0,-0.0441 -0.01972,-0.0928 0,-0.13229 0.05578,-0.11156 0.208805,-0.15302 0.264584,-0.26458 0.06236,-0.12473 0.06993,-0.27215 0.132291,-0.39688 0.02789,-0.0558 0.104402,-0.0765 0.132292,-0.13229 0.01972,-0.0394 -0.03118,-0.10111 0,-0.13229 0.03118,-0.0312 0.10111,0.0312 0.132292,0 0.03118,-0.0312 -0.01972,-0.0928 0,-0.13229 0.438756,-0.43876 -0.06236,0.12472 0.132291,-0.26459 0.02789,-0.0558 0.0977,-0.0804 0.132292,-0.13229 0.0547,-0.082 0.0776,-0.18254 0.132292,-0.26458 0.03459,-0.0519 0.0977,-0.0804 0.132291,-0.13229 0.109392,-0.16409 0.155192,-0.36508 0.264584,-0.52917 0.03459,-0.0519 0.104402,-0.0765 0.132291,-0.13229 0.01972,-0.0394 -0.01972,-0.0928 0,-0.13229 0.02789,-0.0558 0.104402,-0.0765 0.132292,-0.13229 0.01972,-0.0394 -0.01972,-0.0928 0,-0.1323 0.05578,-0.11155 0.208804,-0.15302 0.264583,-0.26458 0.01972,-0.0394 -0.01972,-0.0928 0,-0.13229 0.02789,-0.0558 0.104402,-0.0765 0.132292,-0.13229 0.01972,-0.0394 -0.01972,-0.0928 0,-0.13229 0.02789,-0.0558 0.104402,-0.0765 0.132292,-0.1323 0.01972,-0.0394 -0.01972,-0.0928 0,-0.13229 0.02789,-0.0558 0.104402,-0.0765 0.132291,-0.13229 0.01972,-0.0394 -0.01972,-0.0928 0,-0.13229 0.02789,-0.0558 0.104402,-0.0765 0.132292,-0.13229 0.01972,-0.0394 -0.01972,-0.0928 0,-0.13229 0.02789,-0.0558 0.104402,-0.0765 0.132292,-0.1323 0.01972,-0.0394 -0.01972,-0.0928 0,-0.13229 0.02789,-0.0558 0.0977,-0.0804 0.132291,-0.13229 0.231186,-0.34678 0.04945,-0.23119 0.264584,-0.66146 0.02789,-0.0558 0.11257,-0.0731 0.132291,-0.13229 0.02789,-0.0837 -0.02789,-0.18091 0,-0.26458 0.03944,-0.11833 0.208805,-0.15303 0.264584,-0.26459 0.01972,-0.0394 -0.01972,-0.0928 0,-0.13229 0.02789,-0.0558 0.104402,-0.0765 0.132291,-0.13229 0.07056,-0.14111 -0.07055,-0.12347 0,-0.26458 0.302724,-0.60545 -0.05483,0.56137 0.264584,-0.39688 0.01395,-0.0418 -0.01972,-0.0928 0,-0.13229 0.05578,-0.11156 0.208804,-0.15302 0.264583,-0.26458 0.01972,-0.0394 -0.01638,-0.0913 0,-0.13229 0.08819,-0.17639 0.176389,-0.35278 0.264583,-0.52917 0.0441,-0.0441 0.100206,-0.0788 0.132292,-0.13229 0.08819,-0.17639 0.176389,-0.35278 0.264583,-0.52917 0,-0.0441 -0.01972,-0.0928 0,-0.13229 0.02789,-0.0558 0.104403,-0.0765 0.132292,-0.13229 0.01971,-0.0394 -0.01972,-0.0928 0,-0.13229 0.05578,-0.11156 0.208804,-0.15303 0.264583,-0.26459 0.01971,-0.0394 -0.01971,-0.0928 0,-0.13229 0.05578,-0.11156 0.208804,-0.15302 0.264584,-0.26458 0.03944,-0.0789 -0.06236,-0.20222 0,-0.26459 0.03118,-0.0312 0.10111,0.0312 0.132291,0 0.03118,-0.0312 -0.01971,-0.0928 0,-0.13229 0.02789,-0.0558 0.104402,-0.0765 0.132292,-0.13229 0.01971,-0.0394 -0.01971,-0.0928 0,-0.13229 0.07937,-0.15875 0.3175,-0.23813 0.396875,-0.39688 0.01971,-0.0394 -0.01971,-0.0928 0,-0.13229 0.02789,-0.0558 0.0977,-0.0804 0.132292,-0.13229 0.05469,-0.082 0.0776,-0.18254 0.132291,-0.26458 0.03459,-0.0519 0.0977,-0.0804 0.132292,-0.13229 0.0547,-0.0821 0.0776,-0.18254 0.132292,-0.26459 0.03459,-0.0519 0.0977,-0.0804 0.132291,-0.13229 0.05469,-0.082 0.0776,-0.18254 0.132292,-0.26458 0.03459,-0.0519 0.104402,-0.0765 0.132292,-0.13229 0.01971,-0.0394 -0.03118,-0.10112 0,-0.1323 0.273716,-0.27371 -0.01069,0.41828 0.264583,-0.13229 0.03944,-0.0789 -0.06236,-0.20222 0,-0.26458 0.03118,-0.0312 0.101111,0.0312 0.132292,0 0.03118,-0.0312 -0.03118,-0.10111 0,-0.13229 0.03118,-0.0312 0.10111,0.0312 0.132291,0 0.03118,-0.0312 -0.03118,-0.10111 0,-0.13229 0.03118,-0.0312 0.101111,0.0312 0.132292,0 0.03118,-0.0312 -0.01971,-0.0928 0,-0.1323 0.02789,-0.0558 0.104402,-0.0765 0.132292,-0.13229 0.01971,-0.0394 -0.03118,-0.10111 0,-0.13229 0.03118,-0.0312 0.10111,0.0312 0.132291,0 0.03118,-0.0312 -0.03118,-0.10111 0,-0.13229 0.03118,-0.0312 0.101111,0.0312 0.132292,0 0.08819,-0.0882 -0.08819,-0.17639 0,-0.26458 0.03118,-0.0312 0.09285,0.0197 0.132292,0 0.550566,-0.27529 -0.141425,0.009 0.132291,-0.26459 0.03118,-0.0312 0.101111,0.0312 0.132292,0 0.273717,-0.27371 -0.418274,0.0107 0.132292,-0.26458 0.03944,-0.0197 0.10111,0.0312 0.132291,0 0.06236,-0.0624 -0.06236,-0.20222 0,-0.26458 0.03118,-0.0312 0.101111,0.0312 0.132292,0 0.03118,-0.0312 -0.01971,-0.0928 0,-0.1323 0.02789,-0.0558 0.104402,-0.0765 0.132292,-0.13229 0.01971,-0.0394 -0.03118,-0.10111 0,-0.13229 0.03118,-0.0312 0.10111,0.0312 0.132291,0 0.03118,-0.0312 -0.03118,-0.10111 0,-0.13229 0.03118,-0.0312 0.101111,0.0312 0.132292,0 0.130503,-0.1305 -0.271076,-0.26458 0.132292,-0.26458"
       id="path850"
       inkscape:connector-curvature="0" />
    <g
       id="g839"
       inkscape:export-filename="D:\PG\git-tempworkspace\Game Platform\Assets\Resources\Images\Icons\close.png"
       inkscape:export-xdpi="96"
       inkscape:export-ydpi="96">
      <path
         inkscape:export-filename="D:\PG\git-tempworkspace\素材\close.png"
         inkscape:export-ydpi="96"
         inkscape:export-xdpi="96"
         inkscape:connector-curvature="0"
         id="path873"
         d="m 39.242148,170.15068 c -0.875257,0 -0.09787,-0.0828 -0.4391,0.0878 -0.03482,0.0175 -0.245506,-0.0179 -0.26346,0 -0.02069,0.0206 0.02069,0.0671 0,0.0878 -0.0414,0.0414 -0.123274,-0.0262 -0.175641,0 -0.03703,0.0185 -0.05079,0.0693 -0.08782,0.0878 -0.02618,0.0131 -0.06164,-0.013 -0.08783,0 -0.03703,0.0185 -0.05079,0.0693 -0.08782,0.0878 -0.04765,0.0239 -0.327249,-0.024 -0.351279,0 -0.02069,0.0207 0.02069,0.0671 0,0.0878 -0.0414,0.0414 -0.123275,-0.0262 -0.175641,0 -0.03703,0.0185 -0.05079,0.0693 -0.08782,0.0878 -0.279171,0.13959 0.103528,-0.13958 -0.175641,0 -0.03703,0.0185 -0.04855,0.0747 -0.08782,0.0878 -0.05554,0.0185 -0.123275,-0.0262 -0.175642,0 -0.02618,0.013 0.02069,0.0671 0,0.0878 -0.02692,0.0269 -0.411959,-0.0271 -0.439099,0 -0.0207,0.0207 0.0207,0.0671 0,0.0878 -0.01795,0.0179 -0.22864,-0.0175 -0.26346,0 -0.03703,0.0185 -0.05079,0.0693 -0.08782,0.0878 -0.04764,0.0239 -0.327251,-0.024 -0.35128,0 -0.0207,0.0207 0.0207,0.0671 0,0.0878 -0.04391,0.0439 -0.219551,-0.0439 -0.26346,0 -0.0207,0.0206 0.0207,0.0671 0,0.0878 -0.01795,0.0179 -0.22864,-0.0174 -0.26346,0 -0.03703,0.0185 -0.05079,0.0693 -0.08782,0.0878 -0.03482,0.0174 -0.245507,-0.0179 -0.26346,0 -0.0207,0.0207 0.0207,0.0671 0,0.0878 -0.04391,0.0439 -0.21955,-0.0439 -0.26346,0 -0.0207,0.0206 0.0207,0.0671 0,0.0878 -0.0414,0.0414 -0.134242,-0.0414 -0.175641,0 -0.0207,0.0207 0.0207,0.0671 0,0.0878 -0.01795,0.0179 -0.228639,-0.0175 -0.26346,0 -0.03703,0.0185 -0.05854,0.0586 -0.08782,0.0878 -0.146367,0.0586 -0.289549,0.12579 -0.439101,0.17564 -0.03417,0.0114 -0.249831,-0.0136 -0.26346,0 -0.0207,0.0207 0.0207,0.0671 0,0.0878 -0.0207,0.0206 -0.06712,-0.0206 -0.08782,0 -0.0207,0.0206 0.0207,0.0671 0,0.0878 -0.01795,0.0179 -0.22864,-0.0174 -0.26346,0 -0.03703,0.0185 -0.05079,0.0693 -0.08782,0.0878 -0.02618,0.0131 -0.06163,-0.013 -0.08781,0 -0.03703,0.0185 -0.05079,0.0693 -0.08782,0.0878 -0.05237,0.0262 -0.134242,-0.0414 -0.175641,0 -0.0207,0.0207 0.0207,0.0671 0,0.0878 -0.232641,0.23265 0.05701,-0.23263 -0.17564,0 -0.0207,0.0207 0.0207,0.0671 0,0.0878 -0.0414,0.0414 -0.123274,-0.0262 -0.175639,0 -0.03703,0.0185 -0.05079,0.0693 -0.08783,0.0878 -0.02618,0.0131 -0.06712,-0.0207 -0.08782,0 -0.0207,0.0207 0.0207,0.0671 0,0.0878 -0.0414,0.0414 -0.13424,-0.0414 -0.17564,0 -0.0207,0.0206 0.0207,0.0671 0,0.0878 -0.0207,0.0206 -0.06163,-0.0131 -0.08782,0 -0.03703,0.0185 -0.05079,0.0693 -0.08782,0.0878 -0.05237,0.0262 -0.134242,-0.0414 -0.17564,0 -0.0207,0.0207 0.0207,0.0671 0,0.0878 -0.0207,0.0207 -0.06713,-0.0206 -0.08782,0 -0.0207,0.0207 0.0207,0.0671 0,0.0878 -0.0414,0.0414 -0.134242,-0.0414 -0.17564,0 -0.0207,0.0207 0.0207,0.0671 0,0.0878 -0.0414,0.0414 -0.134242,-0.0414 -0.175641,0 -0.0207,0.0208 0.0207,0.0671 0,0.0878 -0.0414,0.0414 -0.13424,-0.0414 -0.175639,0 -0.0207,0.0206 0.0207,0.0671 0,0.0878 -0.0207,0.0206 -0.06163,-0.0131 -0.08782,0 -0.03703,0.0185 -0.05079,0.0693 -0.08782,0.0878 -0.02618,0.0131 -0.06712,-0.0207 -0.08782,0 -0.0207,0.0207 0.0207,0.0671 0,0.0878 -0.0207,0.0207 -0.06163,-0.013 -0.08782,0 -0.03703,0.0185 -0.05079,0.0693 -0.08782,0.0878 -0.02618,0.013 -0.06712,-0.0206 -0.08782,0 -0.0207,0.0207 0.0207,0.0671 0,0.0878 -0.0207,0.0206 -0.06712,-0.0207 -0.08781,0 -0.0207,0.0206 0.0207,0.0671 0,0.0878 -0.0207,0.0207 -0.06713,-0.0206 -0.08782,0 -0.0207,0.0207 0.0207,0.0671 0,0.0878 -0.0414,0.0414 -0.134242,-0.0414 -0.175641,0 -0.0207,0.0206 0.0207,0.0671 0,0.0878 -0.0207,0.0206 -0.06712,-0.0207 -0.08782,0 -0.0207,0.0206 0.0207,0.0671 0,0.0878 -0.0207,0.0207 -0.06712,-0.0207 -0.08782,0 -0.0207,0.0207 0.0207,0.0671 0,0.0878 -0.0414,0.0414 -0.134241,-0.0414 -0.17564,0 -0.0207,0.0207 0.01309,0.0617 0,0.0878 -0.182743,0.36549 0.0061,-0.0939 -0.17564,0.0878 -0.0207,0.0208 0.0207,0.0671 0,0.0878 -0.0207,0.0207 -0.06713,-0.0207 -0.08782,0 -0.0207,0.0207 0.0207,0.0671 0,0.0878 -0.0207,0.0206 -0.06713,-0.0207 -0.08782,0 -0.0207,0.0206 0.0207,0.0671 0,0.0878 -0.0207,0.0207 -0.06713,-0.0207 -0.08783,0 -0.0207,0.0207 0.0207,0.0671 0,0.0878 -0.0207,0.0207 -0.06712,-0.0207 -0.08782,0 -0.0207,0.0207 0.0207,0.0671 0,0.0878 -0.0207,0.0207 -0.06712,-0.0207 -0.08782,0 -0.0207,0.0207 0.0207,0.0671 0,0.0878 -0.0207,0.0206 -0.06163,-0.0131 -0.08782,0 -0.03703,0.0185 -0.05079,0.0693 -0.08782,0.0878 -0.02618,0.0131 -0.06713,-0.0207 -0.08782,0 -0.0207,0.0207 0.0207,0.0671 0,0.0878 -0.234186,0 0.02927,-0.0293 -0.08782,0.0878 -0.0207,0.0207 -0.06163,-0.013 -0.08782,0 -0.03703,0.0185 -0.05079,0.0693 -0.08783,0.0878 -0.02618,0.0131 -0.06711,-0.0206 -0.08782,0 -0.0207,0.0207 0.0207,0.0671 0,0.0878 -0.0207,0.0207 -0.06346,-0.0162 -0.08782,0 -0.06889,0.0459 -0.117093,0.1171 -0.17564,0.17564 -0.02927,0.0293 -0.05079,0.0693 -0.08782,0.0878 -0.02618,0.0131 -0.06713,-0.0206 -0.08782,0 -0.0207,0.0207 0.01309,0.0617 0,0.0878 -0.01851,0.037 -0.05854,0.0586 -0.08782,0.0878 -0.02927,0.0293 -0.05079,0.0693 -0.08782,0.0878 -0.02618,0.013 -0.06713,-0.0207 -0.08782,0 -0.0207,0.0207 0.0207,0.0671 0,0.0878 -0.0207,0.0207 -0.06712,-0.0207 -0.08782,0 -0.0207,0.0207 0,0.0586 0,0.0878 -0.02927,0 -0.06163,-0.0131 -0.08782,0 -0.365485,0.18274 0.09388,-0.006 -0.08782,0.17564 -0.0414,0.0414 -0.134242,-0.0414 -0.17564,0 -0.0207,0.0207 0.01309,0.0617 0,0.0878 -0.182744,0.36549 0.0061,-0.0939 -0.175641,0.0878 -0.0207,0.0207 0.0207,0.0671 0,0.0878 -0.0207,0.0207 -0.06712,-0.0206 -0.08782,0 -0.0207,0.0207 0.0207,0.0671 0,0.0878 -0.0207,0.0206 -0.06712,-0.0208 -0.08782,0 -0.0207,0.0206 0.0207,0.0671 0,0.0878 -0.0207,0.0207 -0.06712,-0.0207 -0.08781,0 -0.0207,0.0207 0.0207,0.0671 0,0.0878 -0.0207,0.0207 -0.06713,-0.0207 -0.08782,0 -0.176199,0.17621 0.1762,-5.7e-4 0,0.17565 -0.0207,0.0207 -0.06713,-0.0207 -0.08782,0 -0.0207,0.0207 0.0207,0.0671 0,0.0878 -0.0207,0.0207 -0.06713,-0.0206 -0.08782,0 -0.0207,0.0207 0.0207,0.0671 0,0.0878 -0.0207,0.0207 -0.06713,-0.0206 -0.08782,0 -0.0207,0.0207 0.0131,0.0617 0,0.0878 -0.01851,0.037 -0.0693,0.0508 -0.08782,0.0878 -0.01309,0.0262 0.0207,0.0671 0,0.0878 -0.0207,0.0206 -0.06713,-0.0207 -0.08783,0 -0.0207,0.0206 0.0207,0.0671 0,0.0878 -0.0207,0.0206 -0.06712,-0.0208 -0.08782,0 -0.0207,0.0206 0.0207,0.0671 0,0.0878 -0.0207,0.0208 -0.06712,-0.0206 -0.08782,0 -0.0207,0.0208 0.0207,0.0671 0,0.0878 -0.0207,0.0207 -0.06712,-0.0206 -0.08782,0 -0.181703,0.18171 0.277666,-0.008 -0.08782,0.17564 -0.02618,0.0131 -0.06712,-0.0207 -0.08782,0 -0.181704,0.18171 0.277666,-0.008 -0.08782,0.17565 -0.02618,0.013 -0.06713,-0.0207 -0.08782,0 -0.0414,0.0414 0.0414,0.13424 0,0.17564 -0.0207,0.0207 -0.06713,-0.0207 -0.08783,0 -0.0207,0.0207 0.0207,0.0671 0,0.0878 -0.0207,0.0207 -0.07473,-0.0262 -0.08781,0 -0.02618,0.0524 0.02618,0.12328 0,0.17565 -0.0131,0.0262 -0.06713,-0.0207 -0.08782,0 0,0.23419 0.02927,-0.0293 -0.08783,0.0878 -0.11689,0.1169 0.116891,0.0588 0,0.17565 -0.0207,0.0206 -0.06712,-0.0207 -0.08782,0 -0.0207,0.0206 0,0.0586 0,0.0878 -0.02927,0 -0.06712,-0.0207 -0.08782,0 -0.0207,0.0207 0.0207,0.0671 0,0.0878 -0.0207,0.0207 -0.06712,-0.0207 -0.08783,0 -0.0207,0.0207 0.01309,0.0617 0,0.0878 -0.01851,0.037 -0.0693,0.0508 -0.08782,0.0878 -0.01309,0.0262 0.0131,0.0617 0,0.0878 -0.03703,0.0741 -0.138612,0.10158 -0.17564,0.17564 -0.02618,0.0524 0.0414,0.13424 0,0.17564 -0.181702,0.1817 0.0071,-0.27767 -0.175639,0.0878 -0.02618,0.0524 0.0414,0.13424 0,0.17564 -0.0207,0.0207 -0.06713,-0.0206 -0.08783,0 -0.0207,0.0207 0.0131,0.0617 0,0.0878 -0.01851,0.037 -0.0693,0.0508 -0.08782,0.0878 -0.0131,0.0262 0.01309,0.0617 0,0.0878 -0.01851,0.037 -0.06652,0.0523 -0.08782,0.0878 -0.06736,0.11226 -0.108285,0.23902 -0.17564,0.35128 -0.0213,0.0355 -0.0693,0.0508 -0.08782,0.0878 -0.01309,0.0262 0.0207,0.0671 0,0.0878 -0.0207,0.0207 -0.06712,-0.0207 -0.08782,0 -0.0207,0.0207 0.01309,0.0617 0,0.0878 -0.01851,0.037 -0.0693,0.0508 -0.08782,0.0878 -0.01309,0.0262 0.01309,0.0617 0,0.0878 -0.01851,0.037 -0.0693,0.0508 -0.08782,0.0878 -0.01309,0.0262 0,0.0586 0,0.0878 -0.02927,0.0293 -0.06485,0.0534 -0.08782,0.0878 -0.0109,0.0163 -0.170013,0.34565 -0.17564,0.35129 -0.0207,0.0207 -0.06712,-0.0207 -0.08782,0 -0.0207,0.0207 0.01309,0.0617 0,0.0878 -0.01851,0.037 -0.0693,0.0508 -0.08782,0.0878 -0.01309,0.0262 0.0207,0.0671 0,0.0878 -0.0207,0.0207 -0.06713,-0.0206 -0.08782,0 -0.0207,0.0207 0.01309,0.0617 0,0.0878 -0.03703,0.0741 -0.129713,0.10675 -0.17564,0.17564 -0.03631,0.0544 -0.05151,0.12118 -0.08782,0.17564 -0.112304,0.16845 -0.06334,0.008 -0.17564,0.17564 -0.03631,0.0545 -0.06713,0.11354 -0.08783,0.17564 -0.01851,0.0556 0.0414,0.13424 0,0.17565 -0.0207,0.0207 -0.06163,-0.0131 -0.08782,0 -0.194174,0.0971 -0.02725,0.0545 -0.08782,0.17563 -0.01851,0.037 -0.06485,0.0534 -0.08783,0.0878 -0.0363,0.0545 -0.05151,0.12117 -0.08782,0.17564 -0.04593,0.0689 -0.138612,0.10158 -0.175639,0.17564 -0.01309,0.0262 0.0131,0.0617 0,0.0878 -0.01851,0.037 -0.0693,0.0508 -0.08782,0.0879 -0.0131,0.0262 0.0207,0.0671 0,0.0878 -0.0207,0.0207 -0.06712,-0.0207 -0.08782,0 -0.0207,0.0207 0.0131,0.0617 0,0.0878 -0.03703,0.0741 -0.138612,0.10158 -0.17564,0.17564 -0.01309,0.0262 0.0131,0.0617 0,0.0878 -0.01851,0.037 -0.0693,0.0508 -0.08782,0.0878 -0.0131,0.0262 0.0131,0.0617 0,0.0879 -0.01851,0.037 -0.0693,0.0508 -0.08782,0.0878 -0.0131,0.0262 0.0207,0.0671 0,0.0878 -0.0207,0.0207 -0.06713,-0.0206 -0.08782,0 -0.0414,0.0414 0.0414,0.13425 0,0.17564 -0.0207,0.0207 -0.06713,-0.0206 -0.08782,0 -0.0207,0.0207 0.0093,0.0601 0,0.0878 -0.02927,0.0586 -0.05854,0.11709 -0.08782,0.17564 -0.02927,0 -0.06713,-0.0207 -0.08782,0 -0.0207,0.0207 0.0207,0.0671 0,0.0878 -0.0207,0.0207 -0.06713,-0.0206 -0.08782,0 -0.0414,0.0414 0.02618,0.12328 0,0.17564 -0.01851,0.037 -0.0693,0.0508 -0.08782,0.0878 -0.01309,0.0262 0.0207,0.0671 0,0.0878 -0.0207,0.0206 -0.06712,-0.0207 -0.08782,0 -0.0207,0.0206 0.01309,0.0617 0,0.0878 -0.01851,0.037 -0.06485,0.0534 -0.08782,0.0878 -0.03631,0.0545 -0.05151,0.12117 -0.08782,0.17563 -0.04593,0.0689 -0.138611,0.10159 -0.17564,0.17564 -0.108148,0.2163 0.254919,-0.0792 -0.08782,0.26347 -0.0207,0.0206 -0.06712,-0.0207 -0.08782,0 -0.0207,0.0206 0.01309,0.0617 0,0.0878 -0.04769,0.0954 -0.127949,0.0803 -0.17564,0.17565 -0.01309,0.0262 0.01309,0.0617 0,0.0878 -0.01851,0.037 -0.0693,0.0508 -0.08782,0.0878 -0.01309,0.0262 0,0.0586 0,0.0878 -0.02927,0.0293 -0.0693,0.0508 -0.08782,0.0878 -0.0131,0.0262 0.01309,0.0617 0,0.0878 -0.03703,0.0741 -0.149457,0.0971 -0.17564,0.17564 -0.01851,0.0556 0.02618,0.12327 0,0.17564 -0.01309,0.0262 -0.06712,-0.0206 -0.08782,0 -0.0414,0.0414 0.02618,0.12327 0,0.17564 -0.01851,0.037 -0.0693,0.0508 -0.08781,0.0878 -0.01309,0.0262 0.01309,0.0617 0,0.0879 -0.01851,0.037 -0.07473,0.0485 -0.08782,0.0878 -0.01851,0.0556 0.01851,0.1201 0,0.17564 -0.01309,0.0392 -0.0693,0.0508 -0.08782,0.0878 -0.01309,0.0262 0.01309,0.0617 0,0.0878 -0.190766,0.38153 0.01512,-0.20589 -0.175641,0.17564 -0.01309,0.0262 0.0093,0.0601 0,0.0878 -0.0207,0.062 -0.06712,0.11354 -0.08782,0.17564 -0.0093,0.0278 0.0093,0.0601 0,0.0878 -0.0207,0.062 -0.06712,0.11355 -0.08782,0.17564 -0.0093,0.0278 0.01309,0.0617 0,0.0878 -0.01851,0.037 -0.0693,0.0508 -0.08782,0.0878 -0.02618,0.0524 0.0414,0.13424 0,0.17564 -0.0207,0.0207 -0.06712,-0.0207 -0.08782,0 -0.0414,0.0414 0.02618,0.12327 0,0.17564 -0.200959,0.40191 0.0364,-0.37266 -0.175641,0.26346 -0.01851,0.0556 0.02618,0.12327 0,0.17564 -0.01851,0.037 -0.0693,0.0508 -0.08782,0.0878 -0.02618,0.0524 0.02618,0.12328 0,0.17565 -0.01851,0.037 -0.0693,0.0508 -0.08781,0.0878 -0.02618,0.0524 0.0414,0.13424 0,0.17565 -0.0207,0.0206 -0.06713,-0.0207 -0.08782,0 -0.0414,0.0414 0.0414,0.13424 0,0.17563 -0.0207,0.0206 -0.06713,-0.0207 -0.08782,0 -0.04391,0.0439 0.04391,0.21956 0,0.26346 -0.0207,0.0207 -0.06713,-0.0206 -0.08782,0 -0.0414,0.0414 0.0414,0.13424 0,0.17565 -0.0207,0.0206 -0.06713,-0.0207 -0.08782,0 -0.0207,0.0206 0,0.0586 0,0.0878 0,0.0293 0,0.0586 0,0.0878 0,0.23419 0.02927,-0.0293 -0.08782,0.0878 -0.175336,0.17533 0.175336,2.4e-4 0,0.17564 -0.0207,0.0207 -0.06713,-0.0206 -0.08782,0 -0.02113,0.0211 0.02113,0.33014 0,0.35128 -0.0207,0.0207 -0.06713,-0.0206 -0.08782,0 -0.0207,0.0207 0,0.0586 0,0.0878 0,0.0213 0.0028,0.26063 0,0.26346 -0.0207,0.0207 -0.05854,0 -0.08782,0"
         style="fill:none;stroke:#fffff9;stroke-width:4.76249994;stroke-linecap:round;stroke-linejoin:round;stroke-miterlimit:4;stroke-dasharray:1.19062499,1.19062499;stroke-dashoffset:0;stroke-opacity:1;paint-order:stroke fill markers" />
      <path
         inkscape:export-filename="D:\PG\git-tempworkspace\素材\close.png"
         inkscape:export-ydpi="96"
         inkscape:export-xdpi="96"
         inkscape:connector-curvature="0"
         id="path875"
         d="m 18.165348,169.09684 c 0.08782,0.11709 0.17564,0.23419 0.26346,0.35127 0.02927,0 0.06713,-0.0207 0.08782,0 0.0207,0.0207 -0.0207,0.0671 0,0.0878 0.0207,0.0207 0.06712,-0.0206 0.08782,0 0.0414,0.0414 -0.0414,0.13424 0,0.17564 0.0207,0.0207 0.06712,-0.0207 0.08782,0 0.0414,0.0414 -0.0414,0.13424 0,0.17564 0.0207,0.0207 0.06712,-0.0206 0.08782,0 0.0414,0.0414 -0.0414,0.13424 0,0.17564 0.0207,0.0207 0.06712,-0.0207 0.08782,0 0.0414,0.0414 -0.0414,0.13425 0,0.17564 0.0207,0.0206 0.06712,-0.0207 0.08781,0 0.0414,0.0414 -0.02618,0.12327 0,0.17564 0.01851,0.037 0.0693,0.0508 0.08782,0.0878 0.01309,0.0262 -0.0207,0.0671 0,0.0878 0.0207,0.0206 0.06713,-0.0207 0.08782,0 0.0414,0.0414 -0.0414,0.13423 0,0.17564 0.0207,0.0207 0.06713,-0.0207 0.08782,0 0.04391,0.0439 -0.04391,0.21955 0,0.26345 0.0207,0.0207 0.06713,-0.0206 0.08782,0 0.0414,0.0414 -0.0414,0.13424 0,0.17564 0.0207,0.0207 0.06713,-0.0207 0.08782,0 0.0414,0.0414 -0.02618,0.12328 0,0.17565 0.01851,0.037 0.0693,0.0508 0.08782,0.0878 0.01309,0.0262 -0.01309,0.0617 0,0.0878 0.01851,0.037 0.0693,0.0508 0.08782,0.0878 0.01741,0.0348 -0.01795,0.24551 0,0.26347 0.0207,0.0206 0.06713,-0.0207 0.08782,0 0.0414,0.0414 -0.0414,0.13424 0,0.17563 0.0207,0.0207 0.06713,-0.0206 0.08782,0 0.0414,0.0414 -0.0414,0.13425 0,0.17564 0.0207,0.0206 0.06713,-0.0207 0.08782,0 0.0414,0.0414 -0.0414,0.13424 0,0.17564 0.0207,0.0207 0.06713,-0.0207 0.08783,0 0.01795,0.0179 -0.01741,0.22865 0,0.26346 0.01851,0.037 0.0693,0.0508 0.08782,0.0878 0.02618,0.0524 -0.0414,0.13424 0,0.17564 0.0207,0.0207 0.06713,-0.0207 0.08782,0 0.0414,0.0414 -0.02618,0.12327 0,0.17564 0.01851,0.037 0.0693,0.0508 0.08782,0.0878 0.01309,0.0262 -0.01309,0.0617 0,0.0878 0.01851,0.0371 0.0693,0.0508 0.08782,0.0878 0.02618,0.0524 -0.02618,0.12327 0,0.17564 0.01851,0.037 0.0693,0.0508 0.08782,0.0878 0.02618,0.0524 -0.0414,0.13424 0,0.17565 0.0207,0.0206 0.06713,-0.0207 0.08782,0 0.04391,0.0439 -0.04391,0.21955 0,0.26345 0.0207,0.0207 0.06713,-0.0207 0.08782,0 0.01795,0.0179 -0.01741,0.22865 0,0.26347 0.01851,0.037 0.0693,0.0508 0.08782,0.0878 0.01741,0.0348 -0.01795,0.24551 0,0.26346 0.0207,0.0207 0.06712,-0.0207 0.08782,0 0.04391,0.0439 -0.04391,0.21955 0,0.26346 0.0207,0.0207 0.06712,-0.0206 0.08783,0 0.02113,0.0211 -0.02113,0.33015 0,0.35127 0.0207,0.0208 0.06712,-0.0206 0.08782,0 0.0414,0.0414 -0.0414,0.13425 0,0.17565 0.0207,0.0206 0.06712,-0.0207 0.08782,0 0.04391,0.0439 -0.04391,0.21955 0,0.26346 0.0207,0.0207 0.06712,-0.0206 0.08782,0 0.0207,0.0207 -0.0131,0.0617 0,0.0878 0.01851,0.037 0.0693,0.0508 0.08782,0.0878 0.01309,0.0262 -0.0093,0.0601 0,0.0878 0.0207,0.0622 0.06712,0.11354 0.08782,0.17564 0.0093,0.0278 -0.0207,0.0671 0,0.0878 0.0207,0.0207 0.06712,-0.0207 0.08782,0 0.0207,0.0207 -0.0131,0.0617 0,0.0878 0.01851,0.037 0.0693,0.0508 0.08782,0.0878 0.02618,0.0524 -0.0414,0.13424 0,0.17565 0.0207,0.0207 0.06712,-0.0207 0.08782,0 0.0414,0.0414 -0.0414,0.13424 0,0.17564 0.0207,0.0207 0.06712,-0.0207 0.08782,0 0.0414,0.0414 -0.02618,0.12327 0,0.17564 0.291263,0.29125 -0.0414,-0.0828 0.08782,0.17564 0.01851,0.037 0.0693,0.0508 0.08782,0.0878 0.01309,0.0262 0,0.0586 0,0.0878 0.02927,0.0293 0.0693,0.0508 0.08782,0.0878 0.02618,0.0524 -0.0414,0.13424 0,0.17565 0.0207,0.0206 0.06713,-0.0207 0.08782,0 0.0207,0.0206 -0.0131,0.0617 0,0.0878 0.01851,0.037 0.0693,0.0508 0.08782,0.0878 0.02618,0.0524 -0.0414,0.13424 0,0.17563 0.0207,0.0207 0.06713,-0.0206 0.08782,0 0.0414,0.0414 -0.0414,0.13425 0,0.17565 0.0207,0.0207 0.06713,-0.0207 0.08782,0 0.0414,0.0414 -0.0414,0.13424 0,0.17564 0.0207,0.0206 0.06713,-0.0207 0.08782,0 0.0207,0.0206 -0.01309,0.0617 0,0.0878 0.01851,0.037 0.0693,0.0508 0.08782,0.0878 0.01309,0.0262 -0.0131,0.0617 0,0.0878 0.03703,0.0741 0.138612,0.10158 0.17564,0.17563 0.0131,0.0262 -0.01309,0.0617 0,0.0878 0.05269,0.10538 0.210769,0.15808 0.26346,0.26346 0.01309,0.0262 -0.0207,0.0671 0,0.0878 0.0207,0.0206 0.06713,-0.0208 0.08782,0 0.0414,0.0414 -0.0414,0.13424 0,0.17563 0.0207,0.0207 0.06713,-0.0206 0.08782,0 0.0207,0.0207 -0.0207,0.0671 0,0.0878 0.0207,0.0207 0.06713,-0.0207 0.08783,0 0.0414,0.0414 -0.0414,0.13424 0,0.17564 0.0207,0.0207 0.06712,-0.0206 0.08782,0 0.0207,0.0207 0,0.0586 0,0.0878 0.02927,0 0.06712,-0.0207 0.08782,0 0.05844,0.0585 -0.05845,0.1172 0,0.17564 0.0207,0.0208 0.06712,-0.0207 0.08782,0 0.0207,0.0208 -0.01309,0.0617 0,0.0878 0.01851,0.037 0.0693,0.0508 0.08782,0.0878 0.01309,0.0262 -0.0207,0.0671 0,0.0878 0.0207,0.0207 0.06713,-0.0207 0.08783,0 0.0207,0.0207 -0.01309,0.0617 0,0.0878 0.03117,0.0623 0.144469,0.1133 0.175639,0.17564 0.01309,0.0262 -0.0207,0.0671 0,0.0878 0.0207,0.0208 0.06713,-0.0206 0.08782,0 0.0207,0.0208 -0.0207,0.0671 0,0.0878 0.0207,0.0207 0.05854,0 0.08782,0 0,0.0293 -0.0207,0.0671 0,0.0878 0.0207,0.0207 0.06713,-0.0207 0.08782,0 0.0207,0.0207 -0.0207,0.0671 0,0.0878 0.0207,0.0207 0.06713,-0.0207 0.08783,0 0.0414,0.0414 -0.0414,0.13425 0,0.17564 0.0207,0.0206 0.05854,0 0.08782,0 0,0.0293 -0.0207,0.0671 0,0.0878 0.0207,0.0207 0.06713,-0.0207 0.08782,0 0.181703,0.18169 -0.277665,-0.008 0.08783,0.17564 0.02618,0.013 0.06711,-0.0207 0.08782,0 0.0414,0.0414 -0.0414,0.13424 0,0.17563 0.0207,0.0207 0.06712,-0.0206 0.08781,0 0.0207,0.0207 -0.0207,0.0671 0,0.0878 0.0207,0.0207 0.06713,-0.0207 0.08783,0 0.0207,0.0207 -0.0207,0.0671 0,0.0878 0.0207,0.0206 0.06712,-0.0207 0.08782,0 0.0207,0.0206 -0.0207,0.0671 0,0.0878 0.0207,0.0207 0.06712,-0.0207 0.08782,0 0.0207,0.0207 -0.01309,0.0617 0,0.0878 0.01851,0.037 0.0693,0.0508 0.08782,0.0878 0.01309,0.0262 -0.0207,0.0671 0,0.0878 0.0207,0.0207 0.06713,-0.0207 0.08782,0 0.0207,0.0207 -0.0207,0.0671 0,0.0878 0.0207,0.0207 0.06713,-0.0207 0.08782,0 0.0207,0.0207 -0.0207,0.0671 0,0.0878 0.0207,0.0207 0.06712,-0.0207 0.08782,0 0.0207,0.0207 -0.0131,0.0617 0,0.0878 0.01851,0.037 0.0693,0.0508 0.08782,0.0878 0.0131,0.0262 -0.0207,0.0671 0,0.0878 0.0207,0.0207 0.06713,-0.0207 0.08782,0 0.0207,0.0207 -0.0207,0.0671 0,0.0878 0.0207,0.0206 0.06713,-0.0207 0.08783,0 0.0207,0.0206 -0.0207,0.0671 0,0.0878 0.0207,0.0208 0.06713,-0.0207 0.08782,0 0.0207,0.0208 -0.0207,0.0671 0,0.0878 0.0207,0.0207 0.06712,-0.0207 0.08782,0 0.181703,0.1817 -0.277665,-0.008 0.08782,0.17564 0.02618,0.013 0.06713,-0.0207 0.08782,0 0.181703,0.1817 -0.277665,-0.008 0.08782,0.17564 0.02618,0.013 0.06713,-0.0207 0.08783,0 0.0207,0.0206 0,0.0586 0,0.0878 0.02927,0 0.06712,-0.0208 0.08782,0 0.0207,0.0206 -0.0207,0.0671 0,0.0878 0.0207,0.0207 0.06712,-0.0207 0.08781,0 0.0207,0.0207 -0.0207,0.0671 0,0.0879 0.0207,0.0206 0.06713,-0.0207 0.08783,0 0.181701,0.18169 -0.277667,-0.008 0.08782,0.17563 0.234187,0 -0.02927,-0.0293 0.08782,0.0878 0.181702,0.1817 -0.0071,-0.27767 0.175639,0.0878 0.0131,0.0262 -0.0207,0.0671 0,0.0878 0.0207,0.0206 0.06164,-0.0132 0.08783,0 0.105383,0.0527 0.158076,0.21076 0.263458,0.26345 0.02618,0.0131 0.06712,-0.0206 0.08782,0 0.0207,0.0208 -0.01309,0.0617 0,0.0878 0.01851,0.037 0.05854,0.0586 0.08782,0.0878 0.02927,0.0293 0.05079,0.0693 0.08782,0.0878 0.02618,0.0131 0.06713,-0.0207 0.08782,0 0.0207,0.0207 -0.0207,0.0671 0,0.0878 0.0207,0.0206 0.06713,-0.0207 0.08782,0 0.0207,0.0206 -0.0207,0.0671 0,0.0878 0.0207,0.0207 0.06713,-0.0207 0.08782,0 0.0207,0.0207 -0.0207,0.0671 0,0.0878 0.0207,0.0207 0.06713,-0.0207 0.08782,0 0.0207,0.0207 -0.0207,0.0671 0,0.0878 0.0207,0.0208 0.06713,-0.0206 0.08782,0 0.181703,0.18171 -0.277666,-0.008 0.08782,0.17564 0.02618,0.013 0.06164,-0.0131 0.08783,0 0.09352,0.0468 0.08213,0.12888 0.175639,0.17564 0.02618,0.013 0.06712,-0.0207 0.08782,0 0.181703,0.1817 -0.277666,-0.008 0.08782,0.17564 0.02618,0.013 0.06713,-0.0207 0.08782,0 0.181703,0.1817 -0.277666,-0.008 0.08782,0.17564 0.02618,0.0131 0.06713,-0.0207 0.08782,0 0.0207,0.0206 -0.0207,0.0671 0,0.0878 0.0207,0.0207 0.06713,-0.0207 0.08783,0 0.0207,0.0207 -0.0207,0.0671 0,0.0878 0.0207,0.0207 0.06163,-0.0131 0.08782,0 0.07405,0.037 0.101584,0.13862 0.17564,0.17564 0.02618,0.013 0.06712,-0.0207 0.08783,0 0.0207,0.0207 -0.0207,0.0671 0,0.0878 0.0207,0.0207 0.06711,-0.0207 0.08782,0 0.0207,0.0207 -0.0207,0.0671 0,0.0878 0.0207,0.0208 0.06712,-0.0206 0.08782,0 0.0207,0.0208 -0.0207,0.0671 0,0.0878 0.0207,0.0206 0.06163,-0.013 0.08782,0 0.105384,0.0527 0.158076,0.21076 0.26346,0.26346 0.02618,0.013 0.06712,-0.0207 0.08782,0 0.0207,0.0206 -0.0207,0.0671 0,0.0878 0.0207,0.0207 0.06712,-0.0207 0.08782,0 0.0207,0.0207 -0.0207,0.0671 0,0.0878 0.05845,0.0585 0.117194,-0.0585 0.175639,0 0,0.23419 -0.02927,-0.0293 0.08782,0.0878 0.0207,0.0207 -0.0207,0.0671 0,0.0879 0.0207,0.0207 0.06713,-0.0207 0.08782,0 0.0207,0.0207 -0.0207,0.0671 0,0.0878 0.0207,0.0207 0.06163,-0.013 0.08782,0 0.03703,0.0185 0.05079,0.0693 0.08782,0.0878 0.02618,0.013 0.06712,-0.0207 0.08782,0 0.0207,0.0206 -0.0207,0.0671 0,0.0878 0.0207,0.0207 0.06164,-0.013 0.08782,0 0.03703,0.0185 0.05079,0.0693 0.08782,0.0878 0.02618,0.013 0.06163,-0.013 0.08782,0 0.0926,0.0463 0.08304,0.12934 0.17564,0.17564 0.02618,0.0131 0.06711,-0.0207 0.08782,0 0.0207,0.0207 -0.0207,0.0671 0,0.0879 0.0207,0.0207 0.06164,-0.0131 0.08782,0 0.03703,0.0185 0.05079,0.0693 0.08782,0.0878 0.02618,0.013 0.06164,-0.013 0.08782,0 0.03703,0.0185 0.05079,0.0693 0.08782,0.0878 0.02618,0.0131 0.06712,-0.0207 0.08782,0 0.0207,0.0206 -0.0207,0.0671 0,0.0878 0.0414,0.0414 0.13424,-0.0414 0.175639,0 0.0207,0.0207 -0.0207,0.0671 0,0.0878 0.0414,0.0414 0.134242,-0.0414 0.17564,0 0.0207,0.0207 -0.0207,0.0671 0,0.0878 0.0414,0.0414 0.134241,-0.0414 0.175641,0 0.0207,0.0207 -0.0207,0.0671 0,0.0878 0.0207,0.0208 0.06163,-0.013 0.08782,0 0.03703,0.0185 0.05079,0.0693 0.08781,0.0879 0.02618,0.013 0.06713,-0.0207 0.08782,0 0.0207,0.0207 -0.0207,0.0671 0,0.0878 0.04391,0.0439 0.219551,-0.0439 0.26346,0 0.0207,0.0207 -0.0207,0.0671 0,0.0878 0.0207,0.0207 0.06163,-0.013 0.08782,0 0.03703,0.0185 0.05079,0.0693 0.08782,0.0878 0.05237,0.0262 0.134242,-0.0414 0.175641,0 0.0207,0.0206 -0.0207,0.0671 0,0.0878 0.0207,0.0206 0.06163,-0.013 0.08781,0 0.03703,0.0185 0.05079,0.0693 0.08782,0.0878 0.05237,0.0262 0.134241,-0.0414 0.175641,0 0.0207,0.0207 -0.0207,0.0671 0,0.0878 0.0414,0.0414 0.13424,-0.0414 0.175639,0 0.0207,0.0207 -0.0207,0.0671 0,0.0878 0.0414,0.0414 0.134241,-0.0414 0.17564,0 0.0207,0.0207 -0.0207,0.0671 0,0.0878 0.0414,0.0414 0.134241,-0.0414 0.17564,0 0.0207,0.0207 -0.0207,0.0671 0,0.0878 0.0414,0.0414 0.134241,-0.0414 0.17564,0 0.0207,0.0207 -0.0207,0.0671 0,0.0878 0.04391,0.0439 0.21955,-0.0439 0.26346,0 0.0207,0.0206 -0.0207,0.0671 0,0.0878 0.0414,0.0414 0.123275,-0.0262 0.17564,0 0.03703,0.0185 0.05079,0.0693 0.08782,0.0878 0.05237,0.0262 0.134242,-0.0414 0.175641,0 0.0207,0.0207 -0.0207,0.0671 0,0.0878 0.0414,0.0414 0.13424,-0.0414 0.17564,0 0.0207,0.0207 -0.0207,0.0671 0,0.0878 0.04391,0.0439 0.219549,-0.0439 0.26346,0 0.0207,0.0206 -0.0207,0.0671 0,0.0878 0.0414,0.0414 0.134241,-0.0414 0.175639,0 0.0207,0.0208 -0.0207,0.0671 0,0.0878 0.0414,0.0414 0.134242,-0.0414 0.17564,0 0.0207,0.0206 -0.0207,0.0671 0,0.0878 0.04391,0.0439 0.219551,-0.0439 0.26346,0 0.0207,0.0207 -0.0207,0.0671 0,0.0878 0.04391,0.0439 0.219551,-0.0439 0.26346,0 0.0207,0.0207 -0.0207,0.0671 0,0.0878 0.0414,0.0414 0.134241,-0.0414 0.175641,0 0.0207,0.0207 -0.0207,0.0671 0,0.0878 0.02113,0.0211 0.330147,-0.0211 0.351279,0 0.0207,0.0206 -0.0207,0.0671 0,0.0878 0.0414,0.0414 0.134241,-0.0414 0.175641,0 0.0207,0.0206 -0.0207,0.0671 0,0.0878 0.01795,0.0179 0.228639,-0.0174 0.26346,0 0.03703,0.0185 0.05079,0.0693 0.08782,0.0879 0.03482,0.0174 0.245506,-0.0179 0.26346,0 0.0207,0.0206 -0.0207,0.0671 0,0.0878 0.01795,0.0179 0.228639,-0.0174 0.263459,0 0.03703,0.0185 0.05079,0.0693 0.08783,0.0878 0.07026,0.0351 0.193202,-0.0351 0.26346,0 0.03703,0.0185 0.04855,0.0747 0.08782,0.0878 0.04995,0.0166 0.356389,0 0.439101,0 0.02927,0 0.06713,-0.0207 0.08782,0 0.02069,0.0206 -0.02069,0.0671 0,0.0878 0.02069,0.0207 0.05854,0 0.08782,0 0.146367,0 0.292736,0 0.4391,0 0.02927,0 0.06712,-0.0207 0.08782,0 0.02069,0.0207 -0.02069,0.0671 0,0.0878 0.02114,0.0211 0.330148,-0.0211 0.351282,0 0.02069,0.0207 -0.02069,0.0671 0,0.0878 0.0039,0.004 0.397693,0 0.4391,0"
         style="fill:none;stroke:#fffff9;stroke-width:4.76249994;stroke-linecap:round;stroke-linejoin:round;stroke-miterlimit:4;stroke-dasharray:1.19062499,1.19062499;stroke-dashoffset:0;stroke-opacity:1;paint-order:stroke fill markers" />
    </g>
    <path
       inkscape:connector-curvature="0"
       style="fill:#ffffff;fill-opacity:1;stroke:none;stroke-width:0.25903612;stroke-miterlimit:4;stroke-dasharray:none;stroke-opacity:1;paint-order:fill markers stroke"
       d="m 67.997922,164.44377 a 14.81667,14.81667 0 0 0 -1.186045,0.0538 l -1.056711,4.23954 -3.167448,-3.26783 a 14.81667,14.81667 0 0 0 -2.792143,1.46412 l 1.29185,4.50451 -4.711602,-1.34158 a 14.81667,14.81667 0 0 0 -1.601582,2.51767 l 3.620966,3.49662 -5.080114,1.27693 a 14.81667,14.81667 0 0 0 -0.133843,1.87287 14.81667,14.81667 0 0 0 0.03346,0.95002 l 5.185921,1.29274 -3.91397,3.79325 a 14.81667,14.81667 0 0 0 1.342037,2.38654 l 5.272744,-1.51205 -1.506628,5.29037 a 14.81667,14.81667 0 0 0 2.388356,1.32758 l 3.790982,-3.92573 1.298632,5.16738 a 14.81667,14.81667 0 0 0 0.925137,0.0465 14.81667,14.81667 0 0 0 1.903178,-0.14108 l 1.265618,-5.0783 3.513353,3.62458 a 14.81667,14.81667 0 0 0 2.509081,-1.60204 l -1.354693,-4.72335 4.506767,1.28325 a 14.81667,14.81667 0 0 0 1.447845,-2.8057 l -3.262403,-3.15026 4.229593,-1.06305 a 14.81667,14.81667 0 0 0 0.05836,-1.16072 14.81667,14.81667 0 0 0 -0.170022,-2.14102 l -4.123324,-1.02778 2.978894,-2.8871 a 14.81667,14.81667 0 0 0 -1.724573,-2.91513 l -3.955123,1.13449 1.124997,-3.95014 a 14.81667,14.81667 0 0 0 -2.911065,-1.73136 l -2.886651,2.98929 -1.035012,-4.11791 a 14.81667,14.81667 0 0 0 -2.114796,-0.17001 z m 0.463015,7.87135 a 6.4822926,6.4822926 0 0 1 6.482299,6.4823 6.4822926,6.4822926 0 0 1 -6.482299,6.48229 6.4822926,6.4822926 0 0 1 -6.482289,-6.48229 6.4822926,6.4822926 0 0 1 6.482289,-6.4823 z"
       id="path815"
       inkscape:export-xdpi="96"
       inkscape:export-ydpi="96" />
    <g
       id="g860"
       transform="matrix(1.2258065,0,0,1.2258065,-44.498889,-86.69918)">
      <rect
         ry="2.1166666"
         rx="2.1166666"
         y="239.98228"
         x="90.137016"
         height="11.377083"
         width="5.953125"
         id="rect828"
         style="fill:#ffffff;fill-opacity:1;stroke:#ffffff;stroke-width:2.64583325;stroke-linecap:round;stroke-linejoin:round;stroke-miterlimit:4;stroke-dasharray:none;stroke-opacity:1;paint-order:fill markers stroke" />
      <path
         d="m 100.61688,252.16218 a 10.583333,10.583333 0 0 1 -7.483549,3.09979 10.583333,10.583333 0 0 1 -7.483546,-3.09979"
         sodipodi:open="true"
         sodipodi:end="2.3561945"
         sodipodi:start="0.78539816"
         sodipodi:ry="10.583333"
         sodipodi:rx="10.583333"
         sodipodi:cy="244.67863"
         sodipodi:cx="93.133331"
         sodipodi:type="arc"
         id="path844"
         style="fill:none;fill-opacity:1;stroke:#ffffff;stroke-width:2.11666656;stroke-linecap:round;stroke-linejoin:round;stroke-miterlimit:4;stroke-dasharray:none;stroke-opacity:1;paint-order:fill markers stroke" />
      <rect
         ry="1.5875001"
         rx="1.5875001"
         y="255.19582"
         x="91.327637"
         height="7.0114584"
         width="3.3072915"
         id="rect852"
         style="fill:#ffffff;fill-opacity:1;stroke:#ffffff;stroke-width:2.11666656;stroke-linecap:round;stroke-linejoin:round;stroke-miterlimit:4;stroke-dasharray:none;stroke-opacity:1;paint-order:fill markers stroke" />
    </g>
    <g
       id="g875"
       transform="translate(-17.727083,-10.054167)">
      <ellipse
         ry="11.72775"
         rx="11.727751"
         cy="270.01248"
         cx="86.518745"
         id="path820"
         style="fill:none;fill-opacity:1;stroke:#ffffff;stroke-width:2.64583325;stroke-linecap:round;stroke-linejoin:round;stroke-miterlimit:4;stroke-dasharray:none;stroke-opacity:1;paint-order:fill markers stroke" />
      <ellipse
         ry="3.1750002"
         rx="3.175"
         cy="266.16589"
         cx="86.39727"
         id="path822"
         style="fill:#ffffff;fill-opacity:1;stroke:#ffffff;stroke-width:2.11666656;stroke-linecap:round;stroke-linejoin:round;stroke-miterlimit:4;stroke-dasharray:none;stroke-opacity:1;paint-order:fill markers stroke" />
      <path
         d="m 77.498801,277.39773 a 10.422268,9.5074005 0 0 1 9.025948,-4.7537 10.422268,9.5074005 0 0 1 9.025949,4.7537"
         sodipodi:open="true"
         sodipodi:end="5.7595865"
         sodipodi:start="3.6651914"
         sodipodi:ry="9.5074005"
         sodipodi:rx="10.422268"
         sodipodi:cy="282.15143"
         sodipodi:cx="86.52475"
         sodipodi:type="arc"
         id="path834"
         style="fill:#ffffff;fill-opacity:1;stroke:#ffffff;stroke-width:2.02890801;stroke-linecap:round;stroke-linejoin:round;stroke-miterlimit:4;stroke-dasharray:none;stroke-opacity:1;paint-order:fill markers stroke" />
    </g>
    <g
       id="g885"
       transform="translate(1.984375)"
       inkscape:export-filename="D:\PG\git-tempworkspace\Game Platform\Assets\Resources\Images\Icons\disconnect.png"
       inkscape:export-xdpi="96"
       inkscape:export-ydpi="96">
      <path
         inkscape:connector-curvature="0"
         id="path831"
         d="M 92.354655,179.21536 H 98.34149"
         style="fill:none;stroke:#ffffff;stroke-width:2.11666656;stroke-linecap:round;stroke-linejoin:miter;stroke-miterlimit:4;stroke-dasharray:none;stroke-opacity:1" />
      <rect
         ry="0.79336578"
         y="175.33139"
         x="97.434883"
         height="7.5957227"
         width="5.3506579"
         id="rect833"
         style="fill:#ffffff;fill-opacity:1;stroke:#ffffff;stroke-width:0.60407978;stroke-linecap:round;stroke-linejoin:round;stroke-miterlimit:4;stroke-dasharray:none;stroke-dashoffset:0;stroke-opacity:1;paint-order:stroke fill markers" />
      <path
         inkscape:connector-curvature="0"
         id="path835"
         d="m 105.31622,177.4488 3.7276,3.72248"
         style="fill:none;stroke:#ffffff;stroke-width:0.71807927;stroke-linecap:butt;stroke-linejoin:miter;stroke-miterlimit:4;stroke-dasharray:none;stroke-opacity:1" />
      <path
         inkscape:connector-curvature="0"
         id="path835-8"
         d="m 109.12231,177.52681 -3.73011,3.72214"
         style="fill:none;stroke:#ffffff;stroke-width:0.70588624;stroke-linecap:butt;stroke-linejoin:miter;stroke-miterlimit:4;stroke-dasharray:none;stroke-opacity:1" />
      <path
         inkscape:connector-curvature="0"
         id="path831-9"
         d="M 121.66663,179.21536 H 115.6798"
         style="fill:none;stroke:#ffffff;stroke-width:2.11666656;stroke-linecap:round;stroke-linejoin:miter;stroke-miterlimit:4;stroke-dasharray:none;stroke-opacity:1" />
      <rect
         transform="scale(-1,1)"
         ry="0.79336578"
         y="175.33139"
         x="-116.5864"
         height="7.5957227"
         width="5.3506579"
         id="rect833-5"
         style="fill:#ffffff;fill-opacity:1;stroke:#ffffff;stroke-width:0.60407978;stroke-linecap:round;stroke-linejoin:round;stroke-miterlimit:4;stroke-dasharray:none;stroke-dashoffset:0;stroke-opacity:1;paint-order:stroke fill markers" />
    </g>
  </g>
</svg>
