<?xml version="1.0" encoding="UTF-8" standalone="no"?>
<!-- Created with Inkscape (http://www.inkscape.org/) -->

<svg
   xmlns:dc="http://purl.org/dc/elements/1.1/"
   xmlns:cc="http://creativecommons.org/ns#"
   xmlns:rdf="http://www.w3.org/1999/02/22-rdf-syntax-ns#"
   xmlns:svg="http://www.w3.org/2000/svg"
   xmlns="http://www.w3.org/2000/svg"
   xmlns:sodipodi="http://sodipodi.sourceforge.net/DTD/sodipodi-0.dtd"
   xmlns:inkscape="http://www.inkscape.org/namespaces/inkscape"
   width="512"
   height="512"
   viewBox="0 0 135.46666 135.46667"
   version="1.1"
   id="svg8"
   inkscape:version="0.92.4 (5da689c313, 2019-01-14)"
   sodipodi:docname="asd.svg"
   inkscape:export-filename="D:\PG\git-tempworkspace\素材\shutdown.png"
   inkscape:export-xdpi="96"
   inkscape:export-ydpi="96">
  <defs
     id="defs2" />
  <sodipodi:namedview
     id="base"
     pagecolor="#ffa7a7"
     bordercolor="#666666"
     borderopacity="1.0"
     inkscape:pageopacity="0"
     inkscape:pageshadow="2"
     inkscape:zoom="1"
     inkscape:cx="14.79296"
     inkscape:cy="220.87689"
     inkscape:document-units="px"
     inkscape:current-layer="layer1"
     showgrid="false"
     units="px"
     inkscape:window-width="1920"
     inkscape:window-height="1001"
     inkscape:window-x="-9"
     inkscape:window-y="-9"
     inkscape:window-maximized="1" />
  <metadata
     id="metadata5">
    <rdf:RDF>
      <cc:Work
         rdf:about="">
        <dc:format>image/svg+xml</dc:format>
        <dc:type
           rdf:resource="http://purl.org/dc/dcmitype/StillImage" />
        <dc:title></dc:title>
      </cc:Work>
    </rdf:RDF>
  </metadata>
  <g
     inkscape:label="Layer 1"
     inkscape:groupmode="layer"
     id="layer1"
     transform="translate(0,-161.53332)">
    <g
       id="g834"
       transform="matrix(0.88679712,0,0,0.88679712,-24.541694,25.734475)">
      <path
         sodipodi:open="true"
         d="m 63.345147,252.78673 a 12.7,12.7 0 0 1 8.163403,14.13943 12.7,12.7 0 0 1 -12.507058,10.49467 12.7,12.7 0 0 1 -12.507059,-10.49467 12.7,12.7 0 0 1 8.163402,-14.13943"
         sodipodi:end="4.3633231"
         sodipodi:start="5.0614548"
         sodipodi:ry="12.7"
         sodipodi:rx="12.7"
         sodipodi:cy="264.72083"
         sodipodi:cx="59.001492"
         sodipodi:type="arc"
         id="path816"
         style="fill:none;fill-opacity:1;stroke:#ffffff;stroke-width:2.64583325;stroke-miterlimit:4;stroke-dasharray:none;stroke-opacity:1;paint-order:fill markers stroke" />
      <path
         inkscape:connector-curvature="0"
         id="path826"
         d="m 58.906729,249.70757 v 10.10915"
         style="fill:none;stroke:#ffffff;stroke-width:2.64583325;stroke-linecap:round;stroke-linejoin:miter;stroke-miterlimit:4;stroke-dasharray:none;stroke-opacity:1" />
    </g>
    <path
       style="fill:none;stroke:#ffffff;stroke-width:2.64583325;stroke-linecap:round;stroke-linejoin:round;stroke-miterlimit:4;stroke-dasharray:none;stroke-opacity:1"
       d="m 16.134412,221.80639 c 0.132292,0.26459 0.264584,0.52917 0.396875,0.79375 0.0441,0 0.10111,-0.0312 0.132292,0 0.03118,0.0312 -0.03118,0.10111 0,0.1323 0.03118,0.0312 0.10111,-0.0312 0.132292,0 0.06972,0.0697 0.06257,0.19486 0.132291,0.26458 0.03118,0.0312 0.10111,-0.0312 0.132292,0 0.03118,0.0312 -0.03118,0.10111 0,0.13229 0.03118,0.0312 0.10111,-0.0312 0.132292,0 0.03118,0.0312 -0.01972,0.0928 0,0.13229 0.01266,0.0253 0.503843,0.51651 0.529166,0.52917 0.03944,0.0197 0.10111,-0.0312 0.132292,0 0.03118,0.0312 -0.03118,0.10111 0,0.13229 0.06972,0.0697 0.182539,0.0776 0.264583,0.13229 0.05189,0.0346 0.07651,0.1044 0.132292,0.13229 0.03944,0.0197 0.10111,-0.0312 0.132292,0 0.03118,0.0312 -0.03118,0.10111 0,0.1323 0.03118,0.0312 0.09285,-0.0197 0.132291,0 0.05578,0.0279 0.08819,0.0882 0.132292,0.13229 0.0441,0.0441 0.104402,0.0765 0.132292,0.13229 0.01972,0.0394 -0.03118,0.10111 0,0.13229 0.03118,0.0312 0.09285,-0.0197 0.132291,0 0.05578,0.0279 0.07651,0.1044 0.132292,0.13229 0.03944,0.0197 0.10111,-0.0312 0.132292,0 0.03118,0.0312 -0.03118,0.10111 0,0.13229 0.03118,0.0312 0.10111,-0.0312 0.132291,0 0.03118,0.0312 0,0.0882 0,0.1323 0.0441,0 0.09448,-0.0227 0.132292,0 0.176389,0.13229 0.352778,0.26458 0.529166,0.39687 0,0.0441 -0.03118,0.10111 0,0.13229 0.03118,0.0312 0.09285,-0.0197 0.132292,0 0.111558,0.0558 0.153025,0.20881 0.264583,0.26459 0.03944,0.0197 0.09285,-0.0197 0.132292,0 0.111558,0.0558 0.153025,0.2088 0.264583,0.26458 0.03944,0.0197 0.101111,-0.0312 0.132292,0 0.03118,0.0312 -0.03118,0.10111 0,0.13229 0.03118,0.0312 0.09285,-0.0197 0.132292,0 0.05578,0.0279 0.0804,0.0977 0.132291,0.13229 0.08204,0.0547 0.18254,0.0776 0.264584,0.13229 0.05189,0.0346 0.0804,0.0977 0.132291,0.1323 0.08204,0.0547 0.1857,0.0731 0.264584,0.13229 0.09978,0.0748 0.176389,0.17639 0.264583,0.26458 0.0441,0.0441 0.07651,0.1044 0.132292,0.13229 0.03944,0.0197 0.10111,-0.0312 0.132291,0 0.03118,0.0312 -0.03118,0.10111 0,0.13229 0.03118,0.0312 0.0882,0 0.132292,0 0,0.0441 -0.03118,0.10111 0,0.1323 0.03118,0.0312 0.0956,-0.0245 0.132292,0 0.08819,0.0882 0.176389,0.17638 0.264583,0.26458 0.0441,0 0.09285,-0.0197 0.132292,0 0.15875,0.0794 0.238125,0.3175 0.396875,0.39687 0.03944,0.0197 0.09285,-0.0197 0.132291,0 0.05578,0.0279 0.07651,0.10441 0.132292,0.1323 0.03944,0.0197 0.10111,-0.0312 0.132292,0 0.03118,0.0312 -0.03118,0.10111 0,0.13229 0.03118,0.0312 0.09285,-0.0197 0.132291,0 0.111558,0.0558 0.153026,0.2088 0.264584,0.26458 0.03944,0.0197 0.10111,-0.0312 0.132291,0 0.03118,0.0312 -0.03118,0.10111 0,0.13229 0.06236,0.0624 0.202221,-0.0624 0.264584,0 0,0.35278 -0.0441,-0.0441 0.132291,0.13229 0.03118,0.0312 -0.03118,0.10111 0,0.1323 0.0882,0.0882 0.176389,-0.0882 0.264583,0 0.03118,0.0312 -0.03118,0.10111 0,0.13229 0.03118,0.0312 0.10111,-0.0312 0.132292,0 0.03118,0.0312 -0.03118,0.10111 0,0.13229 0.06236,0.0624 0.20222,-0.0624 0.264583,0 0.03118,0.0312 -0.03118,0.10111 0,0.13229 0.03118,0.0312 0.10111,-0.0312 0.132292,0 0.03118,0.0312 -0.03118,0.10111 0,0.13229 0.06236,0.0624 0.185699,-0.0394 0.264583,0 0.05578,0.0279 0.07651,0.1044 0.132291,0.13229 0.03944,0.0197 0.101111,-0.0312 0.132292,0 0.03118,0.0312 -0.03118,0.10111 0,0.1323 0.03183,0.0318 0.497333,-0.0318 0.529167,0 0.176389,0.17639 -0.220486,0.13229 0.132291,0.13229 0.0441,0 0.0882,0 0.132292,0 0.0441,0 0.10111,0.0312 0.132292,0 0.03118,-0.0312 -0.03118,-0.10111 0,-0.13229 0.03118,-0.0312 0.09285,0.0197 0.132291,0 0.292505,-0.14626 0.04105,-0.0821 0.132292,-0.26459 0.02789,-0.0558 0.104402,-0.0765 0.132292,-0.13229 0.03944,-0.0789 -0.06236,-0.20222 0,-0.26458 0.03118,-0.0312 0.10111,0.0312 0.132291,0 0.03118,-0.0312 -0.01395,-0.0905 0,-0.13229 0.03118,-0.0935 0.0776,-0.18254 0.132292,-0.26459 0.03459,-0.0519 0.0977,-0.0804 0.132292,-0.13229 0.0547,-0.082 0.07759,-0.18254 0.132291,-0.26458 0.03459,-0.0519 0.104403,-0.0765 0.132292,-0.13229 0.01972,-0.0394 -0.01972,-0.0928 0,-0.1323 0.0711,-0.14221 0.193479,-0.25466 0.264583,-0.39687 0.01972,-0.0394 -0.01972,-0.0928 0,-0.13229 0.02789,-0.0558 0.08819,-0.0882 0.132292,-0.13229 0.08819,-0.1323 0.193479,-0.25467 0.264583,-0.39688 0.01972,-0.0394 -0.01972,-0.0928 0,-0.13229 0.05578,-0.11156 0.208805,-0.15303 0.264584,-0.26458 0.03944,-0.0789 -0.03944,-0.1857 0,-0.26459 0.05578,-0.11156 0.208804,-0.15302 0.264583,-0.26458 0.01972,-0.0394 -0.01972,-0.0928 0,-0.13229 0.02789,-0.0558 0.104402,-0.0765 0.132292,-0.13229 0.01972,-0.0394 -0.01972,-0.0928 0,-0.1323 0.02789,-0.0558 0.104402,-0.0765 0.132291,-0.13229 0.01972,-0.0394 -0.01972,-0.0928 0,-0.13229 0.275284,-0.55057 -0.0091,0.14143 0.264584,-0.13229 0.03118,-0.0312 -0.01395,-0.0905 0,-0.13229 0.03118,-0.0935 0.08819,-0.17639 0.132291,-0.26459 0.0441,-0.0882 0.0776,-0.18254 0.132292,-0.26458 -0.0132,-0.26208 0.19486,-0.0626 0.264584,-0.13229 0.03118,-0.0312 -0.01972,-0.0928 0,-0.13229 0.438756,-0.43876 -0.06236,0.12472 0.132291,-0.26459 0.02789,-0.0558 0.104402,-0.0765 0.132292,-0.13229 0.01972,-0.0394 -0.01972,-0.0928 0,-0.13229 0.05578,-0.11156 0.208804,-0.15302 0.264583,-0.26458 0.01972,-0.0394 -0.01972,-0.0928 0,-0.13229 0.141111,-0.28223 0.123473,0.0176 0.264584,-0.26459 0.01972,-0.0394 -0.01972,-0.0928 0,-0.13229 0.05578,-0.11156 0.189747,-0.1648 0.264583,-0.26458 0.08819,-0.13229 0.176389,-0.26459 0.264583,-0.39688 0,-0.0441 -0.01972,-0.0928 0,-0.13229 0.05578,-0.11156 0.208805,-0.15302 0.264584,-0.26458 0.06236,-0.12473 0.06993,-0.27215 0.132291,-0.39688 0.02789,-0.0558 0.104402,-0.0765 0.132292,-0.13229 0.01972,-0.0394 -0.03118,-0.10111 0,-0.13229 0.03118,-0.0312 0.10111,0.0312 0.132292,0 0.03118,-0.0312 -0.01972,-0.0928 0,-0.13229 0.438756,-0.43876 -0.06236,0.12472 0.132291,-0.26459 0.02789,-0.0558 0.0977,-0.0804 0.132292,-0.13229 0.0547,-0.082 0.0776,-0.18254 0.132292,-0.26458 0.03459,-0.0519 0.0977,-0.0804 0.132291,-0.13229 0.109392,-0.16409 0.155192,-0.36508 0.264584,-0.52917 0.03459,-0.0519 0.104402,-0.0765 0.132291,-0.13229 0.01972,-0.0394 -0.01972,-0.0928 0,-0.13229 0.02789,-0.0558 0.104402,-0.0765 0.132292,-0.13229 0.01972,-0.0394 -0.01972,-0.0928 0,-0.1323 0.05578,-0.11155 0.208804,-0.15302 0.264583,-0.26458 0.01972,-0.0394 -0.01972,-0.0928 0,-0.13229 0.02789,-0.0558 0.104402,-0.0765 0.132292,-0.13229 0.01972,-0.0394 -0.01972,-0.0928 0,-0.13229 0.02789,-0.0558 0.104402,-0.0765 0.132292,-0.1323 0.01972,-0.0394 -0.01972,-0.0928 0,-0.13229 0.02789,-0.0558 0.104402,-0.0765 0.132291,-0.13229 0.01972,-0.0394 -0.01972,-0.0928 0,-0.13229 0.02789,-0.0558 0.104402,-0.0765 0.132292,-0.13229 0.01972,-0.0394 -0.01972,-0.0928 0,-0.13229 0.02789,-0.0558 0.104402,-0.0765 0.132292,-0.1323 0.01972,-0.0394 -0.01972,-0.0928 0,-0.13229 0.02789,-0.0558 0.0977,-0.0804 0.132291,-0.13229 0.231186,-0.34678 0.04945,-0.23119 0.264584,-0.66146 0.02789,-0.0558 0.11257,-0.0731 0.132291,-0.13229 0.02789,-0.0837 -0.02789,-0.18091 0,-0.26458 0.03944,-0.11833 0.208805,-0.15303 0.264584,-0.26459 0.01972,-0.0394 -0.01972,-0.0928 0,-0.13229 0.02789,-0.0558 0.104402,-0.0765 0.132291,-0.13229 0.07056,-0.14111 -0.07055,-0.12347 0,-0.26458 0.302724,-0.60545 -0.05483,0.56137 0.264584,-0.39688 0.01395,-0.0418 -0.01972,-0.0928 0,-0.13229 0.05578,-0.11156 0.208804,-0.15302 0.264583,-0.26458 0.01972,-0.0394 -0.01638,-0.0913 0,-0.13229 0.08819,-0.17639 0.176389,-0.35278 0.264583,-0.52917 0.0441,-0.0441 0.100206,-0.0788 0.132292,-0.13229 0.08819,-0.17639 0.176389,-0.35278 0.264583,-0.52917 0,-0.0441 -0.01972,-0.0928 0,-0.13229 0.02789,-0.0558 0.104403,-0.0765 0.132292,-0.13229 0.01971,-0.0394 -0.01972,-0.0928 0,-0.13229 0.05578,-0.11156 0.208804,-0.15303 0.264583,-0.26459 0.01971,-0.0394 -0.01971,-0.0928 0,-0.13229 0.05578,-0.11156 0.208804,-0.15302 0.264584,-0.26458 0.03944,-0.0789 -0.06236,-0.20222 0,-0.26459 0.03118,-0.0312 0.10111,0.0312 0.132291,0 0.03118,-0.0312 -0.01971,-0.0928 0,-0.13229 0.02789,-0.0558 0.104402,-0.0765 0.132292,-0.13229 0.01971,-0.0394 -0.01971,-0.0928 0,-0.13229 0.07937,-0.15875 0.3175,-0.23813 0.396875,-0.39688 0.01971,-0.0394 -0.01971,-0.0928 0,-0.13229 0.02789,-0.0558 0.0977,-0.0804 0.132292,-0.13229 0.05469,-0.082 0.0776,-0.18254 0.132291,-0.26458 0.03459,-0.0519 0.0977,-0.0804 0.132292,-0.13229 0.0547,-0.0821 0.0776,-0.18254 0.132292,-0.26459 0.03459,-0.0519 0.0977,-0.0804 0.132291,-0.13229 0.05469,-0.082 0.0776,-0.18254 0.132292,-0.26458 0.03459,-0.0519 0.104402,-0.0765 0.132292,-0.13229 0.01971,-0.0394 -0.03118,-0.10112 0,-0.1323 0.273716,-0.27371 -0.01069,0.41828 0.264583,-0.13229 0.03944,-0.0789 -0.06236,-0.20222 0,-0.26458 0.03118,-0.0312 0.101111,0.0312 0.132292,0 0.03118,-0.0312 -0.03118,-0.10111 0,-0.13229 0.03118,-0.0312 0.10111,0.0312 0.132291,0 0.03118,-0.0312 -0.03118,-0.10111 0,-0.13229 0.03118,-0.0312 0.101111,0.0312 0.132292,0 0.03118,-0.0312 -0.01971,-0.0928 0,-0.1323 0.02789,-0.0558 0.104402,-0.0765 0.132292,-0.13229 0.01971,-0.0394 -0.03118,-0.10111 0,-0.13229 0.03118,-0.0312 0.10111,0.0312 0.132291,0 0.03118,-0.0312 -0.03118,-0.10111 0,-0.13229 0.03118,-0.0312 0.101111,0.0312 0.132292,0 0.08819,-0.0882 -0.08819,-0.17639 0,-0.26458 0.03118,-0.0312 0.09285,0.0197 0.132292,0 0.550566,-0.27529 -0.141425,0.009 0.132291,-0.26459 0.03118,-0.0312 0.101111,0.0312 0.132292,0 0.273717,-0.27371 -0.418274,0.0107 0.132292,-0.26458 0.03944,-0.0197 0.10111,0.0312 0.132291,0 0.06236,-0.0624 -0.06236,-0.20222 0,-0.26458 0.03118,-0.0312 0.101111,0.0312 0.132292,0 0.03118,-0.0312 -0.01971,-0.0928 0,-0.1323 0.02789,-0.0558 0.104402,-0.0765 0.132292,-0.13229 0.01971,-0.0394 -0.03118,-0.10111 0,-0.13229 0.03118,-0.0312 0.10111,0.0312 0.132291,0 0.03118,-0.0312 -0.03118,-0.10111 0,-0.13229 0.03118,-0.0312 0.101111,0.0312 0.132292,0 0.130503,-0.1305 -0.271076,-0.26458 0.132292,-0.26458"
       id="path850"
       inkscape:connector-curvature="0" />
    <g
       id="g830"
       transform="matrix(0.93880614,0,0,0.93880614,-13.63553,-125.61523)">
      <path
         inkscape:export-filename="D:\PG\git-tempworkspace\素材\close.png"
         inkscape:export-ydpi="96"
         inkscape:export-xdpi="96"
         inkscape:connector-curvature="0"
         id="path873"
         d="m 56.324385,315.04471 c -0.932309,0 -0.104246,-0.0882 -0.467722,0.0935 -0.03709,0.0186 -0.261509,-0.0191 -0.280633,0 -0.02204,0.022 0.02204,0.0715 0,0.0935 -0.0441,0.0441 -0.13131,-0.0279 -0.18709,0 -0.03944,0.0197 -0.0541,0.0738 -0.09354,0.0935 -0.02789,0.014 -0.06566,-0.0139 -0.09355,0 -0.03944,0.0197 -0.0541,0.0738 -0.09354,0.0935 -0.05075,0.0254 -0.34858,-0.0256 -0.374176,0 -0.02204,0.022 0.02204,0.0715 0,0.0935 -0.0441,0.0441 -0.13131,-0.0279 -0.18709,0 -0.03944,0.0197 -0.0541,0.0738 -0.09354,0.0935 -0.297368,0.14869 0.110276,-0.14868 -0.18709,0 -0.03944,0.0197 -0.05171,0.0796 -0.09354,0.0935 -0.05916,0.0197 -0.13131,-0.0279 -0.18709,0 -0.02789,0.0139 0.02204,0.0715 0,0.0935 -0.02868,0.0287 -0.438812,-0.0289 -0.467721,0 -0.02205,0.0221 0.02205,0.0715 0,0.0935 -0.01912,0.0191 -0.243544,-0.0186 -0.280633,0 -0.03944,0.0197 -0.0541,0.0738 -0.09354,0.0935 -0.05075,0.0254 -0.348582,-0.0256 -0.374178,0 -0.02205,0.022 0.02205,0.0715 0,0.0935 -0.04677,0.0468 -0.233861,-0.0468 -0.280633,0 -0.02205,0.022 0.02205,0.0715 0,0.0935 -0.01912,0.0191 -0.243543,-0.0185 -0.280633,0 -0.03944,0.0197 -0.0541,0.0738 -0.09354,0.0935 -0.03709,0.0185 -0.261509,-0.0191 -0.280633,0 -0.02205,0.022 0.02205,0.0715 0,0.0935 -0.04677,0.0468 -0.233861,-0.0468 -0.280633,0 -0.02205,0.022 0.02205,0.0715 0,0.0935 -0.0441,0.0441 -0.142992,-0.0441 -0.187089,0 -0.02205,0.0221 0.02205,0.0715 0,0.0935 -0.01912,0.0191 -0.243543,-0.0186 -0.280633,0 -0.03944,0.0197 -0.06236,0.0624 -0.09354,0.0935 -0.155907,0.0624 -0.308422,0.13399 -0.467722,0.18709 -0.0364,0.0121 -0.266116,-0.0145 -0.280633,0 -0.02205,0.022 0.02205,0.0715 0,0.0935 -0.02205,0.022 -0.0715,-0.022 -0.09354,0 -0.02205,0.022 0.02205,0.0715 0,0.0935 -0.01912,0.0191 -0.243544,-0.0185 -0.280633,0 -0.03944,0.0197 -0.0541,0.0738 -0.09354,0.0935 -0.02789,0.014 -0.06565,-0.0139 -0.09354,0 -0.03944,0.0197 -0.0541,0.0738 -0.09354,0.0935 -0.05578,0.0279 -0.142992,-0.0441 -0.187089,0 -0.02205,0.0221 0.02205,0.0715 0,0.0935 -0.247805,0.24781 0.06072,-0.2478 -0.187089,0 -0.02205,0.022 0.02205,0.0715 0,0.0935 -0.0441,0.0441 -0.131309,-0.0279 -0.187088,0 -0.03944,0.0197 -0.0541,0.0738 -0.09355,0.0935 -0.02789,0.0139 -0.07149,-0.0221 -0.09354,0 -0.02205,0.022 0.02205,0.0715 0,0.0935 -0.0441,0.0441 -0.142991,-0.0441 -0.187089,0 -0.02205,0.022 0.02205,0.0715 0,0.0935 -0.02205,0.022 -0.06565,-0.0139 -0.09354,0 -0.03944,0.0197 -0.0541,0.0738 -0.09354,0.0935 -0.05578,0.0279 -0.142992,-0.0441 -0.187089,0 -0.02205,0.0221 0.02205,0.0715 0,0.0935 -0.02205,0.0221 -0.0715,-0.022 -0.09354,0 -0.02205,0.0221 0.02205,0.0715 0,0.0935 -0.0441,0.0441 -0.142992,-0.0441 -0.187089,0 -0.02205,0.022 0.02205,0.0715 0,0.0935 -0.0441,0.0441 -0.142992,-0.0441 -0.187089,0 -0.02205,0.0221 0.02205,0.0715 0,0.0935 -0.0441,0.0441 -0.142991,-0.0441 -0.187088,0 -0.02205,0.022 0.02205,0.0715 0,0.0935 -0.02205,0.022 -0.06565,-0.014 -0.09354,0 -0.03944,0.0197 -0.0541,0.0738 -0.09354,0.0935 -0.02789,0.0139 -0.0715,-0.0221 -0.09354,0 -0.02205,0.022 0.02205,0.0715 0,0.0935 -0.02205,0.0221 -0.06565,-0.0139 -0.09354,0 -0.03944,0.0197 -0.0541,0.0738 -0.09354,0.0935 -0.02789,0.0139 -0.0715,-0.022 -0.09354,0 -0.02205,0.0221 0.02205,0.0715 0,0.0935 -0.02205,0.022 -0.0715,-0.022 -0.09354,0 -0.02205,0.022 0.02205,0.0715 0,0.0935 -0.02205,0.0221 -0.0715,-0.022 -0.09354,0 -0.02205,0.0221 0.02205,0.0715 0,0.0935 -0.0441,0.0441 -0.142992,-0.0441 -0.187089,0 -0.02205,0.022 0.02205,0.0715 0,0.0935 -0.02205,0.022 -0.07149,-0.022 -0.09354,0 -0.02205,0.022 0.02205,0.0715 0,0.0935 -0.02205,0.022 -0.0715,-0.0221 -0.09354,0 -0.02205,0.022 0.02205,0.0715 0,0.0935 -0.0441,0.0441 -0.142992,-0.0441 -0.187089,0 -0.02205,0.022 0.01394,0.0657 0,0.0935 -0.194655,0.38931 0.0065,-0.1 -0.187089,0.0935 -0.02205,0.0221 0.02205,0.0715 0,0.0935 -0.02205,0.0221 -0.0715,-0.022 -0.09354,0 -0.02205,0.0221 0.02205,0.0715 0,0.0935 -0.02205,0.022 -0.0715,-0.022 -0.09354,0 -0.02205,0.022 0.02205,0.0715 0,0.0935 -0.02205,0.022 -0.0715,-0.022 -0.09355,0 -0.02205,0.022 0.02205,0.0715 0,0.0935 -0.02205,0.022 -0.0715,-0.0221 -0.09354,0 -0.02205,0.022 0.02205,0.0715 0,0.0935 -0.02205,0.022 -0.0715,-0.0221 -0.09354,0 -0.02205,0.022 0.02205,0.0715 0,0.0935 -0.02205,0.022 -0.06565,-0.0139 -0.09354,0 -0.03944,0.0197 -0.0541,0.0738 -0.09354,0.0935 -0.02789,0.014 -0.0715,-0.022 -0.09354,0 -0.02205,0.0221 0.02205,0.0715 0,0.0935 -0.249451,0 0.03118,-0.0312 -0.09354,0.0935 -0.02205,0.022 -0.06565,-0.0139 -0.09354,0 -0.03944,0.0197 -0.0541,0.0738 -0.09355,0.0935 -0.02789,0.0139 -0.07149,-0.022 -0.09354,0 -0.02205,0.022 0.02205,0.0715 0,0.0935 -0.02205,0.022 -0.0676,-0.0173 -0.09354,0 -0.07338,0.0489 -0.124726,0.12473 -0.187089,0.18709 -0.03118,0.0312 -0.0541,0.0738 -0.09354,0.0935 -0.02789,0.014 -0.0715,-0.022 -0.09354,0 -0.02205,0.0221 0.01394,0.0657 0,0.0935 -0.01972,0.0394 -0.06236,0.0624 -0.09354,0.0935 -0.03118,0.0312 -0.0541,0.0738 -0.09354,0.0935 -0.02789,0.0139 -0.0715,-0.022 -0.09354,0 -0.02205,0.0221 0.02205,0.0715 0,0.0935 -0.02205,0.022 -0.07149,-0.0221 -0.09354,0 -0.02205,0.022 0,0.0624 0,0.0935 -0.03118,0 -0.06565,-0.014 -0.09354,0 -0.389309,0.19465 0.100003,-0.006 -0.09355,0.18709 -0.0441,0.0441 -0.142992,-0.0441 -0.187089,0 -0.02205,0.022 0.01394,0.0657 0,0.0935 -0.194655,0.38931 0.0065,-0.1 -0.187089,0.0935 -0.02205,0.022 0.02205,0.0715 0,0.0935 -0.02205,0.0221 -0.0715,-0.022 -0.09354,0 -0.02205,0.0221 0.02205,0.0715 0,0.0935 -0.02205,0.022 -0.0715,-0.0221 -0.09354,0 -0.02205,0.022 0.02205,0.0715 0,0.0935 -0.02205,0.022 -0.0715,-0.022 -0.09354,0 -0.02205,0.022 0.02205,0.0715 0,0.0935 -0.02205,0.022 -0.0715,-0.0221 -0.09354,0 -0.187684,0.18769 0.187686,-6.1e-4 0,0.18709 -0.02205,0.0221 -0.0715,-0.022 -0.09354,0 -0.02205,0.0221 0.02205,0.0715 0,0.0935 -0.02205,0.022 -0.0715,-0.022 -0.09354,0 -0.02205,0.022 0.02205,0.0715 0,0.0935 -0.02205,0.0221 -0.0715,-0.022 -0.09354,0 -0.02205,0.0221 0.01395,0.0657 0,0.0935 -0.01972,0.0394 -0.07382,0.0541 -0.09354,0.0935 -0.01394,0.0279 0.02205,0.0715 0,0.0935 -0.02205,0.022 -0.0715,-0.0221 -0.09355,0 -0.02205,0.022 0.02205,0.0715 0,0.0935 -0.02205,0.022 -0.0715,-0.0221 -0.09354,0 -0.02205,0.022 0.02205,0.0715 0,0.0935 -0.02205,0.0221 -0.0715,-0.022 -0.09354,0 -0.02205,0.0221 0.02205,0.0715 0,0.0935 -0.02205,0.0221 -0.0715,-0.022 -0.09354,0 -0.193547,0.19355 0.295765,-0.008 -0.09354,0.18709 -0.02789,0.014 -0.0715,-0.022 -0.09355,0 -0.193547,0.19355 0.295765,-0.008 -0.09354,0.18709 -0.02789,0.0139 -0.0715,-0.0221 -0.09354,0 -0.0441,0.0441 0.0441,0.14299 0,0.18709 -0.02205,0.022 -0.0715,-0.0221 -0.09355,0 -0.02205,0.022 0.02205,0.0715 0,0.0935 -0.02205,0.0221 -0.0796,-0.0279 -0.09354,0 -0.02789,0.0558 0.02789,0.13131 0,0.18709 -0.01395,0.0279 -0.0715,-0.022 -0.09354,0 0,0.24946 0.03118,-0.0312 -0.09355,0.0935 -0.124509,0.12451 0.12451,0.0626 0,0.18709 -0.02205,0.022 -0.07149,-0.022 -0.09354,0 -0.02205,0.022 0,0.0624 0,0.0935 -0.03118,0 -0.0715,-0.0221 -0.09354,0 -0.02205,0.022 0.02205,0.0715 0,0.0935 -0.02205,0.022 -0.0715,-0.0221 -0.09355,0 -0.02205,0.022 0.01394,0.0657 0,0.0935 -0.01972,0.0394 -0.07382,0.0541 -0.09354,0.0935 -0.01394,0.0279 0.01395,0.0657 0,0.0935 -0.03944,0.0789 -0.147647,0.1082 -0.187089,0.18709 -0.02789,0.0558 0.0441,0.14299 0,0.18709 -0.193546,0.19354 0.0076,-0.29577 -0.187088,0.0935 -0.02789,0.0558 0.0441,0.14299 0,0.18709 -0.02205,0.0221 -0.0715,-0.022 -0.09355,0 -0.02205,0.0221 0.01395,0.0657 0,0.0935 -0.01972,0.0394 -0.07382,0.0541 -0.09354,0.0935 -0.01395,0.0279 0.01394,0.0657 0,0.0935 -0.01972,0.0394 -0.07086,0.0557 -0.09354,0.0935 -0.07175,0.11957 -0.115344,0.2546 -0.187089,0.37417 -0.02269,0.0378 -0.07382,0.0541 -0.09354,0.0935 -0.01394,0.0279 0.02205,0.0715 0,0.0935 -0.02205,0.022 -0.0715,-0.0221 -0.09355,0 -0.02205,0.022 0.01394,0.0657 0,0.0935 -0.01972,0.0394 -0.07382,0.0541 -0.09354,0.0935 -0.01394,0.0279 0.01394,0.0657 0,0.0935 -0.01972,0.0394 -0.07382,0.0541 -0.09354,0.0935 -0.01394,0.0279 0,0.0624 0,0.0935 -0.03118,0.0312 -0.06908,0.0569 -0.09355,0.0935 -0.01161,0.0174 -0.181094,0.36818 -0.187088,0.37418 -0.02205,0.022 -0.0715,-0.0221 -0.09355,0 -0.02205,0.022 0.01394,0.0657 0,0.0935 -0.01972,0.0394 -0.07382,0.0541 -0.09354,0.0935 -0.01394,0.0279 0.02205,0.0715 0,0.0935 -0.02205,0.022 -0.0715,-0.022 -0.09354,0 -0.02205,0.022 0.01394,0.0657 0,0.0935 -0.03944,0.0789 -0.138168,0.11371 -0.187089,0.18709 -0.03868,0.058 -0.05487,0.12908 -0.09354,0.18709 -0.119624,0.17943 -0.06747,0.008 -0.187089,0.18709 -0.03868,0.058 -0.0715,0.12094 -0.09355,0.18709 -0.01972,0.0592 0.0441,0.14299 0,0.18709 -0.02205,0.022 -0.06565,-0.014 -0.09354,0 -0.206831,0.10341 -0.02903,0.058 -0.09354,0.18708 -0.01972,0.0394 -0.06908,0.0569 -0.09355,0.0935 -0.03867,0.058 -0.05487,0.12907 -0.09354,0.18709 -0.04892,0.0734 -0.147647,0.1082 -0.187088,0.18709 -0.01394,0.0279 0.01395,0.0657 0,0.0935 -0.01972,0.0394 -0.07382,0.0541 -0.09354,0.0936 -0.01395,0.0279 0.02205,0.0715 0,0.0935 -0.02205,0.0221 -0.0715,-0.022 -0.09354,0 -0.02205,0.0221 0.01395,0.0657 0,0.0935 -0.03944,0.0789 -0.147647,0.10821 -0.187089,0.18709 -0.01394,0.0279 0.01395,0.0657 0,0.0935 -0.01972,0.0394 -0.07382,0.0541 -0.09354,0.0935 -0.01395,0.0279 0.01395,0.0657 0,0.0936 -0.01972,0.0394 -0.07382,0.0541 -0.09354,0.0935 -0.01395,0.0279 0.02205,0.0715 0,0.0935 -0.02205,0.022 -0.0715,-0.022 -0.09354,0 -0.0441,0.0441 0.0441,0.143 0,0.18709 -0.02205,0.022 -0.0715,-0.022 -0.09354,0 -0.02205,0.022 0.0099,0.064 0,0.0935 -0.03118,0.0624 -0.06236,0.12472 -0.09354,0.18709 -0.03118,0 -0.0715,-0.0221 -0.09354,0 -0.02205,0.022 0.02205,0.0715 0,0.0935 -0.02205,0.0221 -0.0715,-0.022 -0.09354,0 -0.0441,0.0441 0.02789,0.13131 0,0.18709 -0.01972,0.0394 -0.07382,0.0541 -0.09354,0.0935 -0.01394,0.0279 0.02205,0.0715 0,0.0935 -0.02205,0.022 -0.0715,-0.0221 -0.09354,0 -0.02205,0.022 0.01394,0.0657 0,0.0935 -0.01972,0.0394 -0.06908,0.0569 -0.09354,0.0935 -0.03868,0.058 -0.05487,0.12907 -0.09354,0.18708 -0.04892,0.0734 -0.147647,0.10821 -0.187089,0.18709 -0.115198,0.2304 0.271535,-0.0844 -0.09354,0.28064 -0.02205,0.022 -0.0715,-0.0221 -0.09354,0 -0.02205,0.022 0.01394,0.0657 0,0.0935 -0.0508,0.1016 -0.136289,0.0855 -0.187089,0.18709 -0.01394,0.0279 0.01394,0.0657 0,0.0935 -0.01972,0.0394 -0.07382,0.0541 -0.09355,0.0935 -0.01394,0.0279 0,0.0624 0,0.0935 -0.03118,0.0312 -0.07382,0.0541 -0.09354,0.0935 -0.01395,0.0279 0.01394,0.0657 0,0.0935 -0.03944,0.0789 -0.159199,0.10342 -0.187088,0.18709 -0.01972,0.0592 0.02789,0.13131 0,0.18709 -0.01394,0.0279 -0.0715,-0.022 -0.09354,0 -0.0441,0.0441 0.02789,0.13131 0,0.18709 -0.01972,0.0394 -0.07382,0.0541 -0.09354,0.0935 -0.01394,0.0279 0.01394,0.0657 0,0.0936 -0.01972,0.0394 -0.0796,0.0517 -0.09354,0.0935 -0.01972,0.0592 0.01972,0.12793 0,0.18709 -0.01394,0.0418 -0.07382,0.0541 -0.09354,0.0935 -0.01394,0.0279 0.01394,0.0657 0,0.0935 -0.2032,0.4064 0.01611,-0.21931 -0.187089,0.18709 -0.01394,0.0279 0.0099,0.064 0,0.0935 -0.02205,0.0661 -0.0715,0.12094 -0.09354,0.18709 -0.0099,0.0296 0.0099,0.064 0,0.0935 -0.02205,0.0661 -0.0715,0.12095 -0.09354,0.18709 -0.0099,0.0296 0.01394,0.0657 0,0.0935 -0.01972,0.0394 -0.07382,0.0541 -0.09354,0.0935 -0.02789,0.0558 0.0441,0.14299 0,0.18709 -0.02205,0.022 -0.0715,-0.022 -0.09354,0 -0.0441,0.0441 0.02789,0.13131 0,0.18709 -0.214058,0.42811 0.03877,-0.39695 -0.187089,0.28063 -0.01972,0.0592 0.02789,0.13131 0,0.18709 -0.01972,0.0394 -0.07382,0.0541 -0.09354,0.0935 -0.02789,0.0558 0.02789,0.13131 0,0.18709 -0.01972,0.0394 -0.07382,0.0541 -0.09354,0.0935 -0.02789,0.0558 0.0441,0.14299 0,0.18709 -0.02205,0.022 -0.0715,-0.0221 -0.09354,0 -0.0441,0.0441 0.0441,0.14299 0,0.18708 -0.02205,0.022 -0.0715,-0.022 -0.09354,0 -0.04677,0.0468 0.04677,0.23387 0,0.28064 -0.02205,0.022 -0.0715,-0.022 -0.09354,0 -0.0441,0.0441 0.0441,0.14299 0,0.18709 -0.02205,0.022 -0.0715,-0.022 -0.09354,0 -0.02205,0.022 0,0.0624 0,0.0935 0,0.0312 0,0.0624 0,0.0935 0,0.24945 0.03118,-0.0312 -0.09354,0.0935 -0.186765,0.18676 0.186765,2.6e-4 0,0.18709 -0.02205,0.022 -0.0715,-0.022 -0.09354,0 -0.02251,0.0225 0.02251,0.35166 0,0.37418 -0.02205,0.022 -0.0715,-0.022 -0.09354,0 -0.02205,0.022 0,0.0624 0,0.0935 0,0.0227 0.003,0.27762 0,0.28063 -0.02205,0.022 -0.06236,0 -0.09354,0"
         style="fill:none;stroke:#fffff9;stroke-width:3.17499995;stroke-linecap:round;stroke-linejoin:round;stroke-miterlimit:4;stroke-dasharray:0.79374999, 0.79374999;stroke-dashoffset:0;stroke-opacity:1;paint-order:stroke fill markers" />
      <path
         inkscape:export-filename="D:\PG\git-tempworkspace\素材\close.png"
         inkscape:export-ydpi="96"
         inkscape:export-xdpi="96"
         inkscape:connector-curvature="0"
         id="path875"
         d="m 33.873743,313.92218 c 0.09354,0.12472 0.187089,0.24945 0.280633,0.37417 0.03118,0 0.0715,-0.022 0.09354,0 0.02205,0.0221 -0.02205,0.0715 0,0.0935 0.02205,0.0221 0.0715,-0.022 0.09354,0 0.0441,0.0441 -0.0441,0.14299 0,0.18709 0.02205,0.022 0.0715,-0.022 0.09354,0 0.0441,0.0441 -0.0441,0.14299 0,0.18709 0.02205,0.022 0.0715,-0.022 0.09354,0 0.0441,0.0441 -0.0441,0.14299 0,0.18708 0.02205,0.0221 0.0715,-0.022 0.09354,0 0.0441,0.0441 -0.0441,0.143 0,0.18709 0.02205,0.022 0.0715,-0.022 0.09354,0 0.0441,0.0441 -0.02789,0.13131 0,0.18709 0.01972,0.0394 0.07382,0.0541 0.09354,0.0935 0.01394,0.0279 -0.02205,0.0715 0,0.0935 0.02205,0.022 0.0715,-0.0221 0.09354,0 0.0441,0.0441 -0.0441,0.14299 0,0.18709 0.02205,0.0221 0.0715,-0.022 0.09354,0 0.04677,0.0468 -0.04677,0.23386 0,0.28063 0.02205,0.022 0.0715,-0.022 0.09354,0 0.0441,0.0441 -0.0441,0.14299 0,0.18709 0.02205,0.022 0.0715,-0.0221 0.09354,0 0.0441,0.0441 -0.02789,0.13131 0,0.18709 0.01972,0.0394 0.07382,0.0541 0.09354,0.0935 0.01394,0.0279 -0.01394,0.0657 0,0.0935 0.01972,0.0394 0.07382,0.0541 0.09354,0.0935 0.01854,0.0371 -0.01912,0.26151 0,0.28064 0.02205,0.022 0.0715,-0.022 0.09354,0 0.0441,0.0441 -0.0441,0.14299 0,0.18708 0.02205,0.0221 0.0715,-0.022 0.09355,0 0.0441,0.0441 -0.0441,0.143 0,0.18709 0.02205,0.022 0.0715,-0.022 0.09354,0 0.0441,0.0441 -0.0441,0.14299 0,0.18709 0.02205,0.022 0.0715,-0.0221 0.09355,0 0.01912,0.0191 -0.01855,0.24355 0,0.28063 0.01972,0.0394 0.07382,0.0541 0.09354,0.0935 0.02789,0.0558 -0.0441,0.14299 0,0.18709 0.02205,0.0221 0.0715,-0.022 0.09354,0 0.0441,0.0441 -0.02789,0.13131 0,0.18709 0.01972,0.0394 0.07382,0.0541 0.09354,0.0935 0.01394,0.0279 -0.01394,0.0657 0,0.0935 0.01972,0.0395 0.07382,0.0541 0.09354,0.0935 0.02789,0.0558 -0.02789,0.13131 0,0.18709 0.01972,0.0394 0.07382,0.0541 0.09354,0.0935 0.02789,0.0558 -0.0441,0.14299 0,0.18709 0.02205,0.022 0.0715,-0.0221 0.09354,0 0.04677,0.0468 -0.04677,0.23386 0,0.28063 0.02205,0.0221 0.0715,-0.022 0.09354,0 0.01912,0.0191 -0.01855,0.24355 0,0.28064 0.01972,0.0394 0.07382,0.0541 0.09354,0.0935 0.01854,0.0371 -0.01912,0.26151 0,0.28063 0.02205,0.0221 0.0715,-0.022 0.09354,0 0.04677,0.0468 -0.04677,0.23387 0,0.28064 0.02205,0.022 0.0715,-0.022 0.09355,0 0.02251,0.0225 -0.02251,0.35167 0,0.37417 0.02205,0.0221 0.0715,-0.022 0.09354,0 0.0441,0.0441 -0.0441,0.143 0,0.18709 0.02205,0.022 0.0715,-0.022 0.09354,0 0.04677,0.0468 -0.04677,0.23386 0,0.28064 0.02205,0.022 0.0715,-0.022 0.09354,0 0.02205,0.022 -0.01395,0.0657 0,0.0935 0.01972,0.0394 0.07382,0.0541 0.09354,0.0935 0.01394,0.0279 -0.0099,0.064 0,0.0935 0.02205,0.0662 0.0715,0.12094 0.09354,0.18709 0.0099,0.0296 -0.02205,0.0715 0,0.0935 0.02205,0.022 0.0715,-0.0221 0.09354,0 0.02205,0.022 -0.01395,0.0657 0,0.0935 0.01972,0.0394 0.07382,0.0541 0.09354,0.0935 0.02789,0.0558 -0.0441,0.14299 0,0.18709 0.02205,0.0221 0.0715,-0.022 0.09354,0 0.0441,0.0441 -0.0441,0.14299 0,0.18709 0.02205,0.0221 0.0715,-0.022 0.09354,0 0.0441,0.0441 -0.02789,0.13131 0,0.18709 0.310248,0.31024 -0.0441,-0.0882 0.09354,0.18709 0.01972,0.0394 0.07382,0.0541 0.09354,0.0935 0.01394,0.0279 0,0.0624 0,0.0935 0.03118,0.0312 0.07382,0.0541 0.09354,0.0935 0.02789,0.0558 -0.0441,0.14299 0,0.18709 0.02205,0.022 0.0715,-0.022 0.09354,0 0.02205,0.022 -0.01395,0.0657 0,0.0935 0.01972,0.0394 0.07382,0.0541 0.09354,0.0935 0.02789,0.0558 -0.0441,0.14299 0,0.18708 0.02205,0.0221 0.0715,-0.022 0.09354,0 0.0441,0.0441 -0.0441,0.143 0,0.18709 0.02205,0.022 0.0715,-0.022 0.09354,0 0.0441,0.0441 -0.0441,0.14299 0,0.18709 0.02205,0.022 0.0715,-0.0221 0.09354,0 0.02205,0.022 -0.01394,0.0657 0,0.0935 0.01972,0.0394 0.07382,0.0541 0.09354,0.0935 0.01394,0.0279 -0.01395,0.0657 0,0.0935 0.03944,0.0789 0.147647,0.1082 0.187089,0.18708 0.01395,0.0279 -0.01394,0.0657 0,0.0935 0.05613,0.11225 0.224507,0.16838 0.280633,0.28063 0.01394,0.0279 -0.02205,0.0715 0,0.0935 0.02205,0.022 0.0715,-0.0221 0.09354,0 0.0441,0.0441 -0.0441,0.14299 0,0.18708 0.02205,0.022 0.0715,-0.022 0.09354,0 0.02205,0.022 -0.02205,0.0715 0,0.0935 0.02205,0.0221 0.0715,-0.022 0.09355,0 0.0441,0.0441 -0.0441,0.14299 0,0.18709 0.02205,0.022 0.0715,-0.022 0.09354,0 0.02205,0.022 0,0.0624 0,0.0935 0.03118,0 0.0715,-0.0221 0.09355,0 0.06225,0.0623 -0.06226,0.12484 0,0.18709 0.02205,0.0221 0.07149,-0.022 0.09354,0 0.02205,0.0221 -0.01394,0.0657 0,0.0935 0.01972,0.0394 0.07382,0.0541 0.09354,0.0935 0.01394,0.0279 -0.02205,0.0715 0,0.0935 0.02205,0.022 0.0715,-0.022 0.09355,0 0.02205,0.022 -0.01394,0.0657 0,0.0935 0.0332,0.0664 0.153886,0.12068 0.187088,0.18709 0.01394,0.0279 -0.02205,0.0715 0,0.0935 0.02205,0.0221 0.0715,-0.022 0.09355,0 0.02205,0.0221 -0.02205,0.0715 0,0.0935 0.02205,0.0221 0.06236,0 0.09354,0 0,0.0312 -0.02205,0.0715 0,0.0935 0.02205,0.0221 0.0715,-0.022 0.09354,0 0.02205,0.0221 -0.02205,0.0715 0,0.0935 0.02205,0.022 0.0715,-0.022 0.09355,0 0.0441,0.0441 -0.0441,0.143 0,0.18709 0.02205,0.022 0.06236,0 0.09354,0 0,0.0312 -0.02205,0.0715 0,0.0935 0.02205,0.022 0.0715,-0.0221 0.09354,0 0.193547,0.19354 -0.295764,-0.008 0.09355,0.18709 0.02789,0.0139 0.07149,-0.0221 0.09354,0 0.0441,0.0441 -0.0441,0.14299 0,0.18708 0.02205,0.022 0.0715,-0.022 0.09354,0 0.02205,0.022 -0.02205,0.0715 0,0.0935 0.02205,0.022 0.0715,-0.022 0.09355,0 0.02205,0.022 -0.02205,0.0715 0,0.0935 0.02205,0.022 0.07149,-0.0221 0.09354,0 0.02205,0.022 -0.02205,0.0715 0,0.0935 0.02205,0.022 0.0715,-0.022 0.09354,0 0.02205,0.022 -0.01394,0.0657 0,0.0935 0.01972,0.0394 0.07382,0.0541 0.09355,0.0935 0.01394,0.0279 -0.02205,0.0715 0,0.0935 0.02205,0.0221 0.0715,-0.022 0.09354,0 0.02205,0.0221 -0.02205,0.0715 0,0.0935 0.02205,0.022 0.0715,-0.022 0.09354,0 0.02205,0.022 -0.02205,0.0715 0,0.0935 0.02205,0.0221 0.0715,-0.022 0.09355,0 0.02205,0.0221 -0.01395,0.0657 0,0.0935 0.01972,0.0394 0.07382,0.0541 0.09354,0.0935 0.01395,0.0279 -0.02205,0.0715 0,0.0935 0.02205,0.022 0.0715,-0.0221 0.09354,0 0.02205,0.022 -0.02205,0.0715 0,0.0935 0.02205,0.022 0.0715,-0.0221 0.09355,0 0.02205,0.022 -0.02205,0.0715 0,0.0935 0.02205,0.0221 0.0715,-0.022 0.09354,0 0.02205,0.0221 -0.02205,0.0715 0,0.0935 0.02205,0.022 0.0715,-0.022 0.09354,0 0.193547,0.19355 -0.295764,-0.008 0.09355,0.18709 0.02789,0.0139 0.0715,-0.022 0.09354,0 0.193547,0.19355 -0.295764,-0.008 0.09354,0.18709 0.02789,0.0139 0.0715,-0.0221 0.09355,0 0.02205,0.022 0,0.0624 0,0.0935 0.03118,0 0.0715,-0.0221 0.09354,0 0.02205,0.022 -0.02205,0.0715 0,0.0935 0.02205,0.0221 0.0715,-0.022 0.09354,0 0.02205,0.0221 -0.02205,0.0715 0,0.0936 0.02205,0.022 0.0715,-0.0221 0.09355,0 0.193545,0.19354 -0.295766,-0.008 0.09354,0.18708 0.249452,0 -0.03118,-0.0312 0.09354,0.0935 0.193546,0.19354 -0.0076,-0.29577 0.187088,0.0935 0.01395,0.0279 -0.02205,0.0715 0,0.0935 0.02205,0.022 0.06566,-0.014 0.09355,0 0.112252,0.0561 0.168379,0.2245 0.280631,0.28063 0.02789,0.0139 0.0715,-0.022 0.09354,0 0.02205,0.0221 -0.01394,0.0657 0,0.0935 0.01972,0.0394 0.06236,0.0624 0.09354,0.0935 0.03118,0.0312 0.0541,0.0738 0.09354,0.0935 0.02789,0.0139 0.0715,-0.022 0.09354,0 0.02205,0.022 -0.02205,0.0715 0,0.0935 0.02205,0.022 0.0715,-0.0221 0.09354,0 0.02205,0.022 -0.02205,0.0715 0,0.0935 0.02205,0.022 0.0715,-0.0221 0.09354,0 0.02205,0.022 -0.02205,0.0715 0,0.0935 0.02205,0.022 0.0715,-0.0221 0.09354,0 0.02205,0.022 -0.02205,0.0715 0,0.0935 0.02205,0.0221 0.0715,-0.022 0.09354,0 0.193547,0.19355 -0.295765,-0.008 0.09354,0.18709 0.02789,0.0139 0.06566,-0.014 0.09355,0 0.09961,0.0498 0.08748,0.13728 0.187088,0.18709 0.02789,0.0139 0.0715,-0.0221 0.09354,0 0.193547,0.19354 -0.295765,-0.008 0.09354,0.18709 0.02789,0.0139 0.0715,-0.0221 0.09354,0 0.193547,0.19354 -0.295765,-0.008 0.09354,0.18708 0.02789,0.014 0.0715,-0.022 0.09354,0 0.02205,0.022 -0.02205,0.0715 0,0.0935 0.02205,0.022 0.0715,-0.022 0.09355,0 0.02205,0.022 -0.02205,0.0715 0,0.0935 0.02205,0.022 0.06565,-0.0139 0.09354,0 0.07888,0.0394 0.108205,0.14765 0.187088,0.18709 0.02789,0.0139 0.0715,-0.0221 0.09355,0 0.02205,0.022 -0.02205,0.0715 0,0.0935 0.02205,0.022 0.07149,-0.0221 0.09354,0 0.02205,0.022 -0.02205,0.0715 0,0.0935 0.02205,0.0221 0.0715,-0.022 0.09354,0 0.02205,0.0221 -0.02205,0.0715 0,0.0935 0.02205,0.022 0.06565,-0.0139 0.09354,0 0.112253,0.0561 0.16838,0.2245 0.280633,0.28063 0.02789,0.0139 0.0715,-0.022 0.09354,0 0.02205,0.022 -0.02205,0.0715 0,0.0935 0.02205,0.022 0.0715,-0.0221 0.09355,0 0.02205,0.022 -0.02205,0.0715 0,0.0935 0.06226,0.0623 0.124833,-0.0623 0.187088,0 0,0.24945 -0.03118,-0.0312 0.09354,0.0935 0.02205,0.0221 -0.02205,0.0715 0,0.0936 0.02205,0.022 0.0715,-0.0221 0.09354,0 0.02205,0.022 -0.02205,0.0715 0,0.0935 0.02205,0.0221 0.06565,-0.0139 0.09354,0 0.03944,0.0197 0.0541,0.0738 0.09354,0.0935 0.02789,0.0139 0.07149,-0.022 0.09354,0 0.02205,0.022 -0.02205,0.0715 0,0.0935 0.02205,0.022 0.06566,-0.0139 0.09354,0 0.03944,0.0197 0.0541,0.0738 0.09354,0.0935 0.02789,0.0139 0.06565,-0.0139 0.09354,0 0.09864,0.0493 0.08845,0.13777 0.187089,0.18709 0.02789,0.014 0.07149,-0.022 0.09354,0 0.02205,0.0221 -0.02205,0.0715 0,0.0936 0.02205,0.022 0.06566,-0.014 0.09354,0 0.03944,0.0197 0.0541,0.0738 0.09354,0.0935 0.02789,0.0139 0.06566,-0.0139 0.09354,0 0.03944,0.0197 0.0541,0.0738 0.09354,0.0935 0.02789,0.014 0.0715,-0.022 0.09354,0 0.02205,0.022 -0.02205,0.0715 0,0.0935 0.0441,0.0441 0.142991,-0.0441 0.187088,0 0.02205,0.022 -0.02205,0.0715 0,0.0935 0.0441,0.0441 0.142992,-0.0441 0.187089,0 0.02205,0.022 -0.02205,0.0715 0,0.0935 0.0441,0.0441 0.142991,-0.0441 0.187089,0 0.02205,0.022 -0.02205,0.0715 0,0.0935 0.02205,0.0221 0.06565,-0.0139 0.09354,0 0.03944,0.0197 0.0541,0.0738 0.09354,0.0936 0.02789,0.0139 0.0715,-0.0221 0.09354,0 0.02205,0.022 -0.02205,0.0715 0,0.0935 0.04677,0.0468 0.233861,-0.0468 0.280633,0 0.02205,0.0221 -0.02205,0.0715 0,0.0935 0.02205,0.022 0.06565,-0.0139 0.09354,0 0.03944,0.0197 0.0541,0.0738 0.09354,0.0935 0.05578,0.0279 0.142992,-0.0441 0.187089,0 0.02205,0.022 -0.02205,0.0715 0,0.0935 0.02205,0.022 0.06565,-0.0139 0.09354,0 0.03944,0.0197 0.0541,0.0738 0.09354,0.0935 0.05578,0.0279 0.142991,-0.0441 0.187089,0 0.02205,0.022 -0.02205,0.0715 0,0.0935 0.0441,0.0441 0.142991,-0.0441 0.187088,0 0.02205,0.022 -0.02205,0.0715 0,0.0935 0.0441,0.0441 0.142991,-0.0441 0.187089,0 0.02205,0.022 -0.02205,0.0715 0,0.0935 0.0441,0.0441 0.142991,-0.0441 0.187088,0 0.02205,0.0221 -0.02205,0.0715 0,0.0935 0.0441,0.0441 0.142992,-0.0441 0.187089,0 0.02205,0.022 -0.02205,0.0715 0,0.0935 0.04677,0.0468 0.233861,-0.0468 0.280633,0 0.02205,0.022 -0.02205,0.0715 0,0.0935 0.0441,0.0441 0.13131,-0.0279 0.187089,0 0.03944,0.0197 0.0541,0.0738 0.09354,0.0935 0.05578,0.0279 0.142992,-0.0441 0.187089,0 0.02205,0.022 -0.02205,0.0715 0,0.0935 0.0441,0.0441 0.142991,-0.0441 0.187089,0 0.02205,0.022 -0.02205,0.0715 0,0.0935 0.04677,0.0468 0.23386,-0.0468 0.280633,0 0.02205,0.022 -0.02205,0.0715 0,0.0935 0.0441,0.0441 0.142991,-0.0441 0.187088,0 0.02205,0.0221 -0.02205,0.0715 0,0.0935 0.0441,0.0441 0.142992,-0.0441 0.187089,0 0.02205,0.022 -0.02205,0.0715 0,0.0935 0.04677,0.0468 0.233861,-0.0468 0.280633,0 0.02205,0.0221 -0.02205,0.0715 0,0.0935 0.04677,0.0468 0.233861,-0.0468 0.280633,0 0.02205,0.022 -0.02205,0.0715 0,0.0935 0.0441,0.0441 0.142991,-0.0441 0.187089,0 0.02205,0.022 -0.02205,0.0715 0,0.0935 0.02251,0.0225 0.351667,-0.0225 0.374177,0 0.02205,0.022 -0.02205,0.0715 0,0.0935 0.0441,0.0441 0.142991,-0.0441 0.187089,0 0.02205,0.022 -0.02205,0.0715 0,0.0935 0.01912,0.0191 0.243543,-0.0185 0.280633,0 0.03944,0.0197 0.0541,0.0738 0.09354,0.0936 0.03709,0.0185 0.261509,-0.0191 0.280633,0 0.02205,0.022 -0.02205,0.0715 0,0.0935 0.01912,0.0191 0.243543,-0.0185 0.280632,0 0.03944,0.0197 0.0541,0.0738 0.09355,0.0935 0.07484,0.0374 0.205796,-0.0374 0.280633,0 0.03944,0.0197 0.05171,0.0796 0.09354,0.0935 0.05321,0.0177 0.379619,0 0.467723,0 0.03118,0 0.0715,-0.022 0.09354,0 0.02204,0.022 -0.02204,0.0715 0,0.0935 0.02204,0.022 0.06236,0 0.09354,0 0.155908,0 0.311817,0 0.467722,0 0.03118,0 0.0715,-0.022 0.09354,0 0.02204,0.022 -0.02204,0.0715 0,0.0935 0.02252,0.0225 0.351668,-0.0225 0.374179,0 0.02204,0.022 -0.02204,0.0715 0,0.0935 0.0042,0.004 0.423616,0 0.467722,0"
         style="fill:none;stroke:#fffff9;stroke-width:3.17499995;stroke-linecap:round;stroke-linejoin:round;stroke-miterlimit:4;stroke-dasharray:0.79374999, 0.79374999;stroke-dashoffset:0;stroke-opacity:1;paint-order:stroke fill markers" />
    </g>
    <path
       inkscape:connector-curvature="0"
       style="fill:#ffffff;fill-opacity:1;stroke:none;stroke-width:0.25903612;stroke-miterlimit:4;stroke-dasharray:none;stroke-opacity:1;paint-order:fill markers stroke"
       d="m 67.997922,164.44377 a 14.81667,14.81667 0 0 0 -1.186045,0.0538 l -1.056711,4.23954 -3.167448,-3.26783 a 14.81667,14.81667 0 0 0 -2.792143,1.46412 l 1.29185,4.50451 -4.711602,-1.34158 a 14.81667,14.81667 0 0 0 -1.601582,2.51767 l 3.620966,3.49662 -5.080114,1.27693 a 14.81667,14.81667 0 0 0 -0.133843,1.87287 14.81667,14.81667 0 0 0 0.03346,0.95002 l 5.185921,1.29274 -3.91397,3.79325 a 14.81667,14.81667 0 0 0 1.342037,2.38654 l 5.272744,-1.51205 -1.506628,5.29037 a 14.81667,14.81667 0 0 0 2.388356,1.32758 l 3.790982,-3.92573 1.298632,5.16738 a 14.81667,14.81667 0 0 0 0.925137,0.0465 14.81667,14.81667 0 0 0 1.903178,-0.14108 l 1.265618,-5.0783 3.513353,3.62458 a 14.81667,14.81667 0 0 0 2.509081,-1.60204 l -1.354693,-4.72335 4.506767,1.28325 a 14.81667,14.81667 0 0 0 1.447845,-2.8057 l -3.262403,-3.15026 4.229593,-1.06305 a 14.81667,14.81667 0 0 0 0.05836,-1.16072 14.81667,14.81667 0 0 0 -0.170022,-2.14102 l -4.123324,-1.02778 2.978894,-2.8871 a 14.81667,14.81667 0 0 0 -1.724573,-2.91513 l -3.955123,1.13449 1.124997,-3.95014 a 14.81667,14.81667 0 0 0 -2.911065,-1.73136 l -2.886651,2.98929 -1.035012,-4.11791 a 14.81667,14.81667 0 0 0 -2.114796,-0.17001 z m 0.463015,7.87135 a 6.4822926,6.4822926 0 0 1 6.482299,6.4823 6.4822926,6.4822926 0 0 1 -6.482299,6.48229 6.4822926,6.4822926 0 0 1 -6.482289,-6.48229 6.4822926,6.4822926 0 0 1 6.482289,-6.4823 z"
       id="path815"
       inkscape:export-xdpi="96"
       inkscape:export-ydpi="96" />
    <g
       id="g860"
       transform="matrix(1.2258065,0,0,1.2258065,-44.498889,-86.69918)">
      <rect
         ry="2.1166666"
         rx="2.1166666"
         y="239.98228"
         x="90.137016"
         height="11.377083"
         width="5.953125"
         id="rect828"
         style="fill:#ffffff;fill-opacity:1;stroke:#ffffff;stroke-width:2.64583325;stroke-linecap:round;stroke-linejoin:round;stroke-miterlimit:4;stroke-dasharray:none;stroke-opacity:1;paint-order:fill markers stroke" />
      <path
         d="m 100.61688,252.16218 a 10.583333,10.583333 0 0 1 -7.483549,3.09979 10.583333,10.583333 0 0 1 -7.483546,-3.09979"
         sodipodi:open="true"
         sodipodi:end="2.3561945"
         sodipodi:start="0.78539816"
         sodipodi:ry="10.583333"
         sodipodi:rx="10.583333"
         sodipodi:cy="244.67863"
         sodipodi:cx="93.133331"
         sodipodi:type="arc"
         id="path844"
         style="fill:none;fill-opacity:1;stroke:#ffffff;stroke-width:2.11666656;stroke-linecap:round;stroke-linejoin:round;stroke-miterlimit:4;stroke-dasharray:none;stroke-opacity:1;paint-order:fill markers stroke" />
      <rect
         ry="1.5875001"
         rx="1.5875001"
         y="255.19582"
         x="91.327637"
         height="7.0114584"
         width="3.3072915"
         id="rect852"
         style="fill:#ffffff;fill-opacity:1;stroke:#ffffff;stroke-width:2.11666656;stroke-linecap:round;stroke-linejoin:round;stroke-miterlimit:4;stroke-dasharray:none;stroke-opacity:1;paint-order:fill markers stroke" />
    </g>
    <g
       id="g875"
       transform="translate(-15.610416,-10.054167)">
      <ellipse
         ry="11.72775"
         rx="11.727751"
         cy="270.01248"
         cx="86.518745"
         id="path820"
         style="fill:none;fill-opacity:1;stroke:#ffffff;stroke-width:2.64583325;stroke-linecap:round;stroke-linejoin:round;stroke-miterlimit:4;stroke-dasharray:none;stroke-opacity:1;paint-order:fill markers stroke" />
      <ellipse
         ry="3.1750002"
         rx="3.175"
         cy="266.16589"
         cx="86.39727"
         id="path822"
         style="fill:#ffffff;fill-opacity:1;stroke:#ffffff;stroke-width:2.11666656;stroke-linecap:round;stroke-linejoin:round;stroke-miterlimit:4;stroke-dasharray:none;stroke-opacity:1;paint-order:fill markers stroke" />
      <path
         d="m 77.498801,277.39773 a 10.422268,9.5074005 0 0 1 9.025948,-4.7537 10.422268,9.5074005 0 0 1 9.025949,4.7537"
         sodipodi:open="true"
         sodipodi:end="5.7595865"
         sodipodi:start="3.6651914"
         sodipodi:ry="9.5074005"
         sodipodi:rx="10.422268"
         sodipodi:cy="282.15143"
         sodipodi:cx="86.52475"
         sodipodi:type="arc"
         id="path834"
         style="fill:#ffffff;fill-opacity:1;stroke:#ffffff;stroke-width:2.02890801;stroke-linecap:round;stroke-linejoin:round;stroke-miterlimit:4;stroke-dasharray:none;stroke-opacity:1;paint-order:fill markers stroke" />
    </g>
  </g>
</svg>
